<?xml version="1.0" standalone="no"?>
<!DOCTYPE svg PUBLIC "-//W3C//DTD SVG 1.1//EN" "http://www.w3.org/Graphics/SVG/1.1/DTD/svg11.dtd" >
<svg xmlns="http://www.w3.org/2000/svg" xmlns:xlink="http://www.w3.org/1999/xlink" version="1.1">
<metadata>
Created by FontForge 20161003 at Sun Jun 10 12:45:18 2018
 By www-data
Copyright (c) 2007 by Morisawa &#38; Company Ltd. All rights reserved.
</metadata>
<defs>
<font id="UniqloItalic" horiz-adv-x="463" >
  <font-face 
    font-family="UniqloItalic"
    font-weight="400"
    font-style="italic"
    font-stretch="normal"
    units-per-em="1000"
    panose-1="2 0 5 6 0 0 0 9 0 4"
    ascent="750"
    descent="-250"
    x-height="493"
    cap-height="696"
    bbox="-121 -210 971 928"
    underline-thickness="50"
    underline-position="-100"
    slope="-12"
    unicode-range="U+0020-2212"
  />
<missing-glyph horiz-adv-x="333" 
 />
    <glyph glyph-name=".notdef" horiz-adv-x="333" 
 />
    <glyph glyph-name=".null" horiz-adv-x="0" 
 />
    <glyph glyph-name="nonmarkingreturn" horiz-adv-x="0" 
 />
    <glyph glyph-name="space" unicode=" " horiz-adv-x="333" 
 />
    <glyph glyph-name="space" unicode="&#xa0;" horiz-adv-x="333" 
 />
    <glyph glyph-name="percent" unicode="%" 
d="M523 696l-452 -696h-87l452 696h87zM276 95q0 -2 -0.5 -3.5t-0.5 -3.5q0 -19 22 -19q11 0 19 7t10 18l15 70q1 3 1 10q0 18 -21 18q-25 0 -30 -25zM395 94q-9 -45 -36 -69.5t-68 -24.5q-37 0 -61.5 21.5t-24.5 54.5q0 8 2 18l15 73q9 45 36.5 69.5t69.5 24.5q36 0 60 -21
t24 -54q0 -11 -2 -19zM165 531q0 -2 -0.5 -4t-0.5 -3q0 -20 22 -20q23 0 29 25l16 72q0 2 0.5 3.5t0.5 3.5q0 7 -6 13t-16 6q-25 0 -30 -25zM284 529q-9 -45 -35.5 -69.5t-68.5 -24.5q-37 0 -61.5 21.5t-24.5 53.5q0 11 2 19l15 73q9 44 36.5 69t68.5 25q37 0 61 -22t24 -53
q0 -5 -0.5 -9.5t-1.5 -9.5z" />
    <glyph glyph-name="ampersand" unicode="&#x26;" horiz-adv-x="602" 
d="M235 335l-43 -27q-65 -42 -65 -112q0 -42 26.5 -68t68.5 -26q32 0 64 9.5t61 26.5zM332 503q29 18 29 48q0 20 -13 32t-33 12q-25 0 -42.5 -18t-17.5 -45q0 -19 7 -31l17 -31zM426 209q17 21 28.5 45.5t19.5 55.5h102q-12 -54 -36.5 -99t-65.5 -88l69 -123h-117l-33 57
q-44 -28 -90 -42.5t-91 -14.5q-42 0 -77 13t-59.5 36.5t-38 57t-13.5 74.5q0 63 31.5 116.5t93.5 91.5l41 25l-17 30q-8 13 -13.5 33t-5.5 40q0 39 13 72t36 56.5t54 37t68 13.5q63 0 101.5 -37t38.5 -98q0 -46 -21 -77t-64 -58l-56 -35z" />
    <glyph glyph-name="quotesingle" unicode="'" horiz-adv-x="204" 
d="M256 696l-24 -116l-141 -116l49 232h116z" />
    <glyph glyph-name="parenleft" unicode="(" horiz-adv-x="268" 
d="M183 0q-33 1 -62 12t-50.5 31t-33.5 48t-12 64q0 11 1 21t3 20l65 304q41 190 237 196l-24 -116q-38 -1 -63.5 -21.5t-33.5 -58.5l-65 -304q-1 -5 -1.5 -10t-0.5 -8q0 -28 17.5 -44.5t47.5 -17.5z" />
    <glyph glyph-name="parenright" unicode=")" horiz-adv-x="268" 
d="M130 696q36 -1 65 -13t50 -32t32 -48t11 -62q0 -10 -1 -22t-3 -19l-65 -304q-20 -94 -79 -143.5t-158 -52.5l25 116q38 1 63 21.5t33 58.5l65 304q2 10 2 18q0 28 -17.5 44.5t-47.5 17.5z" />
    <glyph glyph-name="asterisk" unicode="*" horiz-adv-x="306" 
d="M348 504l-39 -51l-72 48l-21 -95h-58l21 95l-93 -48l-18 51l92 47l-72 47l40 51l72 -48l20 95h58l-20 -95l92 48l18 -51l-92 -47z" />
    <glyph glyph-name="plus" unicode="+" horiz-adv-x="528" 
d="M344 580v-174h174v-116h-174v-174h-116v174h-174v116h174v174h116z" />
    <glyph glyph-name="comma" unicode="," horiz-adv-x="204" 
d="M132 116l-24 -116l-141 -116l49 232h116z" />
    <glyph glyph-name="hyphen" unicode="-" horiz-adv-x="528" 
d="M518 406v-116h-464v116h464z" />
    <glyph glyph-name="period" unicode="." horiz-adv-x="204" 
d="M133 116l-25 -116h-116l25 116h116z" />
    <glyph glyph-name="slash" unicode="/" horiz-adv-x="324" 
d="M404 696l-322 -696h-116l322 696h116z" />
    <glyph glyph-name="zero" unicode="0" 
d="M368 507q1 5 1.5 9.5t0.5 7.5q0 29 -18 46t-48 17q-35 0 -61.5 -22.5t-34.5 -57.5l-68 -318q-1 -4 -1 -8.5v-8.5q0 -29 17.5 -46t47.5 -17q35 0 61.5 22t34.5 58zM92 506q20 96 77.5 146.5t141.5 50.5q39 0 71.5 -11.5t56 -32.5t36.5 -49.5t13 -62.5q0 -19 -5 -41
l-67 -316q-20 -96 -76.5 -146.5t-142.5 -50.5q-39 0 -71.5 11.5t-56 32.5t-36.5 49.5t-13 62.5q0 16 5 41z" />
    <glyph glyph-name="one" unicode="1" 
d="M395 696l-148 -696h-116l123 580h-72l24 116h189z" />
    <glyph glyph-name="two" unicode="2" 
d="M321 435q48 48 48 90q0 27 -18.5 44.5t-47.5 17.5q-35 0 -61 -22t-34 -58h-116q10 45 31 81t51 61.5t67 39.5t79 14q37 0 67.5 -12t52.5 -34t34.5 -52t12.5 -66v-5q0 -44 -20 -85t-65 -84l-254 -249h252l-24 -116h-392l25 116z" />
    <glyph glyph-name="three" unicode="3" 
d="M92 507q8 45 27.5 81.5t48.5 62t65.5 39t78.5 13.5q39 0 71.5 -12t56 -34t36 -52.5t12.5 -67.5q0 -60 -29 -107.5t-84 -75.5q23 -19 35.5 -52t12.5 -75q0 -51 -17 -94t-47 -74t-72 -48.5t-92 -17.5q-38 0 -70 11.5t-55.5 32.5t-36.5 49.5t-13 62.5q0 10 1 18t3 22h116
q-1 -5 -1.5 -10t-0.5 -9q0 -28 16.5 -44.5t45.5 -16.5q23 0 42 8.5t33 24t22 36.5t8 45q0 12 -2.5 26.5t-9.5 26.5t-19.5 20t-32.5 8h-48l25 116h43q23 0 42.5 8t34 22t23 33t8.5 41q0 28 -19 45.5t-48 17.5q-34 0 -59 -21.5t-35 -58.5h-116z" />
    <glyph glyph-name="four" unicode="4" 
d="M268 203l70 330l-211 -330h141zM417 87h-58l-18 -87h-116l18 87h-261l23 109l324 500h159l-104 -493h58z" />
    <glyph glyph-name="five" unicode="5" 
d="M495 696l-25 -116h-250l-26 -121q19 11 40 15.5t41 4.5q36 0 66.5 -11.5t52 -32.5t34 -49.5t12.5 -62.5q0 -8 -1.5 -21.5t-2.5 -18.5l-20 -94q-20 -95 -76.5 -145.5t-143.5 -50.5q-39 0 -71 12t-55.5 33t-36.5 50t-13 64q0 7 0.5 13t2.5 17h116v-10q0 -29 18 -46t47 -17
q35 0 61.5 22.5t34.5 57.5l20 94q2 10 2 17q0 29 -18.5 46t-48.5 17q-56 0 -87 -58h-119l83 391h363z" />
    <glyph glyph-name="six" unicode="6" 
d="M308 225q1 4 1 9v9q0 29 -19 45.5t-51 16.5q-21 0 -36.5 -8t-27 -20t-18 -26t-9.5 -26l-8 -36q-1 -5 -1.5 -9t-0.5 -7q0 -16 6 -28t15.5 -20t21 -12t22.5 -4q34 0 61.5 23t35.5 57zM251 419q9 1 13 1h7q29 0 57 -9.5t50 -29t35.5 -48.5t13.5 -68q0 -6 -1 -19.5t-3 -20.5
l-8 -36q-20 -91 -77.5 -143.5t-143.5 -52.5q-39 0 -71 12.5t-55.5 34.5t-36 50.5t-12.5 61.5q0 6 1.5 17.5t3.5 19.5l8 36q6 26 20.5 59.5t40.5 72.5l226 339h116z" />
    <glyph glyph-name="seven" unicode="7" 
d="M514 696l-24 -116l-337 -580h-120l337 580h-257l24 116h377z" />
    <glyph glyph-name="eight" unicode="8" 
d="M245 304q-24 0 -45.5 -9.5t-37 -25.5t-25 -37.5t-9.5 -45.5q0 -35 21 -56t56 -21q24 0 45 9.5t36.5 25.5t25 37.5t9.5 45.5q0 34 -20.5 55.5t-55.5 21.5zM300 587q-19 0 -36 -8t-30 -22t-20.5 -32.5t-7.5 -38.5q0 -29 18 -47.5t47 -18.5q19 0 37 8t31.5 21.5t21.5 31.5
t8 37q0 31 -19 50t-50 19zM315 703q38 0 69.5 -12.5t54.5 -34.5t36 -53t13 -68q0 -54 -25.5 -98.5t-67.5 -71.5q24 -21 34 -59t10 -71q0 -57 -20.5 -101.5t-54 -76t-76.5 -48t-88 -16.5q-42 0 -77 13.5t-60.5 38t-39.5 57.5t-14 72q0 113 112 191q-15 20 -24.5 46t-9.5 60
q0 47 18 89t48.5 73.5t72 50.5t89.5 19z" />
    <glyph glyph-name="nine" unicode="9" 
d="M200 472q-1 -4 -1 -8v-8q0 -29 19 -47t50 -18q33 0 58.5 22.5t33.5 57.5l8 36q2 10 2 16q0 29 -19 46.5t-46 17.5q-34 0 -61.5 -22t-35.5 -58zM257 277q-9 -1 -13 -1h-8q-34 0 -62.5 11.5t-49.5 32.5t-32.5 49.5t-11.5 61.5q0 8 1 20t3 20l8 36q11 49 32.5 85.5t51 61
t64 37t70.5 12.5q39 0 71.5 -11.5t56.5 -32t37 -49t13 -62.5q0 -6 -1 -15.5t-2.5 -19.5l-3 -20t-3.5 -16q-10 -35 -24.5 -68t-39.5 -70l-225 -339h-116z" />
    <glyph glyph-name="colon" unicode=":" horiz-adv-x="204" 
d="M182 348l-25 -116h-116l25 116h116zM133 116l-25 -116h-116l25 116h116z" />
    <glyph glyph-name="semicolon" unicode=";" horiz-adv-x="204" 
d="M132 116l-24 -116l-141 -116l49 232h116zM182 348l-25 -116h-116l25 116h116z" />
    <glyph glyph-name="less" unicode="&#x3c;" horiz-adv-x="565" 
d="M52 413l464 188v-123l-334 -130l334 -130v-124l-464 189v130z" />
    <glyph glyph-name="equal" unicode="=" horiz-adv-x="565" 
d="M534 196h-464v116h464v-116zM534 384h-464v116h464v-116z" />
    <glyph glyph-name="greater" unicode="&#x3e;" horiz-adv-x="565" 
d="M92 94v124l334 130l-334 130v123l464 -188v-130z" />
    <glyph glyph-name="question" unicode="?" 
d="M262 116l-24 -116h-116l24 116h116zM92 507q9 44 29.5 80t49.5 62t65.5 40t78.5 14q38 0 69.5 -12.5t54.5 -34.5t35.5 -52.5t12.5 -66.5q0 -38 -13 -67.5t-41 -63.5l-128 -155q-9 -11 -14 -21t-10 -27h-116q6 30 16 53t29 45l135 162q11 14 17.5 28t6.5 34q0 28 -18 45
t-46 17q-41 0 -64 -20t-33 -60h-116z" />
    <glyph glyph-name="at" unicode="@" horiz-adv-x="759" 
d="M491 378q0 35 -24.5 60t-62.5 25q-37 0 -62.5 -25t-25.5 -61v-58q0 -18 7 -34t19 -27.5t28 -18.5t33 -7q37 0 62.5 25.5t25.5 61.5v59zM563 319q0 -23 16 -40t44 -17q55 0 55 90q0 56 -21.5 105.5t-59 86.5t-87.5 58.5t-106 21.5q-57 0 -107.5 -21.5t-88 -59t-59 -88
t-21.5 -107.5t22 -107t59.5 -87.5t87.5 -59.5t106 -22q28 0 53.5 5.5t54.5 16.5l28 -67q-33 -14 -64.5 -20.5t-67.5 -6.5q-73 0 -137 27t-111.5 74.5t-75 111t-27.5 135.5t27.5 135.5t74.5 110.5t110.5 74.5t135.5 27.5q71 0 134.5 -27.5t110.5 -75t74.5 -110t27.5 -132.5
q0 -75 -35 -118.5t-93 -43.5q-25 0 -49.5 9.5t-41.5 26.5q-23 -32 -57.5 -49t-71.5 -17q-32 0 -61 12.5t-50.5 34t-34.5 51t-13 62.5v58q0 31 12 60t32 51t47.5 35t58.5 13q28 0 53 -9t44 -25v35h72v-218z" />
    <glyph glyph-name="A" unicode="A" horiz-adv-x="611" 
d="M368 522l-158 -290h193zM146 116l-63 -116h-120l380 696h116l84 -696h-112l-14 116h-271z" />
    <glyph glyph-name="B" unicode="B" horiz-adv-x="546" 
d="M345 406q22 0 41.5 8.5t34.5 22.5t23.5 32.5t8.5 38.5q0 32 -19.5 52t-51.5 20h-145l-37 -174h145zM139 116h145q46 0 77 28t31 70q0 34 -18 55t-53 21h-145zM399 696q38 0 69.5 -13t54.5 -36.5t36 -56t13 -71.5q0 -112 -103 -171q20 -20 30.5 -52t10.5 -70
q0 -53 -19 -95t-52 -71t-76.5 -44.5t-92.5 -15.5h-272l148 696h253z" />
    <glyph glyph-name="C" unicode="C" horiz-adv-x="528" 
d="M492 225q-10 -53 -34 -96t-59 -73t-78.5 -46.5t-92.5 -16.5q-45 0 -82.5 13.5t-65 38t-42.5 58.5t-15 74q0 10 1.5 23.5t3.5 24.5l53 246q12 54 36 97t58 73t77 46t92 16q45 0 82.5 -13.5t65 -37.5t42.5 -58t15 -75q0 -8 -1.5 -20.5t-3.5 -27.5h-115q1 7 1 13v11
q0 45 -25 68.5t-73 23.5q-52 0 -88 -32t-47 -84l-53 -246q-1 -4 -2 -11.5t-1 -12.5q0 -44 26 -68t71 -24q51 0 87.5 30t50.5 86h116z" />
    <glyph glyph-name="D" unicode="D" horiz-adv-x="546" 
d="M255 116q56 0 92 30t48 86l50 232q3 12 3 27q0 42 -25 65.5t-70 23.5h-116l-98 -464h116zM366 696q41 0 77 -13t63 -37t43 -58t16 -77q0 -9 -1.5 -22.5t-3.5 -24.5l-49 -232q-13 -63 -40 -107t-63.5 -72t-81 -40.5t-92.5 -12.5h-236l148 696h220z" />
    <glyph glyph-name="E" unicode="E" horiz-adv-x="546" 
d="M238 580l-37 -174h232l-24 -116h-232l-37 -174h348l-25 -116h-464l148 696h464l-25 -116h-348z" />
    <glyph glyph-name="F" unicode="F" horiz-adv-x="537" 
d="M611 696l-25 -116h-348l-37 -174h232l-24 -116h-232l-62 -290h-116l148 696h464z" />
    <glyph glyph-name="G" unicode="G" horiz-adv-x="528" 
d="M428 471q2 8 2 13.5v10.5q0 45 -25 68.5t-69 23.5q-55 0 -92 -31t-48 -85l-52 -246q-1 -5 -2 -13.5t-1 -16.5q0 -39 25.5 -62.5t71.5 -23.5q37 0 69.5 19t50.5 52q6 11 11.5 25t7.5 27h-119l24 116h235l-24 -116q-23 -112 -92.5 -175.5t-173.5 -63.5q-44 0 -81.5 13.5
t-65 38t-43 58.5t-15.5 74q0 9 1.5 24.5t3.5 23.5l53 246q14 67 43.5 111.5t66 71.5t77.5 38t78 11q45 0 82.5 -13.5t64.5 -38t42 -58.5t15 -74q0 -7 -1.5 -20.5t-3.5 -27.5h-116z" />
    <glyph glyph-name="H" unicode="H" horiz-adv-x="565" 
d="M263 696l-62 -290h232l62 290h116l-148 -696h-116l62 290h-232l-62 -290h-116l148 696h116z" />
    <glyph glyph-name="I" unicode="I" horiz-adv-x="213" 
d="M261 696l-148 -696h-116l148 696h116z" />
    <glyph glyph-name="J" unicode="J" horiz-adv-x="528" 
d="M576 696l-100 -471q-24 -114 -90 -173t-170 -59q-46 0 -84.5 14t-66.5 38.5t-43 59t-15 74.5q0 21 5 46h116q-2 -6 -2.5 -12.5t-0.5 -10.5q0 -44 26 -68.5t73 -24.5q54 0 89 29.5t47 86.5l100 471h116z" />
    <glyph glyph-name="K" unicode="K" horiz-adv-x="528" 
d="M463 0h-116l-98 251l-109 -135l-25 -116h-116l148 696h116l-78 -369l299 369h127l-282 -347z" />
    <glyph glyph-name="L" unicode="L" horiz-adv-x="546" 
d="M263 696l-123 -580h348l-25 -116h-464l148 696h116z" />
    <glyph glyph-name="M" unicode="M" horiz-adv-x="620" 
d="M190 364l-77 -364h-116l148 696h111l55 -425l235 425h121l-148 -696h-116l77 364l-139 -248h-116z" />
    <glyph glyph-name="N" unicode="N" horiz-adv-x="565" 
d="M264 696l133 -464l99 464h116l-148 -696h-116l-133 464l-99 -464h-116l148 696h116z" />
    <glyph glyph-name="O" unicode="O" horiz-adv-x="528" 
d="M144 225q-1 -4 -2 -12t-1 -13q0 -36 25.5 -63.5t74.5 -27.5q51 0 87.5 31.5t47.5 84.5l52 246q2 5 2.5 12.5t0.5 12.5q0 43 -27 67t-72 24q-51 0 -88 -31.5t-48 -84.5zM80 471q7 34 19 66.5t29 55.5q36 52 93.5 81t123.5 29q45 0 82.5 -13.5t64.5 -38t42 -58.5t15 -74
q0 -8 -2 -22.5t-4 -25.5l-51 -246q-5 -23 -15.5 -57t-31.5 -65q-35 -51 -93 -80.5t-124 -29.5q-45 0 -82.5 13.5t-64.5 38t-42.5 58.5t-15.5 74q0 23 5 48z" />
    <glyph glyph-name="P" unicode="P" horiz-adv-x="537" 
d="M303 348q30 0 56.5 11t46 29.5t30.5 43.5t11 53q0 43 -26 69t-69 26h-116l-49 -232h116zM364 696q38 0 74.5 -12.5t64.5 -37.5t45 -63t17 -88q0 -58 -22 -106.5t-59 -83.5t-85 -54t-101 -19h-136l-49 -232h-116l148 696h219z" />
    <glyph glyph-name="Q" unicode="Q" horiz-adv-x="528" 
d="M144 225q-2 -5 -2.5 -12t-0.5 -13q0 -18 6 -34t18.5 -29t31.5 -20.5t44 -7.5q51 0 87.5 31.5t47.5 84.5l52 246q2 5 2.5 12.5t0.5 12.5q0 42 -27 66.5t-72 24.5q-51 0 -88 -31.5t-48 -84.5zM420 -116h-116l-34 112q-13 -2 -23 -2.5t-21 -0.5q-39 0 -76 12.5t-65 36
t-45 57.5t-17 78q0 10 1.5 24.5t3.5 23.5l52 246q15 76 48 122q36 52 93.5 81t123.5 29q41 0 78 -12.5t65 -36t44.5 -57.5t16.5 -78q0 -8 -2 -23t-4 -25l-51 -246q-14 -70 -42 -113t-75 -77z" />
    <glyph glyph-name="R" unicode="R" horiz-adv-x="537" 
d="M304 348q30 0 56.5 10.5t46 29.5t30.5 44t11 53q0 44 -26 69.5t-69 25.5h-116l-49 -232h116zM463 0h-116l-67 232h-117l-49 -232h-116l148 696h220q42 0 78.5 -14t63.5 -40t42.5 -63t15.5 -84q0 -42 -12.5 -80.5t-35 -70.5t-55 -56.5t-72.5 -38.5z" />
    <glyph glyph-name="S" unicode="S" horiz-adv-x="472" 
d="M395 515q-11 38 -32 55t-56 17q-45 0 -75 -28t-30 -70q0 -18 9 -33t22 -22l119 -64q38 -21 59.5 -56t21.5 -88q0 -48 -18.5 -90t-51 -74t-75.5 -50.5t-93 -18.5q-75 0 -123.5 37t-68.5 107l118 44q20 -72 87 -72q22 0 41 8t33.5 22.5t23 33.5t8.5 40q0 17 -6 28t-24 21
l-118 64q-39 21 -61 59t-22 87q0 41 16.5 82.5t47 74.5t75 53.5t100.5 20.5q147 0 191 -144z" />
    <glyph glyph-name="T" unicode="T" horiz-adv-x="528" 
d="M592 696l-25 -116h-174l-123 -580h-116l123 580h-174l25 116h464z" />
    <glyph glyph-name="U" unicode="U" horiz-adv-x="565" 
d="M263 696l-101 -471q-1 -4 -1.5 -10t-0.5 -15q0 -42 27 -66.5t72 -24.5q51 0 87.5 31.5t47.5 84.5l101 471h116l-101 -471q-8 -38 -19.5 -68.5t-27.5 -53.5q-36 -52 -93.5 -81t-123.5 -29q-45 0 -82.5 13.5t-64.5 38t-42.5 58.5t-15.5 74q0 23 5 48l101 471h116z" />
    <glyph glyph-name="V" unicode="V" horiz-adv-x="500" 
d="M458 696h120l-322 -696h-116l-26 696h112l8 -506z" />
    <glyph glyph-name="W" unicode="W" horiz-adv-x="843" 
d="M223 696l8 -507l224 507h116l8 -507l224 507h120l-322 -696h-116l-8 506l-224 -506h-116l-26 696h112z" />
    <glyph glyph-name="X" unicode="X" horiz-adv-x="491" 
d="M454 696h120l-249 -352l101 -344h-112l-68 232l-164 -232h-120l249 352l-101 344h112l68 -232z" />
    <glyph glyph-name="Y" unicode="Y" horiz-adv-x="491" 
d="M251 0h-116l74 348l-100 348h112l66 -233l166 233h120l-248 -348z" />
    <glyph glyph-name="Z" unicode="Z" horiz-adv-x="528" 
d="M566 580l-430 -464h332l-25 -116h-464l25 116l430 464h-332l25 116h464z" />
    <glyph glyph-name="bracketleft" unicode="[" horiz-adv-x="315" 
d="M236 578l-98 -462h117l-25 -116h-235l148 696h235l-25 -118h-117z" />
    <glyph glyph-name="backslash" unicode="\" horiz-adv-x="324" 
d="M256 0h-116l-26 696h116z" />
    <glyph glyph-name="bracketright" unicode="]" horiz-adv-x="315" 
d="M129 696h235l-148 -696h-235l25 116h117l98 462h-117z" />
    <glyph glyph-name="asciicircum" unicode="^" horiz-adv-x="389" 
d="M280 696l131 -290h-102l-80 177l-80 -177h-101l131 290h101z" />
    <glyph glyph-name="underscore" unicode="_" horiz-adv-x="352" 
d="M281 116v-116h-290v116h290z" />
    <glyph glyph-name="grave" unicode="`" horiz-adv-x="213" 
d="M254 565h-83l-63 131h97z" />
    <glyph glyph-name="a" unicode="a" horiz-adv-x="444" 
d="M163 190q-23 0 -38.5 -15.5t-15.5 -36.5q0 -16 9.5 -26t25.5 -10h42q18 0 36 6.5t33 18.5t25 28t13 35h-130zM319 309q1 5 1.5 10t0.5 10q0 33 -20 50t-51 17q-57 0 -92 -54l-85 39q35 57 85.5 87t107.5 30q35 0 64 -11t50 -31t32.5 -48t11.5 -61q0 -6 -1 -18t-3 -20
l-66 -309h-101l7 32q-21 -17 -47 -24.5t-49 -7.5h-42q-25 0 -46.5 9.5t-37 26.5t-24.5 39.5t-9 48.5q0 35 14 65t38.5 52.5t57 35.5t69.5 13h131z" />
    <glyph glyph-name="b" unicode="b" horiz-adv-x="444" 
d="M330 305q1 5 1.5 10t0.5 10q0 31 -20.5 49t-55.5 18q-36 0 -64 -24.5t-36 -62.5l-24 -116q-3 -12 -3 -20q0 -30 20 -48.5t52 -18.5q38 0 67.5 24t37.5 62zM239 696l-49 -235q20 16 45.5 24t51.5 8q33 0 60 -11t47 -31t31 -47.5t11 -60.5q0 -9 -1 -20t-3 -18l-25 -117
q-18 -86 -74.5 -137t-136.5 -51q-29 0 -54.5 9t-43.5 23l-6 -32h-102l148 696h101z" />
    <glyph glyph-name="c" unicode="c" horiz-adv-x="435" 
d="M393 184q-18 -88 -76 -138.5t-139 -50.5q-36 0 -66.5 11t-52.5 31t-34.5 47.5t-12.5 59.5q0 20 5 45l25 115q20 94 77 144t138 50q75 0 120.5 -41.5t45.5 -112.5q0 -9 -0.5 -16.5t-2.5 -18.5h-102q2 8 2 14v8q0 33 -19.5 49t-50.5 16q-48 0 -72.5 -25t-33.5 -67l-25 -115
q-3 -12 -3 -25q0 -30 20 -48.5t53 -18.5q39 0 66 22.5t37 64.5h101z" />
    <glyph glyph-name="d" unicode="d" horiz-adv-x="444" 
d="M314 305q1 3 1.5 8.5t0.5 8.5q0 35 -21 52.5t-55 17.5q-38 0 -65 -23.5t-35 -63.5l-24 -117q-2 -10 -2 -18q0 -30 19 -49t50 -19q38 0 68 23.5t38 62.5zM351 0h-102l7 32q-24 -17 -47.5 -24t-50.5 -7q-32 0 -59.5 11t-47 30.5t-30.5 46.5t-11 59q0 8 1 20t3 20l25 117
q20 91 73.5 139.5t136.5 48.5q62 0 98 -32l50 235h102z" />
    <glyph glyph-name="e" unicode="e" horiz-adv-x="435" 
d="M319 309q2 7 2.5 10.5t0.5 6.5q0 32 -20 51t-50 19q-41 0 -69 -23.5t-37 -63.5h173zM119 184q-2 -10 -2 -19q0 -31 20 -49.5t50 -18.5q37 0 70 27l56 -71q-63 -57 -142 -57q-34 0 -63 11t-50 31t-33 47.5t-12 59.5q0 8 1 19t3 20l27 125q9 44 29 78.5t48 59.5t63.5 38
t75.5 13q36 0 66 -11.5t51.5 -32.5t34 -50t12.5 -63q0 -8 -1.5 -17.5t-2.5 -14.5l-21 -101h-275z" />
    <glyph glyph-name="f" unicode="f" horiz-adv-x="315" 
d="M344 493l-22 -102h-101l-83 -391h-102l83 391h-58l22 102h58l12 58q7 33 23 60t39 45.5t52 29t62 10.5h58l-22 -102h-58q-20 0 -33.5 -11.5t-18.5 -31.5l-13 -58h102z" />
    <glyph glyph-name="g" unicode="g" horiz-adv-x="444" 
d="M316 304q2 10 2 18q0 30 -21.5 49.5t-55.5 19.5q-38 0 -64.5 -23t-34.5 -63l-25 -116q-1 -5 -1 -10v-9q0 -29 17.5 -48.5t52.5 -19.5q18 0 35.5 6.5t32 18.5t24.5 27.5t14 33.5zM259 32q-25 -17 -48.5 -24.5t-52.5 -7.5t-55.5 9t-46.5 27t-32 44.5t-12 62.5q0 17 1 27.5
t3 18.5l25 115q20 92 72.5 140t133.5 48q32 0 59.5 -8.5t43.5 -22.5l7 32h101l-108 -507q-20 -91 -76 -140t-138 -49q-42 0 -78 15t-58 41l86 73q22 -28 61 -28q38 0 66 24.5t36 63.5z" />
    <glyph glyph-name="h" unicode="h" 
d="M241 696l-49 -235q22 17 46 24.5t52 7.5q29 0 55.5 -9.5t47 -28t33 -46t12.5 -63.5q0 -11 -1 -23t-3 -18l-65 -305h-102l65 305q1 3 1.5 9t0.5 10q0 34 -20 51t-53 17q-38 0 -66.5 -24t-36.5 -63l-64 -305h-102l148 696h101z" />
    <glyph glyph-name="i" unicode="i" horiz-adv-x="194" 
d="M244 696l-21 -102h-102l22 102h101zM201 493l-104 -493h-102l105 493h101z" />
    <glyph glyph-name="j" unicode="j" horiz-adv-x="194" 
d="M244 696l-22 -102h-101l21 102h102zM201 493l-117 -551q-9 -40 -26 -67.5t-41 -45t-53 -25t-61 -7.5h-24l22 101h29q19 0 33 11.5t19 32.5l117 551h102z" />
    <glyph glyph-name="k" unicode="k" horiz-adv-x="472" 
d="M94 0h-102l148 696h101l-86 -406l216 203h128l-208 -194l107 -299h-114l-73 225l-87 -82z" />
    <glyph glyph-name="l" unicode="l" horiz-adv-x="231" 
d="M128 146q-1 -3 -1.5 -5t-0.5 -7q0 -32 36 -32h29l-21 -102h-29q-25 0 -46.5 7t-37.5 21t-25 35t-9 49q0 8 0.5 16t2.5 17l118 551h101z" />
    <glyph glyph-name="m" unicode="m" horiz-adv-x="741" 
d="M192 461q17 15 41.5 23.5t54.5 8.5q80 0 129 -60q29 30 62.5 45t75.5 15q36 0 65 -10.5t49.5 -30t32 -46.5t11.5 -60q0 -10 -1.5 -23.5t-2.5 -18.5l-65 -304h-101l65 304q2 10 2 19q0 31 -20.5 50t-53.5 19q-18 0 -34.5 -6.5t-30.5 -18.5t-23.5 -28t-13.5 -34l-65 -305
h-102l65 304q1 5 2 9.5t1 9.5q0 35 -21 52t-54 17q-36 0 -65 -25t-37 -63l-64 -304h-102l105 493h101z" />
    <glyph glyph-name="n" unicode="n" 
d="M197 493l-6 -32q42 32 96 32q33 0 60.5 -11t47.5 -31t31 -47.5t11 -59.5q0 -10 -1 -22t-3 -18l-65 -304h-102l65 304q2 10 2 19q0 34 -20 51t-52 17q-43 0 -69.5 -24t-34.5 -63l-64 -304h-102l105 493h101z" />
    <glyph glyph-name="o" unicode="o" horiz-adv-x="435" 
d="M118 184q-1 -5 -1.5 -8.5t-0.5 -11.5q0 -32 20.5 -49.5t52.5 -17.5q38 0 66 23t37 64l27 125q1 5 1.5 10.5t0.5 8.5q0 35 -20 51.5t-54 16.5q-39 0 -67 -23.5t-36 -63.5zM43 309q20 91 75.5 140t136.5 49q31 0 61 -9t54 -27.5t38.5 -48t14.5 -70.5q0 -7 -0.5 -17
t-2.5 -17l-27 -125q-20 -94 -75 -141t-137 -47q-37 0 -68 11t-53.5 31.5t-34.5 49t-12 63.5q0 6 1 17t2 16z" />
    <glyph glyph-name="p" unicode="p" horiz-adv-x="444" 
d="M129 188q-2 -8 -2 -17q0 -32 20.5 -51t55.5 -19q38 0 65 23.5t35 63.5l24 116q1 5 1.5 9.5t0.5 9.5q0 32 -19 50t-50 18q-41 0 -70 -25.5t-37 -61.5zM92 493h102l-7 -32q47 32 98 32q32 0 58.5 -11t46.5 -30.5t31 -47t11 -59.5q0 -10 -1 -21.5t-3 -19.5l-24 -116
q-19 -91 -74 -139.5t-136 -48.5q-63 0 -98 32l-50 -235h-102z" />
    <glyph glyph-name="q" unicode="q" horiz-adv-x="444" 
d="M119 189q-2 -10 -2 -19q0 -30 19.5 -49t50.5 -19h5q37 0 65 23t36 63l24 116q1 5 1.5 10.5t0.5 10.5q0 32 -19.5 49t-51.5 17q-38 0 -67.5 -24.5t-37.5 -62.5zM210 -203l49 235q-23 -17 -46.5 -24.5t-54.5 -7.5t-57.5 11.5t-46 31t-30.5 47t-11 58.5q0 10 1 20.5t3 19.5
l25 116q9 43 28.5 78t47 59.5t62 38t73.5 13.5q29 0 55 -8.5t43 -23.5l6 32h102l-148 -696h-101z" />
    <glyph glyph-name="r" unicode="r" horiz-adv-x="380" 
d="M191 461q20 15 43.5 23.5t49.5 8.5q35 0 67.5 -14.5t55.5 -42.5l-88 -71q-9 13 -24.5 19.5t-35.5 6.5q-38 0 -66 -24.5t-36 -62.5l-64 -304h-102l105 493h101z" />
    <glyph glyph-name="s" unicode="s" horiz-adv-x="343" 
d="M260 352q-2 19 -17 31.5t-35 12.5q-26 0 -42 -15.5t-16 -35.5q0 -21 21 -34l53 -32q36 -22 55 -49.5t19 -69.5q0 -36 -13 -66t-36 -52t-54.5 -34.5t-68.5 -12.5q-51 0 -88 26.5t-58 75.5l102 44q6 -20 19.5 -32t33.5 -12q23 0 40.5 15.5t17.5 35.5q0 12 -5.5 20t-15.5 14
l-52 31q-29 17 -51.5 46t-22.5 75q0 36 12.5 66t35 51.5t53.5 34t67 12.5q50 0 90.5 -27t58.5 -75z" />
    <glyph glyph-name="t" unicode="t" horiz-adv-x="315" 
d="M167 145q-1 -3 -1 -11q0 -32 36 -32h29l-22 -102h-28q-50 0 -84 28.5t-34 85.5q0 6 1 14t3 17l51 246h-58l22 102h58l43 203h101l-43 -203h102l-22 -102h-101z" />
    <glyph glyph-name="u" unicode="u" 
d="M267 0l7 32q-18 -14 -43.5 -23t-54.5 -9q-32 0 -59.5 10t-47.5 29t-31 45t-11 58q0 9 1.5 23t3.5 23l64 305h102l-65 -305q-2 -6 -2 -11.5v-9.5q0 -29 18.5 -47t50.5 -18q37 0 68 25t39 61l65 305h101l-105 -493h-101z" />
    <glyph glyph-name="v" unicode="v" horiz-adv-x="407" 
d="M68 493h98l17 -328l156 328h106l-250 -493h-87z" />
    <glyph glyph-name="w" unicode="w" horiz-adv-x="685" 
d="M459 165l156 328h106l-250 -493h-87l-26 319l-162 -319h-87l-40 493h99l17 -328l156 328h102z" />
    <glyph glyph-name="x" unicode="x" horiz-adv-x="454" 
d="M82 0h-120l212 250l-107 243h112l69 -157l134 157h120l-213 -250l108 -243h-112l-69 157z" />
    <glyph glyph-name="y" unicode="y" horiz-adv-x="444" 
d="M68 493h97l40 -329l180 329h104l-328 -598q-51 -93 -168 -98l22 101q26 2 39.5 9.5t24.5 26.5l46 84z" />
    <glyph glyph-name="z" unicode="z" horiz-adv-x="407" 
d="M409 391l-293 -289h232l-22 -102h-348l22 102l293 289h-232l22 102h348z" />
    <glyph glyph-name="braceleft" unicode="{" horiz-adv-x="259" 
d="M63 399h11q22 0 35.5 12.5t17.5 30.5l23 109q14 66 58.5 103t113.5 42l-22 -102q-39 -3 -48 -43l-23 -109q-7 -31 -21 -54t-34 -40q10 -14 14 -30.5t4 -33.5q0 -11 -4 -30l-23 -109q0 -2 -0.5 -4.5t-0.5 -5.5q0 -12 8 -21.5t23 -11.5l-21 -102q-57 6 -85 38t-28 77
q0 20 3 30l23 109q1 4 1 11q0 14 -9 23t-26 9h-12z" />
    <glyph glyph-name="bar" unicode="|" horiz-adv-x="343" 
d="M228 696v-899h-116v899h116z" />
    <glyph glyph-name="braceright" unicode="}" horiz-adv-x="259" 
d="M241 297h-11q-21 0 -35 -13t-18 -30l-23 -109q-14 -65 -58.5 -102.5t-113.5 -42.5l22 102q39 3 48 43l23 109q14 63 55 94q-10 17 -14 32t-4 32q0 8 1 16.5t2 13.5l23 109q2 6 2 10q0 30 -32 33l22 102q54 -4 83.5 -34t29.5 -81q0 -6 -0.5 -15t-2.5 -15l-22 -105
q-1 -5 -1.5 -8t-0.5 -6q0 -14 10.5 -23.5t24.5 -9.5h12z" />
    <glyph glyph-name="asciitilde" unicode="~" horiz-adv-x="333" 
d="M88 588q44 65 108 65q20 0 36.5 -5.5t40.5 -19.5q5 -2 11.5 -3.5t10.5 -1.5q28 0 46 25l58 -32q-23 -33 -48.5 -49t-58.5 -16q-20 0 -36 5t-42 19q-10 6 -23 6q-24 0 -45 -25z" />
    <glyph glyph-name="quoteleft" unicode="&#x2018;" horiz-adv-x="204" 
d="M256 696l-24 -116l-141 -116l49 232h116z" />
    <glyph glyph-name="quoteright" unicode="&#x2019;" horiz-adv-x="204" 
d="M256 696l-24 -116l-141 -116l49 232h116z" />
    <glyph glyph-name="quotedblleft" unicode="&#x201c;" horiz-adv-x="370" 
d="M426 696l-24 -116l-141 -116l49 232h116zM252 696l-24 -116l-141 -116l49 232h116z" />
    <glyph glyph-name="quotedblright" unicode="&#x201d;" horiz-adv-x="370" 
d="M426 696l-24 -116l-141 -116l49 232h116zM252 696l-24 -116l-141 -116l49 232h116z" />
    <glyph glyph-name="exclamdown" unicode="&#xa1;" horiz-adv-x="185" 
d="M132 290l-76 -493h-116l133 493h59zM88 493h116l-25 -116h-116z" />
    <glyph glyph-name="cent" unicode="&#xa2;" horiz-adv-x="435" 
d="M292 495q-15 3 -21 3q-16 0 -32.5 -4t-30.5 -14.5t-25.5 -28.5t-17.5 -45l-25 -116q-1 -5 -2 -12t-1 -12q0 -21 10 -37zM387 567q29 -20 43 -51t14 -70q0 -9 -0.5 -16.5t-2.5 -18.5h-101q1 8 1 14.5v8.5q0 8 -2 17.5t-7 15.5l-145 -266q7 -2 11 -2h12q41 0 67 22.5
t36 63.5h101q-20 -88 -76.5 -138t-139.5 -50q-18 0 -33 2.5t-29 7.5l-63 -114l-47 16l66 120q-23 18 -41 47.5t-18 68.5q0 9 1.5 21.5t3.5 23.5l25 116q12 53 34 90t51 60t62.5 33t67.5 10q17 0 34.5 -3t31.5 -7l62 114l46 -17z" />
    <glyph glyph-name="sterling" unicode="&#xa3;" horiz-adv-x="444" 
d="M43 298l21 101h56q-2 18 -4 35t-2 35q0 51 15.5 93.5t43 74t66.5 49t85 17.5q74 0 116.5 -40.5t42.5 -110.5v-10.5t-1 -19.5h-102q1 8 1 12v6q0 28 -17 44.5t-49 16.5q-47 0 -73.5 -36.5t-26.5 -97.5q0 -14 1 -26t3 -28q0 -1 0.5 -5t1.5 -9h119l-22 -101h-90
q-1 -24 -6.5 -49t-13.5 -48.5t-18.5 -43.5t-22.5 -35q15 1 27 -2t28 -11q18 -9 26.5 -11.5t16.5 -2.5q20 0 39.5 10.5t42.5 33.5l53 -74q-68 -72 -146 -72q-21 0 -42 6.5t-50 20.5q-9 5 -18 7t-21 2q-20 0 -38.5 -8t-38.5 -28l-47 75q56 38 89 97t39 133h-84z" />
    <glyph glyph-name="yen" unicode="&#xa5;" horiz-adv-x="491" 
d="M251 0h-116l40 188h-130l12 58h131l18 87h-130l12 58h109l-88 305h112l67 -234l165 234h120l-217 -305h109l-12 -58h-131l-18 -87h130l-12 -58h-131z" />
    <glyph glyph-name="section" unicode="&#xa7;" horiz-adv-x="500" 
d="M304 160q8 -3 15 -8q19 14 30.5 35t11.5 43t-10.5 37.5t-28.5 23.5l-127 50q-5 2 -15 9q-19 -17 -29 -38t-10 -40q0 -22 10.5 -38.5t28.5 -24.5zM126 114q-16 6 -32 18.5t-29 30t-20.5 40.5t-7.5 50q0 50 23 95.5t64 75.5q-10 27 -10 58q0 42 17 82t47 71t70.5 49.5
t88.5 18.5q74 0 118.5 -40.5t44.5 -107.5q0 -10 -1 -21t-3 -19h-102q2 7 2.5 10.5t0.5 8.5q0 32 -21 49.5t-52 17.5q-22 0 -41 -8t-33.5 -22.5t-23 -33.5t-8.5 -41t11 -39t28 -24l122 -48q33 -13 59.5 -47.5t26.5 -93.5q0 -51 -23 -93t-65 -75q11 -33 11 -58
q0 -46 -17.5 -86.5t-47.5 -70.5t-70.5 -47t-87.5 -17q-35 0 -65 11t-51.5 31t-34 47.5t-12.5 60.5q0 9 1 17t3 22h102q-2 -8 -2 -11.5v-8.5q0 -31 18 -49.5t47 -18.5q23 0 43.5 8.5t36 23.5t24.5 34.5t9 40.5t-10.5 38t-28.5 24z" />
    <glyph glyph-name="dieresis" unicode="&#xa8;" horiz-adv-x="315" 
d="M378 667l-22 -102h-101l21 102h102zM218 667l-21 -102h-102l22 102h101z" />
    <glyph glyph-name="copyright" unicode="&#xa9;" horiz-adv-x="768" 
d="M409 668q-68 0 -127 -25t-103 -67.5t-69.5 -100.5t-25.5 -124q0 -67 25 -126t68.5 -102.5t101.5 -68.5t125 -25q66 0 124 25t101.5 68.5t68.5 102t25 124.5q0 65 -25 123t-68 101.5t-100 69t-121 25.5zM409 704q72 0 135.5 -28.5t111 -77t75.5 -113t28 -136.5
q0 -74 -28 -139t-76 -113t-112.5 -76t-138.5 -28t-139 28t-113 76.5t-76 114t-28 139.5t28.5 138t77 112t114.5 75.5t141 27.5zM483 430q0 35 -23.5 56.5t-55.5 21.5q-33 0 -56.5 -23t-23.5 -55v-164q0 -32 23.5 -55t56.5 -23t56 23t23 55h87q0 -34 -13 -64t-35.5 -52.5
t-52.5 -35.5t-65 -13q-34 0 -64.5 13t-53.5 35.5t-36 52.5t-13 64v164q0 34 13 64t36 52.5t53.5 35.5t64.5 13q35 0 65 -13t52.5 -35.5t35.5 -52.5t13 -64h-87z" />
    <glyph glyph-name="ordfeminine" unicode="&#xaa;" horiz-adv-x="278" 
d="M44 308l12 58h218l-13 -58h-217zM173 522q-11 0 -19 -8.5t-8 -20.5q0 -18 17 -18h25q21 0 36 13.5t20 33.5h-71zM226 412l4 20q-12 -9 -27 -14.5t-28 -5.5h-25q-30 0 -49 20.5t-19 50.5q0 26 9.5 45t24.5 31.5t33 19t34 6.5h75q1 6 1.5 9.5t0.5 7.5q0 16 -10 25.5
t-27 9.5q-13 0 -26.5 -7t-21.5 -20l-53 23q22 34 50 50.5t60 16.5q42 0 67 -23.5t25 -61.5q0 -7 -0.5 -15t-2.5 -13l-37 -175h-58z" />
    <glyph glyph-name="guillemotleft" unicode="&#xab;" horiz-adv-x="500" 
d="M425 493h116l-241 -247l137 -246h-116l-137 246zM251 493h116l-241 -247l137 -246h-116l-137 246z" />
    <glyph glyph-name="logicalnot" unicode="&#xac;" horiz-adv-x="574" 
d="M425 167v246h-348v116h464v-362h-116z" />
    <glyph glyph-name="registered" unicode="&#xae;" horiz-adv-x="768" 
d="M410 668q-68 0 -127 -25t-103 -67.5t-69.5 -100.5t-25.5 -124q0 -67 25 -126t68.5 -102.5t101.5 -68.5t125 -25q66 0 124 25t101.5 68.5t68.5 102t25 124.5q0 65 -25 123t-68 101.5t-100 69t-121 25.5zM410 704q72 0 135.5 -28.5t111 -77t75.5 -113t28 -136.5
q0 -74 -28 -139t-76 -113t-112.5 -76t-138.5 -28t-139 28t-113 76.5t-76 114t-28 139.5t28.5 138t77 112t114.5 75.5t141 27.5zM425 355q30 0 52 22t22 53q0 32 -21.5 53.5t-52.5 21.5h-86v-150h86zM586 104h-87l-84 164h-76v-164h-87v488h173q33 0 62.5 -13t51.5 -35
t34.5 -51.5t12.5 -62.5q0 -47 -24 -85t-68 -61z" />
    <glyph glyph-name="macron" unicode="&#xaf;" horiz-adv-x="352" 
d="M389 566h-290l14 65h290z" />
    <glyph glyph-name="degree" unicode="&#xb0;" horiz-adv-x="231" 
d="M201 689q-22 0 -37 -14.5t-15 -36.5q0 -21 15 -36t36 -15t36 15t15 36t-15 36t-35 15zM201 725q18 0 33.5 -7t27 -19t18.5 -27.5t7 -33.5q0 -36 -25.5 -61.5t-61.5 -25.5t-61.5 25.5t-25.5 62.5q0 18 7 33.5t19 27t28 18.5t34 7z" />
    <glyph glyph-name="plusminus" unicode="&#xb1;" horiz-adv-x="574" 
d="M527 102h-464v116h464v-116zM527 486v-116h-174v-116h-116v116h-174v116h174v116h116v-116h174z" />
    <glyph glyph-name="acute" unicode="&#xb4;" horiz-adv-x="213" 
d="M297 696l-111 -130h-91l96 130h106z" />
    <glyph glyph-name="mu" unicode="&#xb5;" horiz-adv-x="509" 
d="M412 0q-65 0 -98 47q-29 -26 -58 -36.5t-65 -10.5q-53 0 -92 32l-49 -235h-102l148 696h101l-64 -304q-2 -8 -2 -19q0 -29 19 -48.5t50 -19.5q40 0 69.5 25.5t37.5 61.5l64 304h102l-74 -347q-1 -2 -1 -5.5v-5.5q0 -15 9.5 -24t25.5 -9h29l-21 -102h-29z" />
    <glyph glyph-name="mu" unicode="&#x3bc;" horiz-adv-x="509" 
d="M412 0q-65 0 -98 47q-29 -26 -58 -36.5t-65 -10.5q-53 0 -92 32l-49 -235h-102l148 696h101l-64 -304q-2 -8 -2 -19q0 -29 19 -48.5t50 -19.5q40 0 69.5 25.5t37.5 61.5l64 304h102l-74 -347q-1 -2 -1 -5.5v-5.5q0 -15 9.5 -24t25.5 -9h29l-21 -102h-29z" />
    <glyph glyph-name="paragraph" unicode="&#xb6;" horiz-adv-x="630" 
d="M282 290q-43 1 -80 17t-64.5 43t-43 64t-15.5 79t16 79t43.5 64.5t64.5 43.5t79 16h232v-899h-65v834h-102v-834h-65v493z" />
    <glyph glyph-name="periodcentered" unicode="&#xb7;" horiz-adv-x="213" 
d="M128 420q29 0 50 -21.5t21 -50.5q0 -30 -21 -51.5t-51 -21.5t-51.5 21.5t-21.5 51.5t21.5 51t52.5 21z" />
    <glyph glyph-name="cedilla" unicode="&#xb8;" horiz-adv-x="176" 
d="M2 -120q11 0 19 6.5t8 19.5q0 17 -17 17h-51l33 87h51l-14 -36q23 -6 36.5 -22t13.5 -41q0 -15 -6 -30t-17.5 -26.5t-27 -18.5t-34.5 -7h-55l11 51h50z" />
    <glyph glyph-name="ordmasculine" unicode="&#xba;" horiz-adv-x="278" 
d="M44 308l12 58h218l-13 -58h-217zM152 519q-1 -5 -1 -10q-1 -15 10 -25.5t28 -10.5q22 0 35.5 13t18.5 33l16 72q1 3 1 5.5v4.5q0 17 -10.5 26.5t-27.5 9.5q-20 0 -35 -13t-20 -33zM105 591q11 51 42 80t79 29q43 0 70.5 -24.5t27.5 -62.5v-10.5t-2 -11.5l-16 -72
q-13 -56 -43.5 -82.5t-77.5 -26.5q-44 0 -71.5 24t-27.5 62q0 11 3 23z" />
    <glyph glyph-name="guillemotright" unicode="&#xbb;" horiz-adv-x="500" 
d="M76 0h-116l241 246l-136 247h116l136 -247zM250 0h-116l241 246l-136 247h116l136 -247z" />
    <glyph glyph-name="questiondown" unicode="&#xbf;" 
d="M202 377l25 116h116l-25 -116h-116zM373 -14q-20 -92 -78 -144t-142 -52q-38 0 -70.5 12t-56 33t-36.5 50t-13 64q0 38 13 71t41 67l129 155q18 23 24 48h116q-8 -33 -17.5 -54t-28.5 -44l-134 -162q-14 -16 -19.5 -30t-5.5 -31q0 -28 18.5 -45.5t47.5 -17.5q35 0 60 21
t36 59h116z" />
    <glyph glyph-name="Agrave" unicode="&#xc0;" horiz-adv-x="611" 
d="M496 768h-83l-64 131h98zM368 522l-158 -290h193zM146 116l-63 -116h-120l380 696h116l84 -696h-112l-14 116h-271z" />
    <glyph glyph-name="Aacute" unicode="&#xc1;" horiz-adv-x="611" 
d="M538 899l-110 -131h-91l96 131h105zM368 522l-158 -290h193zM146 116l-63 -116h-120l380 696h116l84 -696h-112l-14 116h-271z" />
    <glyph glyph-name="Acircumflex" unicode="&#xc2;" horiz-adv-x="611" 
d="M501 899l53 -131h-87l-34 77l-68 -77h-86l108 131h114zM368 522l-158 -290h193zM146 116l-63 -116h-120l380 696h116l84 -696h-112l-14 116h-271z" />
    <glyph glyph-name="Atilde" unicode="&#xc3;" horiz-adv-x="611" 
d="M269 791q23 33 50 49t57 16q20 0 36.5 -5t41.5 -19q5 -2 12 -4.5t12 -2.5q25 0 44 26l58 -32q-23 -33 -48.5 -49t-59.5 -16q-20 0 -35.5 5t-41.5 19q-10 6 -24 6q-24 0 -44 -25zM368 522l-158 -290h193zM146 116l-63 -116h-120l380 696h116l84 -696h-112l-14 116h-271z
" />
    <glyph glyph-name="Adieresis" unicode="&#xc4;" horiz-adv-x="611" 
d="M568 870l-21 -102h-102l22 102h101zM409 870l-22 -102h-102l22 102h102zM368 522l-158 -290h193zM146 116l-63 -116h-120l380 696h116l84 -696h-112l-14 116h-271z" />
    <glyph glyph-name="Aring" unicode="&#xc5;" horiz-adv-x="611" 
d="M432 892q-22 0 -37 -14.5t-15 -35.5q0 -22 15 -37t36 -15t36 15t15 36t-15 36t-35 15zM432 928q18 0 33.5 -7t27 -19t18.5 -27.5t7 -33.5q0 -36 -25.5 -61.5t-61.5 -25.5t-61.5 26t-25.5 62q0 18 7 33.5t19 27t28 18.5t34 7zM368 522l-158 -290h193zM146 116l-63 -116
h-120l380 696h116l84 -696h-112l-14 116h-271z" />
    <glyph glyph-name="AE" unicode="&#xc6;" horiz-adv-x="907" 
d="M409 232l74 348h-87l-190 -348h203zM79 0h-116l380 696h628l-24 -116h-348l-37 -174h232l-25 -116h-232l-37 -174h348l-25 -116h-464l25 116h-242z" />
    <glyph glyph-name="Ccedilla" unicode="&#xc7;" horiz-adv-x="528" 
d="M229 -26q23 -5 36.5 -20.5t13.5 -42.5q0 -34 -25 -58t-60 -24h-55l11 51h50q13 0 20 7.5t7 18.5q0 17 -17 17h-51l28 73q-78 14 -121 61.5t-43 119.5q0 10 1.5 23.5t3.5 24.5l53 246q13 60 38.5 103.5t60.5 72t77 42.5t87 14t83 -13.5t65 -38t42.5 -58.5t15.5 -74
q0 -11 -1.5 -22t-3.5 -26h-116q1 9 1.5 14t0.5 10q0 45 -25.5 68.5t-73.5 23.5q-50 0 -86.5 -30.5t-48.5 -85.5l-53 -246q-1 -4 -2 -11.5t-1 -12.5q0 -44 25 -68t72 -24q52 0 88 30t50 86h116q-20 -104 -88 -166t-168 -66z" />
    <glyph glyph-name="Egrave" unicode="&#xc8;" horiz-adv-x="546" 
d="M465 768h-83l-63 131h97zM238 580l-37 -174h232l-24 -116h-232l-37 -174h348l-25 -116h-464l148 696h464l-25 -116h-348z" />
    <glyph glyph-name="Eacute" unicode="&#xc9;" horiz-adv-x="546" 
d="M507 899l-111 -131h-91l96 131h106zM238 580l-37 -174h232l-24 -116h-232l-37 -174h348l-25 -116h-464l148 696h464l-25 -116h-348z" />
    <glyph glyph-name="Ecircumflex" unicode="&#xca;" horiz-adv-x="546" 
d="M470 899l53 -131h-87l-35 77l-67 -77h-87l108 131h115zM238 580l-37 -174h232l-24 -116h-232l-37 -174h348l-25 -116h-464l148 696h464l-25 -116h-348z" />
    <glyph glyph-name="Edieresis" unicode="&#xcb;" horiz-adv-x="546" 
d="M537 870l-22 -102h-101l21 102h102zM377 870l-21 -102h-102l22 102h101zM238 580l-37 -174h232l-24 -116h-232l-37 -174h348l-25 -116h-464l148 696h464l-25 -116h-348z" />
    <glyph glyph-name="Igrave" unicode="&#xcc;" horiz-adv-x="213" 
d="M298 768h-83l-63 131h97zM261 696l-148 -696h-116l148 696h116z" />
    <glyph glyph-name="Iacute" unicode="&#xcd;" horiz-adv-x="213" 
d="M341 899l-111 -131h-91l96 131h106zM261 696l-148 -696h-116l148 696h116z" />
    <glyph glyph-name="Icircumflex" unicode="&#xce;" horiz-adv-x="213" 
d="M303 899l53 -131h-87l-34 77l-68 -77h-86l108 131h114zM261 696l-148 -696h-116l148 696h116z" />
    <glyph glyph-name="Idieresis" unicode="&#xcf;" horiz-adv-x="213" 
d="M371 870l-22 -102h-102l22 102h102zM211 870l-22 -102h-101l21 102h102zM261 696l-148 -696h-116l148 696h116z" />
    <glyph glyph-name="Ntilde" unicode="&#xd1;" horiz-adv-x="565" 
d="M249 791q45 65 108 65q20 0 34 -4.5t43 -19.5q11 -6 23 -6q14 0 24 6t21 19l58 -32q-44 -65 -107 -65q-20 0 -35.5 4.5t-42.5 19.5q-9 6 -22 6q-25 0 -46 -25zM264 696l133 -464l99 464h116l-148 -696h-116l-133 464l-99 -464h-116l148 696h116z" />
    <glyph glyph-name="Ograve" unicode="&#xd2;" horiz-adv-x="528" 
d="M455 768h-82l-64 131h98zM144 225q-1 -4 -2 -12t-1 -13q0 -42 27.5 -66t72.5 -24q51 0 87.5 31t47.5 84l52 246q2 5 2.5 12.5t0.5 12.5q0 42 -25.5 66.5t-73.5 24.5q-52 0 -88.5 -31.5t-47.5 -84.5zM80 471q16 76 48 122q36 52 92.5 81t124.5 29q45 0 82.5 -13.5
t64.5 -38t42.5 -58.5t15.5 -74q0 -9 -1.5 -21.5t-4.5 -26.5l-52 -246q-6 -27 -17.5 -60.5t-28.5 -59.5q-19 -30 -45 -51.5t-55.5 -34.5t-59.5 -19t-58 -6q-45 0 -82.5 13.5t-64.5 38t-42.5 58t-15.5 73.5q0 23 5 48z" />
    <glyph glyph-name="Oacute" unicode="&#xd3;" horiz-adv-x="528" 
d="M144 225q-1 -4 -2 -12t-1 -13q0 -42 27.5 -66t72.5 -24q51 0 87.5 31t47.5 84l52 246q2 5 2.5 12.5t0.5 12.5q0 42 -25.5 66.5t-73.5 24.5q-52 0 -88.5 -31.5t-47.5 -84.5zM80 471q16 76 48 122q36 52 92.5 81t124.5 29q45 0 82.5 -13.5t64.5 -38t42.5 -58.5t15.5 -74
q0 -9 -1.5 -21.5t-4.5 -26.5l-52 -246q-6 -27 -17.5 -60.5t-28.5 -59.5q-19 -30 -45 -51.5t-55.5 -34.5t-59.5 -19t-58 -6q-45 0 -82.5 13.5t-64.5 38t-42.5 58t-15.5 73.5q0 23 5 48zM498 899l-111 -131h-91l96 131h106z" />
    <glyph glyph-name="Ocircumflex" unicode="&#xd4;" horiz-adv-x="528" 
d="M144 225q-1 -4 -2 -12t-1 -13q0 -42 27.5 -66t72.5 -24q51 0 87.5 31t47.5 84l52 246q2 5 2.5 12.5t0.5 12.5q0 42 -25.5 66.5t-73.5 24.5q-52 0 -88.5 -31.5t-47.5 -84.5zM80 471q16 76 48 122q36 52 92.5 81t124.5 29q45 0 82.5 -13.5t64.5 -38t42.5 -58.5t15.5 -74
q0 -9 -1.5 -21.5t-4.5 -26.5l-52 -246q-6 -27 -17.5 -60.5t-28.5 -59.5q-19 -30 -45 -51.5t-55.5 -34.5t-59.5 -19t-58 -6q-45 0 -82.5 13.5t-64.5 38t-42.5 58t-15.5 73.5q0 23 5 48zM461 899l53 -131h-87l-35 77l-67 -77h-87l108 131h115z" />
    <glyph glyph-name="Otilde" unicode="&#xd5;" horiz-adv-x="528" 
d="M144 225q-1 -4 -2 -12t-1 -13q0 -42 27.5 -66t72.5 -24q51 0 87.5 31t47.5 84l52 246q2 5 2.5 12.5t0.5 12.5q0 42 -25.5 66.5t-73.5 24.5q-52 0 -88.5 -31.5t-47.5 -84.5zM80 471q16 76 48 122q36 52 92.5 81t124.5 29q45 0 82.5 -13.5t64.5 -38t42.5 -58.5t15.5 -74
q0 -9 -1.5 -21.5t-4.5 -26.5l-52 -246q-6 -27 -17.5 -60.5t-28.5 -59.5q-19 -30 -45 -51.5t-55.5 -34.5t-59.5 -19t-58 -6q-45 0 -82.5 13.5t-64.5 38t-42.5 58t-15.5 73.5q0 23 5 48zM228 791q44 65 108 65q20 0 35.5 -5t41.5 -19q5 -3 11.5 -4.5t11.5 -1.5q24 0 45 25
l58 -32q-44 -65 -108 -65q-10 0 -17.5 1t-16 3.5t-18.5 7t-25 12.5q-10 6 -23 6q-24 0 -45 -25z" />
    <glyph glyph-name="Odieresis" unicode="&#xd6;" horiz-adv-x="528" 
d="M144 225q-1 -4 -2 -12t-1 -13q0 -42 27.5 -66t72.5 -24q51 0 87.5 31t47.5 84l52 246q2 5 2.5 12.5t0.5 12.5q0 42 -25.5 66.5t-73.5 24.5q-52 0 -88.5 -31.5t-47.5 -84.5zM80 471q16 76 48 122q36 52 92.5 81t124.5 29q45 0 82.5 -13.5t64.5 -38t42.5 -58.5t15.5 -74
q0 -9 -1.5 -21.5t-4.5 -26.5l-52 -246q-6 -27 -17.5 -60.5t-28.5 -59.5q-19 -30 -45 -51.5t-55.5 -34.5t-59.5 -19t-58 -6q-45 0 -82.5 13.5t-64.5 38t-42.5 58t-15.5 73.5q0 23 5 48zM528 870l-22 -102h-101l22 102h101zM369 870l-22 -102h-102l22 102h102z" />
    <glyph glyph-name="Oslash" unicode="&#xd8;" horiz-adv-x="528" 
d="M418 544q-10 21 -33 32t-52 11q-52 0 -89 -31t-48 -85l-52 -246q-1 -4 -1.5 -7l-1.5 -9zM153 152q25 -43 86 -43q51 0 88.5 31t48.5 85l52 246q1 3 1 6.5t1 8.5zM528 605q10 -17 15.5 -40t5.5 -46q0 -8 -1.5 -22.5t-3.5 -25.5l-52 -246q-8 -35 -18.5 -65t-29.5 -57
q-35 -51 -92 -80.5t-123 -29.5q-48 0 -89 15.5t-69 44.5l-49 -60l-38 26l60 72q-22 39 -22 86q0 9 1.5 22t4.5 26l52 246q8 38 19.5 68.5t27.5 53.5q36 52 94 81t122 29q48 0 90.5 -16.5t66.5 -43.5l50 60l38 -26z" />
    <glyph glyph-name="Ugrave" unicode="&#xd9;" horiz-adv-x="565" 
d="M474 768h-83l-63 131h97zM263 696l-101 -471q-1 -4 -1.5 -12t-0.5 -13q0 -42 27 -66.5t72 -24.5q51 0 87.5 31.5t47.5 84.5l101 471h116l-101 -471q-8 -35 -19.5 -67t-27.5 -55q-36 -52 -93.5 -81t-123.5 -29q-45 0 -82.5 13.5t-64.5 38t-42.5 58.5t-15.5 74q0 23 5 48
l101 471h116z" />
    <glyph glyph-name="Uacute" unicode="&#xda;" horiz-adv-x="565" 
d="M517 899l-111 -131h-91l96 131h106zM263 696l-101 -471q-1 -4 -2 -10.5t-1 -14.5q0 -42 27.5 -66.5t72.5 -24.5q51 0 87.5 31.5t47.5 84.5l101 471h116l-101 -471q-8 -35 -19.5 -67t-27.5 -55q-36 -52 -93.5 -81t-123.5 -29q-45 0 -82.5 13.5t-64.5 38t-42.5 58.5
t-15.5 74q0 23 5 48l101 471h116z" />
    <glyph glyph-name="Ucircumflex" unicode="&#xdb;" horiz-adv-x="565" 
d="M263 696l-101 -471q-1 -4 -1.5 -12t-0.5 -13q0 -42 27 -66.5t72 -24.5q51 0 87.5 31.5t47.5 84.5l101 471h116l-101 -471q-8 -34 -19.5 -66.5t-27.5 -55.5q-36 -52 -93.5 -81t-123.5 -29q-45 0 -82.5 13.5t-64.5 38t-42.5 58.5t-15.5 74q0 23 5 48l101 471h116zM480 899
l52 -131h-87l-34 77l-67 -77h-87l108 131h115z" />
    <glyph glyph-name="Udieresis" unicode="&#xdc;" horiz-adv-x="565" 
d="M263 696l-101 -471q-1 -4 -1.5 -12t-0.5 -13q0 -42 27 -66.5t72 -24.5q51 0 87.5 31.5t47.5 84.5l101 471h116l-101 -471q-15 -75 -47 -122q-36 -52 -93.5 -81t-123.5 -29q-45 0 -82.5 13.5t-64.5 38t-42.5 58.5t-15.5 74q0 23 5 48l101 471h116zM547 870l-22 -102h-101
l21 102h102zM387 870l-21 -102h-102l22 102h101z" />
    <glyph glyph-name="germandbls" unicode="&#xdf;" horiz-adv-x="454" 
d="M203 427h57q24 0 43.5 8t34 22.5t22.5 33.5t8 40q0 34 -20 52t-54 18q-37 0 -65.5 -24t-36.5 -62l-109 -515h-102l109 515q9 44 29 79t48.5 59t64 37t75.5 13q36 0 66.5 -11.5t52.5 -32.5t34 -50.5t12 -64.5q0 -48 -22 -91t-64 -70q22 -21 31.5 -47t9.5 -57q0 -5 -1 -19
t-3 -21l-11 -50q-20 -90 -75.5 -139.5t-144.5 -49.5q-17 0 -43 5t-43 14l57 95q12 -7 22.5 -9.5t21.5 -2.5q40 0 68 24.5t36 62.5l11 50q1 3 1.5 9.5t0.5 10.5q0 32 -20.5 49.5t-54.5 17.5h-67z" />
    <glyph glyph-name="agrave" unicode="&#xe0;" horiz-adv-x="444" 
d="M366 565h-83l-63 131h97zM163 189q-23 0 -38.5 -14t-15.5 -37q0 -16 10.5 -26t24.5 -10h42q18 0 35.5 6.5t32 17.5t25 27.5t14.5 35.5h-130zM319 309q2 6 2 12v11q0 31 -21 47.5t-50 16.5q-57 0 -92 -54l-85 39q35 57 85.5 87t107.5 30q35 0 64 -11t50 -31t32.5 -48
t11.5 -61q0 -8 -1 -20t-3 -18l-66 -309h-101l7 32q-19 -15 -43.5 -23.5t-52.5 -8.5h-42q-51 0 -84 35t-33 89q0 35 14 65t38.5 52.5t57 35.5t69.5 13h131z" />
    <glyph glyph-name="aacute" unicode="&#xe1;" horiz-adv-x="444" 
d="M163 189q-23 0 -38.5 -14t-15.5 -37q0 -16 10.5 -26t24.5 -10h42q18 0 35.5 6.5t32 17.5t25 27.5t14.5 35.5h-130zM319 309q2 6 2 12v11q0 31 -21 47.5t-50 16.5q-57 0 -92 -54l-85 39q35 57 85.5 87t107.5 30q35 0 64 -11t50 -31t32.5 -48t11.5 -61q0 -8 -1 -20t-3 -18
l-66 -309h-101l7 32q-19 -15 -43.5 -23.5t-52.5 -8.5h-42q-51 0 -84 35t-33 89q0 35 14 65t38.5 52.5t57 35.5t69.5 13h131zM408 696l-110 -130h-91l96 130h105z" />
    <glyph glyph-name="acircumflex" unicode="&#xe2;" horiz-adv-x="444" 
d="M163 189q-23 0 -38.5 -14t-15.5 -37q0 -16 10.5 -26t24.5 -10h42q18 0 35.5 6.5t32 17.5t25 27.5t14.5 35.5h-130zM319 309q2 6 2 12v11q0 31 -21 47.5t-50 16.5q-57 0 -92 -54l-85 39q35 57 85.5 87t107.5 30q35 0 64 -11t50 -31t32.5 -48t11.5 -61q0 -8 -1 -20t-3 -18
l-66 -309h-101l7 32q-19 -15 -43.5 -23.5t-52.5 -8.5h-42q-51 0 -84 35t-33 89q0 35 14 65t38.5 52.5t57 35.5t69.5 13h131zM376 696l53 -131h-87l-35 77l-67 -77h-87l108 131h115z" />
    <glyph glyph-name="atilde" unicode="&#xe3;" horiz-adv-x="444" 
d="M163 189q-23 0 -38.5 -14t-15.5 -37q0 -16 10.5 -26t24.5 -10h42q18 0 35.5 6.5t32 17.5t25 27.5t14.5 35.5h-130zM319 309q2 6 2 12v11q0 31 -21 47.5t-50 16.5q-57 0 -92 -54l-85 39q35 57 85.5 87t107.5 30q35 0 64 -11t50 -31t32.5 -48t11.5 -61q0 -8 -1 -20t-3 -18
l-66 -309h-101l7 32q-19 -15 -43.5 -23.5t-52.5 -8.5h-42q-51 0 -84 35t-33 89q0 35 14 65t38.5 52.5t57 35.5t69.5 13h131zM141 588q44 65 108 65q20 0 36 -5t41 -19q11 -6 23 -6q24 0 45 25l58 -32q-44 -65 -108 -65q-19 0 -35 5t-42 19q-10 6 -23 6q-14 0 -24 -6t-21 -19
z" />
    <glyph glyph-name="adieresis" unicode="&#xe4;" horiz-adv-x="444" 
d="M163 189q-23 0 -38.5 -14t-15.5 -37q0 -16 10.5 -26t24.5 -10h42q18 0 35.5 6.5t32 17.5t25 27.5t14.5 35.5h-130zM319 309q2 6 2 12v11q0 31 -21 47.5t-50 16.5q-57 0 -92 -54l-85 39q35 57 85.5 87t107.5 30q35 0 64 -11t50 -31t32.5 -48t11.5 -61q0 -8 -1 -20t-3 -18
l-66 -309h-101l7 32q-19 -15 -43.5 -23.5t-52.5 -8.5h-42q-51 0 -84 35t-33 89q0 35 14 65t38.5 52.5t57 35.5t69.5 13h131zM444 667l-22 -102h-101l21 102h102zM284 667l-21 -102h-102l22 102h101z" />
    <glyph glyph-name="aring" unicode="&#xe5;" horiz-adv-x="444" 
d="M163 189q-23 0 -38.5 -14t-15.5 -37q0 -16 10.5 -26t24.5 -10h42q18 0 35.5 6.5t32 17.5t25 27.5t14.5 35.5h-130zM319 309q2 6 2 12v11q0 31 -21 47.5t-50 16.5q-57 0 -92 -54l-85 39q35 57 85.5 87t107.5 30q35 0 64 -11t50 -31t32.5 -48t11.5 -61q0 -8 -1 -20t-3 -18
l-66 -309h-101l7 32q-19 -15 -43.5 -23.5t-52.5 -8.5h-42q-51 0 -84 35t-33 89q0 35 14 65t38.5 52.5t57 35.5t69.5 13h131zM307 689q-22 0 -37 -14.5t-15 -36.5q0 -21 15 -36t36 -15t36 15t15 36t-15 36t-35 15zM307 725q18 0 33.5 -7t27 -19t18.5 -27.5t7 -33.5
q0 -36 -25.5 -61.5t-61.5 -25.5t-61.5 26t-25.5 62q0 18 7 33.5t19 27t28 18.5t34 7z" />
    <glyph glyph-name="ae" unicode="&#xe6;" horiz-adv-x="713" 
d="M594 309q1 5 1.5 9t0.5 9q0 32 -20.5 50.5t-52.5 18.5q-40 0 -67 -24t-36 -63h174zM163 189q-25 0 -39.5 -15t-14.5 -36q0 -16 9.5 -26t25.5 -10h42q38 0 68 24.5t39 62.5h-130zM589 58q-32 -29 -70 -43.5t-75 -14.5t-73 17t-58 49q-24 -26 -61.5 -46t-82.5 -20h-46
q-23 0 -44 9t-37.5 25.5t-26.5 39t-10 49.5q0 35 14 65.5t38.5 53t57 35.5t69.5 13h131l4 19q1 5 1.5 9.5t0.5 8.5q0 32 -20 51t-52 19q-27 0 -50.5 -14.5t-40.5 -41.5l-85 40q35 57 84.5 87t109.5 30q39 0 71 -14t53 -40q63 54 140 54q37 0 68 -11.5t53 -32.5t34 -49.5
t12 -63.5q0 -5 -1 -16t-2 -16l-22 -101h-274l-5 -20q-1 -5 -1.5 -10t-0.5 -9q0 -29 20 -48t50 -19q36 0 71 27z" />
    <glyph glyph-name="ccedilla" unicode="&#xe7;" horiz-adv-x="435" 
d="M180 -26q24 -6 37.5 -21t13.5 -42q0 -35 -25.5 -58.5t-60.5 -23.5h-54l10 51h51q14 0 20.5 7.5t6.5 18.5q0 17 -18 17h-50l28 76q-57 10 -92 50t-35 95q0 8 1.5 21t3.5 24l25 115q20 94 76.5 143.5t139.5 49.5q75 0 120 -41.5t45 -111.5q0 -9 -0.5 -16.5t-2.5 -18.5h-102
q1 8 1.5 14t0.5 8q0 30 -19.5 47.5t-53.5 17.5q-39 0 -67 -24t-37 -68l-24 -115q-3 -16 -3 -25q0 -30 20 -48.5t53 -18.5q44 0 68.5 22.5t34.5 64.5h101q-8 -41 -26.5 -75.5t-45 -59t-60 -39t-72.5 -15.5z" />
    <glyph glyph-name="egrave" unicode="&#xe8;" horiz-adv-x="435" 
d="M367 565h-83l-63 131h97zM319 309q2 7 2.5 10.5t0.5 6.5q0 34 -20 52t-50 18q-42 0 -69.5 -23.5t-36.5 -63.5h173zM119 184q-2 -10 -2 -19q0 -29 20 -48.5t50 -19.5q37 0 70 27l56 -71q-63 -57 -142 -57q-34 0 -63 11t-50 31t-33 47.5t-12 59.5q0 9 1 20t3 19l27 125
q9 44 29 78.5t48 59.5t63.5 38t75.5 13q36 0 66 -11.5t51.5 -32.5t34 -50t12.5 -63q0 -4 -1 -15t-3 -17l-21 -101h-275z" />
    <glyph glyph-name="eacute" unicode="&#xe9;" horiz-adv-x="435" 
d="M409 696l-111 -130h-91l96 130h106zM319 309q2 7 2.5 10.5t0.5 6.5q0 32 -20 51t-50 19q-40 0 -68.5 -23.5t-37.5 -63.5h173zM119 184q-2 -10 -2 -19q0 -29 20 -48.5t50 -19.5q37 0 70 27l56 -71q-29 -28 -66 -42.5t-76 -14.5q-40 0 -70 13.5t-49.5 35t-29 48t-9.5 52.5
q0 9 1 20.5t3 18.5l27 125q9 44 29 78.5t48 59.5t63.5 38t75.5 13q36 0 66 -11.5t51.5 -32.5t34 -50t12.5 -63q0 -8 -1 -17t-3 -15l-21 -101h-275z" />
    <glyph glyph-name="ecircumflex" unicode="&#xea;" horiz-adv-x="435" 
d="M319 309q2 7 2.5 10.5t0.5 6.5q0 34 -20 52t-50 18q-42 0 -69.5 -23.5t-36.5 -63.5h173zM119 184q-2 -10 -2 -19q0 -29 20 -48.5t50 -19.5q37 0 70 27l56 -71q-63 -57 -142 -57q-34 0 -63 11t-50 31t-33 47.5t-12 59.5q0 9 1 20t3 19l27 125q9 44 29 78.5t48 59.5
t63.5 38t75.5 13q36 0 66 -11.5t51.5 -32.5t34 -50t12.5 -63q0 -4 -1 -15t-3 -17l-21 -101h-275zM372 696l53 -131h-87l-35 77l-67 -77h-87l108 131h115z" />
    <glyph glyph-name="edieresis" unicode="&#xeb;" horiz-adv-x="435" 
d="M319 309q2 7 2.5 10.5t0.5 6.5q0 34 -20 52t-50 18q-42 0 -69.5 -23.5t-36.5 -63.5h173zM119 184q-2 -10 -2 -19q0 -29 20 -48.5t50 -19.5q37 0 70 27l56 -71q-63 -57 -142 -57q-34 0 -63 11t-50 31t-33 47.5t-12 59.5q0 9 1 20t3 19l27 125q9 44 29 78.5t48 59.5
t63.5 38t75.5 13q36 0 66 -11.5t51.5 -32.5t34 -50t12.5 -63q0 -4 -1 -15t-3 -17l-21 -101h-275zM439 667l-22 -102h-101l21 102h102zM279 667l-21 -102h-102l22 102h101z" />
    <glyph glyph-name="igrave" unicode="&#xec;" horiz-adv-x="194" 
d="M245 565h-82l-64 131h98zM201 493l-104 -493h-102l105 493h101z" />
    <glyph glyph-name="iacute" unicode="&#xed;" horiz-adv-x="194" 
d="M288 696l-111 -130h-91l97 130h105zM201 493l-104 -493h-102l105 493h101z" />
    <glyph glyph-name="icircumflex" unicode="&#xee;" horiz-adv-x="194" 
d="M251 696l53 -131h-87l-35 77l-67 -77h-87l108 131h115zM201 493l-104 -493h-102l105 493h101z" />
    <glyph glyph-name="idieresis" unicode="&#xef;" horiz-adv-x="194" 
d="M318 667l-21 -102h-102l22 102h101zM159 667l-22 -102h-102l22 102h102zM201 493l-104 -493h-102l105 493h101z" />
    <glyph glyph-name="ntilde" unicode="&#xf1;" 
d="M149 588q44 65 108 65q21 0 38 -6t39 -18q5 -2 11.5 -4t10.5 -2q25 0 46 25l58 -32q-23 -33 -50.5 -49t-57.5 -16q-20 0 -36.5 5t-40.5 19q-10 6 -23 6q-24 0 -45 -25zM197 493l-6 -32q42 32 96 32q33 0 60.5 -11t47.5 -31t31 -47.5t11 -59.5q0 -8 -1 -19.5t-3 -20.5
l-65 -304h-102l65 304q2 10 2 19q0 32 -20 50t-52 18q-41 0 -68.5 -24t-35.5 -63l-64 -304h-102l105 493h101z" />
    <glyph glyph-name="ograve" unicode="&#xf2;" horiz-adv-x="435" 
d="M365 565h-83l-63 131h98zM118 184q-1 -5 -1.5 -11t-0.5 -9q0 -32 20.5 -49.5t52.5 -17.5q38 0 66 23t37 64l27 125q1 4 1.5 8.5t0.5 10.5q0 35 -20 51.5t-54 16.5q-38 0 -66.5 -23.5t-36.5 -63.5zM43 309q20 91 75.5 140t136.5 49q35 0 65.5 -10t53.5 -30t36 -48.5
t13 -66.5q0 -9 -1 -18.5t-3 -15.5l-26 -125q-10 -49 -30 -84.5t-48 -58.5t-62 -34t-72 -11q-37 0 -67.5 11t-53 31.5t-35 49t-12.5 63.5q0 6 0.5 16t2.5 17z" />
    <glyph glyph-name="oacute" unicode="&#xf3;" horiz-adv-x="435" 
d="M118 184q-1 -5 -1.5 -11t-0.5 -9q0 -32 20.5 -49.5t52.5 -17.5q38 0 66 23t37 64l27 125q1 4 1.5 8.5t0.5 10.5q0 35 -20 51.5t-54 16.5q-38 0 -66.5 -23.5t-36.5 -63.5zM43 309q20 91 75.5 140t136.5 49q35 0 65.5 -10t53.5 -30t36 -48.5t13 -66.5q0 -9 -1 -18.5
t-3 -15.5l-26 -125q-10 -49 -30 -84.5t-48 -58.5t-62 -34t-72 -11q-37 0 -67.5 11t-53 31.5t-35 49t-12.5 63.5q0 6 0.5 16t2.5 17zM408 696l-111 -130h-91l96 130h106z" />
    <glyph glyph-name="ocircumflex" unicode="&#xf4;" horiz-adv-x="435" 
d="M118 184q-1 -5 -1.5 -11t-0.5 -9q0 -32 20.5 -49.5t52.5 -17.5q38 0 66 23t37 64l27 125q1 4 1.5 8.5t0.5 10.5q0 35 -20 51.5t-54 16.5q-38 0 -66.5 -23.5t-36.5 -63.5zM43 309q20 91 75.5 140t136.5 49q35 0 65.5 -10t53.5 -30t36 -48.5t13 -66.5q0 -9 -1 -18.5
t-3 -15.5l-26 -125q-10 -49 -30 -84.5t-48 -58.5t-62 -34t-72 -11q-37 0 -67.5 11t-53 31.5t-35 49t-12.5 63.5q0 6 0.5 16t2.5 17zM371 696l53 -131h-87l-35 77l-67 -77h-87l108 131h115z" />
    <glyph glyph-name="otilde" unicode="&#xf5;" horiz-adv-x="435" 
d="M118 184q-1 -5 -1.5 -11t-0.5 -9q0 -32 20.5 -49.5t52.5 -17.5q38 0 66 23t37 64l27 125q1 4 1.5 8.5t0.5 10.5q0 35 -20 51.5t-54 16.5q-38 0 -66.5 -23.5t-36.5 -63.5zM43 309q20 91 75.5 140t136.5 49q35 0 65.5 -10t53.5 -30t36 -48.5t13 -66.5q0 -9 -1 -18.5
t-3 -15.5l-26 -125q-10 -49 -30 -84.5t-48 -58.5t-62 -34t-72 -11q-37 0 -67.5 11t-53 31.5t-35 49t-12.5 63.5q0 6 0.5 16t2.5 17zM141 588q44 65 108 65q10 0 18 -1t16.5 -3.5t18.5 -7t24 -12.5q5 -3 11.5 -4.5t11.5 -1.5q24 0 45 25l58 -32q-44 -65 -107 -65
q-9 0 -16.5 0.5t-16 3t-19 7.5t-26.5 13q-10 6 -22 6q-25 0 -46 -25z" />
    <glyph glyph-name="odieresis" unicode="&#xf6;" horiz-adv-x="435" 
d="M118 184q-1 -5 -1.5 -11t-0.5 -9q0 -32 20.5 -49.5t52.5 -17.5q38 0 66 23t37 64l27 125q1 4 1.5 8.5t0.5 10.5q0 35 -20 51.5t-54 16.5q-38 0 -66.5 -23.5t-36.5 -63.5zM43 309q20 91 75.5 140t136.5 49q35 0 65.5 -10t53.5 -30t36 -48.5t13 -66.5q0 -9 -1 -18.5
t-3 -15.5l-26 -125q-10 -49 -30 -84.5t-48 -58.5t-62 -34t-72 -11q-37 0 -67.5 11t-53 31.5t-35 49t-12.5 63.5q0 6 0.5 16t2.5 17zM438 667l-21 -102h-102l22 102h101zM279 667l-22 -102h-101l21 102h102z" />
    <glyph glyph-name="divide" unicode="&#xf7;" horiz-adv-x="528" 
d="M288 240q26 0 45 -19.5t19 -45.5q0 -28 -19 -47t-46 -19q-28 0 -47 19.5t-19 46.5t19.5 46t47.5 19zM288 588q26 0 45 -19.5t19 -45.5q0 -28 -19 -47t-46 -19t-46.5 19.5t-19.5 46.5t19.5 46t47.5 19zM518 406v-116h-464v116h464z" />
    <glyph glyph-name="oslash" unicode="&#xf8;" horiz-adv-x="435" 
d="M305 374q-18 21 -58 21q-41 0 -67.5 -23t-34.5 -63l-27 -125l-2 -15zM132 119q11 -12 26 -17.5t31 -5.5q39 0 66.5 23.5t36.5 64.5l27 125q1 4 1 7t1 8zM407 417q16 -30 16 -76q0 -6 -1 -16.5t-2 -15.5l-26 -125q-19 -91 -74.5 -140t-136.5 -49q-76 0 -125 44l-40 -44
l-35 30l47 51q-17 36 -17 73q0 9 1 18t3 17l26 125q19 90 75 139t137 49q37 0 69 -11.5t55 -31.5l41 44l34 -30z" />
    <glyph glyph-name="ugrave" unicode="&#xf9;" 
d="M374 565h-83l-63 131h97zM267 0l7 32q-23 -17 -46 -24.5t-52 -7.5q-67 0 -108 39t-41 103q0 11 1.5 24t3.5 22l64 305h102l-65 -305q-1 -3 -1.5 -10t-0.5 -11q0 -29 18.5 -47t50.5 -18q37 0 68 25t39 61l65 305h101l-105 -493h-101z" />
    <glyph glyph-name="uacute" unicode="&#xfa;" 
d="M423 696l-111 -130h-91l96 130h106zM267 0l7 32q-23 -17 -46 -24.5t-52 -7.5q-67 0 -108 39t-41 103q0 11 1.5 24t3.5 22l64 305h102l-65 -305q-1 -3 -1.5 -10t-0.5 -11q0 -29 18.5 -47t50.5 -18q37 0 68 25t39 61l65 305h101l-105 -493h-101z" />
    <glyph glyph-name="ucircumflex" unicode="&#xfb;" 
d="M267 0l7 32q-23 -17 -46 -24.5t-52 -7.5q-67 0 -108 39t-41 103q0 11 1.5 24t3.5 22l64 305h102l-65 -305q-1 -3 -1.5 -10t-0.5 -11q0 -29 18.5 -47t50.5 -18q37 0 68 25t39 61l65 305h101l-105 -493h-101zM385 696l53 -131h-87l-35 77l-67 -77h-87l109 131h114z" />
    <glyph glyph-name="udieresis" unicode="&#xfc;" 
d="M267 0l7 32q-23 -17 -46 -24.5t-52 -7.5q-67 0 -108 39t-41 103q0 11 1.5 24t3.5 22l64 305h102l-65 -305q-1 -3 -1.5 -10t-0.5 -11q0 -29 18.5 -47t50.5 -18q37 0 68 25t39 61l65 305h101l-105 -493h-101zM453 667l-21 -102h-102l22 102h101zM294 667l-22 -102h-101
l21 102h102z" />
    <glyph glyph-name="ydieresis" unicode="&#xff;" horiz-adv-x="444" 
d="M443 667l-21 -102h-102l22 102h101zM284 667l-22 -102h-101l21 102h102zM68 493h97l40 -329l180 329h104l-328 -598q-26 -47 -69 -71.5t-99 -26.5l22 101q47 5 64 36l46 84z" />
    <glyph glyph-name="numbersign" unicode="#" horiz-adv-x="509" 
d="M219 290h73l42 116h-73zM365 696l-63 -174h73l63 174h101l-62 -174h61l-24 -116h-79l-41 -116h61l-25 -116h-78l-62 -174h-102l63 174h-73l-63 -174h-101l62 174h-61l25 116h78l42 116h-62l25 116h78l62 174h102z" />
    <glyph glyph-name="exclam" unicode="!" horiz-adv-x="185" 
d="M131 696h116l-134 -493h-59zM124 116l-25 -116h-116l25 116h116z" />
    <glyph glyph-name="quotedbl" unicode="&#x22;" horiz-adv-x="370" 
d="M426 696l-24 -116l-141 -116l49 232h116zM252 696l-24 -116l-141 -116l49 232h116z" />
    <glyph glyph-name="cAC" unicode="&#x20ac;" horiz-adv-x="583" 
d="M139 478q12 52 36 93.5t58 71t76.5 45t91.5 15.5q45 0 83 -13.5t65 -38t42.5 -58.5t15.5 -74q0 -19 -6 -48h-116q2 9 2.5 14.5t0.5 10.5q0 43 -25 67.5t-70 24.5h-4q-48 0 -82 -28t-50 -76l-2 -6h108l-41 -94h-87l-16 -73h109l-42 -94h-86q-2 -6 -2 -9v-7q0 -44 25.5 -68
t72.5 -24q51 0 87 30.5t50 85.5h116q-10 -54 -34 -97t-58.5 -73t-78 -46t-93.5 -16q-45 0 -82.5 13.5t-65 38t-42.5 58.5t-15 74q0 9 0.5 18t2.5 22h-72l42 94h50l16 73h-73l42 94h51z" />
    <glyph glyph-name="hungarumlaut" unicode="&#x2dd;" horiz-adv-x="324" 
d="M256 0h-116l-26 696h116z" />
    <glyph glyph-name="ogonek" unicode="&#x2db;" horiz-adv-x="444" 
d="M412 696l-111 -130h-91l97 130h105zM68 493h97l40 -329l180 329h104l-328 -598q-26 -47 -69.5 -72.5t-98.5 -25.5l22 101q23 0 39 9.5t25 26.5l46 84z" />
    <glyph glyph-name="caron" unicode="&#x2c7;" horiz-adv-x="583" 
d="M475 590l82 -82l-159 -160l159 -160l-82 -82l-159 160l-160 -160l-82 82l160 160l-160 160l82 82l160 -160z" />
    <glyph glyph-name="dollar" unicode="$" horiz-adv-x="444" 
d="M218 105q39 11 65 43t26 71q0 20 -11.5 37.5t-30.5 25.5l-11 5zM274 593q-20 -4 -37.5 -14t-30 -25t-19.5 -33t-7 -38q0 -50 42 -69l13 -6zM150 9q-56 7 -94.5 40.5t-50.5 86.5l94 37q18 -59 71 -70l43 203l-47 21q-31 14 -56.5 50t-25.5 88q0 45 16 84t44 69t66.5 48.5
t84.5 22.5l17 80h47l-18 -82q54 -10 91 -42t52 -85l-94 -37q-16 58 -69 70l-43 -204l45 -19q37 -16 59.5 -54.5t22.5 -89.5q0 -43 -16 -81.5t-43.5 -67.5t-65.5 -47.5t-83 -21.5l-17 -81h-47z" />
    <glyph glyph-name="currency" unicode="&#xa4;" horiz-adv-x="694" 
d="M372 508q-34 0 -63 -12.5t-51 -34t-34.5 -51t-12.5 -62.5t12.5 -62t34.5 -51t51 -34.5t62 -12.5t61.5 12.5t50.5 34.5t34.5 51t12.5 62t-12.5 62t-34 51t-50 34.5t-61.5 12.5zM229 550q68 45 141 45q75 0 141 -45l85 85l61 -62l-84 -84q21 -31 32.5 -67t11.5 -74
t-11 -73.5t-34 -67.5l85 -85l-61 -61l-85 85q-66 -45 -141 -45q-37 0 -71.5 11t-69.5 34l-84 -85l-62 61l85 85q-21 29 -32.5 66t-11.5 75t11.5 74t32.5 66l-85 85l62 62z" />
    <glyph glyph-name="brokenbar" unicode="&#xa6;" horiz-adv-x="343" 
d="M228 145v-348h-116v348h116zM228 696v-348h-116v348h116z" />
    <glyph glyph-name="twosuperior" unicode="&#xb2;" horiz-adv-x="268" 
d="M278 420l-16 -73h-211l15 73l151 143q16 14 20.5 22t4.5 16q0 11 -7.5 18t-19.5 7q-28 0 -38 -32h-74q11 48 44.5 77t76.5 29q41 0 67 -25.5t26 -65.5q0 -23 -11 -42.5t-41 -48.5l-104 -98h117z" />
    <glyph glyph-name="threesuperior" unicode="&#xb3;" horiz-adv-x="268" 
d="M202 559q17 0 28 13t11 28q0 13 -7.5 19.5t-18.5 6.5q-12 0 -23.5 -9t-14.5 -23h-74q10 47 44.5 76.5t80.5 29.5q40 0 64.5 -25t24.5 -60q0 -26 -11.5 -51t-31.5 -42q13 -22 13 -47q0 -27 -9.5 -50.5t-26.5 -41t-39.5 -28t-49.5 -10.5q-45 0 -68.5 25.5t-23.5 57.5
q0 5 0.5 9.5t1.5 12.5h74v-8q0 -11 7.5 -17.5t18.5 -6.5q21 0 30.5 15.5t9.5 26.5q0 12 -7.5 18.5t-18.5 6.5h-40l16 74h40z" />
    <glyph glyph-name="onesuperior" unicode="&#xb9;" horiz-adv-x="268" 
d="M272 696l-74 -348h-73l59 276h-58l15 72h131z" />
    <glyph glyph-name="onequarter" unicode="&#xbc;" horiz-adv-x="611" 
d="M630 676l-566 -683l-38 26l566 684zM467 118l26 120l-87 -120h61zM561 46h-37l-9 -46h-73l10 46h-135l14 68l171 234h87l-49 -230h37zM271 696l-74 -348h-72l58 276h-57l15 72h130z" />
    <glyph glyph-name="onehalf" unicode="&#xbd;" horiz-adv-x="611" 
d="M630 676l-566 -683l-38 26l566 684zM271 696l-74 -348h-72l58 276h-57l15 72h130zM547 73l-16 -73h-211l16 73l151 143q13 13 18 21.5t5 16.5q0 25 -26 25q-28 0 -38 -32h-73q11 48 43 76.5t77 28.5q41 0 66.5 -24t25.5 -66q0 -12 -2 -22.5t-7.5 -21t-15.5 -22t-25 -25.5
l-105 -98h117z" />
    <glyph glyph-name="threequarters" unicode="&#xbe;" horiz-adv-x="611" 
d="M630 676l-566 -683l-38 26l566 684zM467 118l26 120l-87 -120h61zM561 46h-37l-9 -46h-73l10 46h-135l14 68l171 234h87l-49 -230h37zM203 559q15 0 26.5 12t11.5 29q0 26 -26 26q-14 0 -24 -9t-14 -23h-74q10 45 43.5 75.5t79.5 30.5q40 0 65.5 -23.5t25.5 -61.5
q0 -26 -13 -51.5t-30 -41.5q13 -20 13 -47q0 -25 -9.5 -49t-26.5 -42t-39.5 -29t-49.5 -11q-38 0 -65 24t-27 60q0 5 0.5 9.5t2.5 12.5h74q-1 -4 -1 -8q0 -11 7.5 -17.5t18.5 -6.5q17 0 28.5 13t11.5 29q0 10 -7 17.5t-18 7.5h-41l16 74h41z" />
    <glyph glyph-name="Eth" unicode="&#xd0;" horiz-adv-x="546" 
d="M139 116h116q56 0 92 29.5t48 86.5l50 232q2 6 2 12.5v13.5q0 42 -25 66t-69 24h-116l-44 -207h116l-10 -51h-116zM38 322l10 51h29l69 323h220q44 0 80.5 -13.5t63 -38t41 -58.5t14.5 -74q0 -11 -1.5 -26t-3.5 -22l-49 -232q-13 -60 -39 -103.5t-61 -72t-78.5 -42.5
t-90.5 -14h-244l69 322h-29z" />
    <glyph glyph-name="multiply" unicode="&#xd7;" horiz-adv-x="583" 
d="M475 590l82 -82l-159 -160l159 -160l-82 -82l-159 160l-160 -160l-82 82l160 160l-160 160l82 82l160 -160z" />
    <glyph glyph-name="Yacute" unicode="&#xdd;" horiz-adv-x="491" 
d="M478 899l-111 -131h-91l96 131h106zM251 0h-116l74 348l-100 348h112l66 -233l166 233h120l-248 -348z" />
    <glyph glyph-name="Thorn" unicode="&#xde;" horiz-adv-x="537" 
d="M277 232q30 0 56.5 10.5t46 29t30.5 43.5t11 54q0 43 -26 69t-68 26h-115l-50 -232h115zM113 0h-116l148 696h116l-25 -116h103q45 0 81.5 -14.5t63 -41t41 -63.5t14.5 -82q0 -57 -21 -105t-57 -83.5t-84.5 -55t-103.5 -19.5h-135z" />
    <glyph glyph-name="eth" unicode="&#xf0;" horiz-adv-x="435" 
d="M312 279q1 5 1.5 9.5t0.5 8.5q0 32 -21 51t-55 19q-38 0 -64.5 -23t-35.5 -65l-21 -98q-1 -5 -1.5 -9t-0.5 -9q0 -30 20.5 -49.5t53.5 -19.5q37 0 65.5 24.5t36.5 62.5zM249 486l-25 39l97 70q-9 4 -16 5t-16 1q-47 0 -80 -43l-77 51q66 94 166 94q38 0 66.5 -11.5
t50.5 -28.5l55 40l25 -38l-49 -36q11 -17 16.5 -37t5.5 -40q0 -14 -5 -37l-70 -334q-19 -88 -76 -138t-139 -50q-75 0 -120.5 41.5t-45.5 110.5q0 6 1 17t3 19l20 98q7 33 15 55t23 45q28 43 75.5 66t101.5 23q55 0 96 -22l15 69q1 5 1.5 9t0.5 9q0 16 -8 31z" />
    <glyph glyph-name="yacute" unicode="&#xfd;" horiz-adv-x="444" 
d="M412 696l-111 -130h-91l97 130h105zM68 493h97l40 -329l180 329h104l-328 -598q-26 -47 -69.5 -72.5t-98.5 -25.5l22 101q23 0 39 9.5t25 26.5l46 84z" />
    <glyph glyph-name="thorn" unicode="&#xfe;" horiz-adv-x="444" 
d="M327 305q2 8 2 18q0 29 -20 48.5t-49 19.5q-37 0 -68 -25t-39 -61l-24 -117q-1 -2 -1.5 -8t-0.5 -9q0 -31 21 -50.5t54 -19.5q38 0 65.5 23.5t35.5 63.5zM46 -203h-102l191 899h102l-50 -235q23 17 45.5 24.5t50.5 7.5q33 0 60.5 -11t47.5 -30.5t31 -46.5t11 -59
q0 -8 -1 -20t-3 -21l-25 -117q-19 -89 -74 -138.5t-136 -49.5q-30 0 -53.5 7.5t-45.5 24.5z" />
    <glyph glyph-name="minus" unicode="&#x2212;" horiz-adv-x="528" 
d="M518 406v-116h-464v116h464z" />
    </font>
</defs>
</svg>
