<?xml version="1.0" standalone="no"?>
<!DOCTYPE svg PUBLIC "-//W3C//DTD SVG 1.1//EN" "http://www.w3.org/Graphics/SVG/1.1/DTD/svg11.dtd" >
<svg xmlns="http://www.w3.org/2000/svg" xmlns:xlink="http://www.w3.org/1999/xlink" version="1.1">
<metadata>
Created by FontForge 20171210 at Tue Sep 25 10:50:20 2007
 By convertio
Copyright (c) 2007 by Morisawa &#38; Company Ltd. All rights reserved.
</metadata>
<defs>
<font id="UniqloBold" horiz-adv-x="417" >
  <font-face 
    font-family="UniqloBold"
    font-weight="400"
    font-stretch="normal"
    units-per-em="1000"
    panose-1="2 0 5 6 0 0 0 2 0 4"
    ascent="750"
    descent="-250"
    x-height="487"
    cap-height="696"
    bbox="-47 -216 876 940"
    underline-thickness="50"
    underline-position="-100"
    unicode-range="U+0020-2212"
  />
<missing-glyph horiz-adv-x="333" 
 />
    <glyph glyph-name=".notdef" horiz-adv-x="333" 
 />
    <glyph glyph-name=".null" horiz-adv-x="0" 
 />
    <glyph glyph-name="nonmarkingreturn" horiz-adv-x="0" 
 />
    <glyph glyph-name="space" unicode=" " horiz-adv-x="333" 
 />
    <glyph glyph-name="space" unicode="&#xa0;" horiz-adv-x="333" 
 />
    <glyph glyph-name="exclam" unicode="!" horiz-adv-x="204" 
d="M148 232h-93l-23 464h139zM32 0v139h139v-139h-139z" />
    <glyph glyph-name="quotedbl" unicode="&#x22;" 
d="M243 418v278h139v-139zM34 418v278h139v-139z" />
    <glyph glyph-name="numbersign" unicode="#" horiz-adv-x="528" 
d="M301 278l19 140h-93l-19 -140h93zM171 0h-116l18 139h-41v139h60l18 140h-32v139h51l19 139h116l-19 -139h94l18 139h116l-18 -139h41v-139h-60l-18 -140h32v-139h-51l-19 -139h-116l19 139h-94z" />
    <glyph glyph-name="dollar" unicode="$" horiz-adv-x="463" 
d="M197 560q-23 -10 -37.5 -31.5t-14.5 -46.5q0 -18 11 -34t24 -21l17 -6v139zM267 135q24 11 38 31.5t14 46.5q0 22 -10 36t-25 19l-17 6v-139zM267 681q60 -10 108 -46.5t71 -92.5l-107 -45q-20 49 -72 65v-165l60 -22q19 -7 38 -20t34.5 -33t25.5 -47t10 -62
q0 -37 -12.5 -70t-35 -59t-53 -44t-67.5 -25v-85h-70v84q-60 9 -108 46t-71 93l107 45q9 -23 29 -41t43 -25v167l-62 22q-20 7 -39 21.5t-34 35.5t-24 47.5t-9 57.5q0 36 12.5 69t35 59t53 44t67.5 25v85h70v-84z" />
    <glyph glyph-name="percent" unicode="%" horiz-adv-x="472" 
d="M128 0h-101l317 696h101zM323 98q0 -10 6.5 -16.5t16.5 -6.5q11 0 17.5 6.5t6.5 16.5v94q0 11 -6.5 17.5t-16.5 6.5q-11 0 -17.5 -6.5t-6.5 -17.5v-94zM445 99q0 -20 -8 -38t-21.5 -31.5t-31 -21.5t-37.5 -8t-38 8t-31.5 21.5t-21.5 31.5t-8 38v93q0 20 7.5 38t21 31.5
t31.5 21.5t39 8q20 0 38 -8t31.5 -21.5t21 -31.5t7.5 -38v-93zM102 504q0 -11 6.5 -17.5t17.5 -6.5q10 0 16.5 6.5t6.5 17.5v94q0 10 -6.5 16.5t-17.5 6.5q-10 0 -16.5 -6.5t-6.5 -16.5v-94zM224 504q0 -20 -7.5 -38t-21 -31.5t-31.5 -21.5t-38 -8q-21 0 -39 8t-31.5 21.5
t-21 31.5t-7.5 38v93q0 42 28.5 70.5t70.5 28.5q41 0 69.5 -28.5t28.5 -70.5v-93z" />
    <glyph glyph-name="ampersand" unicode="&#x26;" horiz-adv-x="639" 
d="M234 493q14 11 27.5 25.5t13.5 28.5t-10.5 23.5t-25.5 9.5q-14 0 -24 -10t-10 -24q0 -8 3 -14t9 -15zM226 323l-48 -45q-31 -29 -31 -68q0 -19 7.5 -36t20 -30t29 -20.5t35.5 -7.5q32 0 63 11t56 31zM430 67q-39 -32 -88.5 -49.5t-97.5 -17.5q-45 0 -83.5 16.5t-67.5 45
t-45.5 67t-16.5 82.5q0 39 16.5 79t44.5 67l61 58l-20 24q-25 30 -34.5 53t-9.5 54t12 58.5t32 47.5t48 32t59 12t58.5 -12t48 -32.5t32.5 -48t12 -58.5q0 -29 -12 -57.5t-32 -48.5l-38 -37l112 -139q2 11 3 19.5t2 19.5h115q-1 -41 -9 -74t-27 -68l129 -160h-151z" />
    <glyph glyph-name="quotesingle" unicode="'" horiz-adv-x="213" 
d="M37 418v278h139v-139z" />
    <glyph glyph-name="parenleft" unicode="(" horiz-adv-x="287" 
d="M257 557q-32 -2 -51 -22t-19 -48v-278q0 -27 19 -47.5t51 -22.5v-139q-54 3 -93.5 23.5t-65 50.5t-38 66t-12.5 69v278q0 37 13.5 73t39.5 65.5t65.5 48.5t90.5 22v-139z" />
    <glyph glyph-name="parenright" unicode=")" horiz-adv-x="287" 
d="M30 696q52 -3 91 -22t65.5 -48t39.5 -65t13 -74v-278q0 -36 -13 -72t-39.5 -65.5t-65.5 -49t-91 -22.5v139q32 2 51 21.5t19 48.5v278q0 29 -19 48.5t-51 21.5v139z" />
    <glyph glyph-name="asterisk" unicode="*" horiz-adv-x="306" 
d="M291 518l-35 -61l-68 40v-79h-70v79l-68 -40l-35 61l68 39l-68 39l35 61l68 -40v79h70v-79l68 40l35 -61l-68 -39z" />
    <glyph glyph-name="plus" unicode="+" horiz-adv-x="528" 
d="M194 580h140v-162h162v-140h-162v-162h-140v162h-162v140h162v162z" />
    <glyph glyph-name="comma" unicode="," horiz-adv-x="213" 
d="M37 -139v278h139v-139z" />
    <glyph glyph-name="hyphen" unicode="-" horiz-adv-x="528" 
d="M496 418v-140h-464v140h464z" />
    <glyph glyph-name="period" unicode="." horiz-adv-x="213" 
d="M176 139v-139h-139v139h139z" />
    <glyph glyph-name="slash" unicode="/" horiz-adv-x="370" 
d="M150 0h-139l209 696h139z" />
    <glyph glyph-name="zero" unicode="0" horiz-adv-x="481" 
d="M171 202q0 -29 20.5 -49.5t48.5 -20.5q29 0 49.5 20.5t20.5 49.5v292q0 29 -20.5 49.5t-48.5 20.5q-29 0 -49.5 -20.5t-20.5 -49.5v-292zM450 202q0 -43 -16.5 -81t-45 -66.5t-66.5 -45t-82 -16.5q-43 0 -80.5 16.5t-66 45t-45 66.5t-16.5 81v292q0 43 16.5 81t45 66.5
t66 45t80.5 16.5q44 0 82 -16.5t66.5 -45t45 -66.5t16.5 -81v-292z" />
    <glyph glyph-name="one" unicode="1" horiz-adv-x="481" 
d="M318 0h-139v557h-70v139h209v-696z" />
    <glyph glyph-name="two" unicode="2" horiz-adv-x="481" 
d="M31 487v7q0 43 16.5 81t45 66.5t66.5 45t81 16.5t81 -16.5t66.5 -45t45 -66.5t16.5 -81q0 -29 -11.5 -59.5t-40.5 -65.5l-193 -230h245v-139h-418v131l252 306q11 14 19 27.5t8 29.5q0 29 -20.5 49.5t-49.5 20.5t-49.5 -20.5t-20.5 -49.5v-7h-139z" />
    <glyph glyph-name="three" unicode="3" horiz-adv-x="481" 
d="M449 487q0 -37 -14 -74t-40 -65q26 -24 40 -62.5t14 -76.5v-8q0 -43 -16.5 -80.5t-45 -66t-66.5 -45t-81 -16.5t-81.5 16.5t-66.5 45t-44.5 66.5t-16.5 81h139q1 -31 21 -50.5t49 -19.5t49 20.5t20 48.5v8q0 32 -20 50.5t-49 18.5h-70v140h70q29 0 49 19t20 50v8
q0 30 -20 49.5t-49 19.5t-49 -19.5t-21 -50.5h-139q0 42 16 80t44.5 66.5t66.5 45.5t82 17t82 -16.5t66.5 -45t44.5 -66t16 -80.5v-8z" />
    <glyph glyph-name="four" unicode="4" horiz-adv-x="481" 
d="M272 218v276l-115 -276h115zM272 0v84h-250v126l213 486h172v-478h56v-134h-56v-84h-135z" />
    <glyph glyph-name="five" unicode="5" horiz-adv-x="481" 
d="M36 696h394v-139h-259v-83q31 13 72 13q44 0 82.5 -16.5t67 -45t45 -66.5t16.5 -81v-76q0 -43 -16.5 -81t-45 -66.5t-66.5 -45t-82 -16.5q-43 0 -80 15.5t-65 43.5t-44.5 66t-18.5 84h139q2 -31 21 -50.5t48 -19.5t49.5 20t20.5 50v76q0 32 -20 51t-51 19q-25 0 -45 -15
t-24 -39h-138v402z" />
    <glyph glyph-name="six" unicode="6" horiz-adv-x="481" 
d="M171 202q0 -29 20 -49.5t49 -20.5t49.5 20.5t20.5 49.5v32q0 31 -20 50t-49 19q-30 0 -50 -20t-20 -49v-32zM244 441q43 0 80.5 -16.5t65.5 -44.5t44 -66t16 -80v-32q0 -43 -16.5 -81t-45 -66.5t-66.5 -45t-81 -16.5t-81.5 16.5t-66.5 45t-44.5 66.5t-16.5 81v32
q0 20 7 48t25 69l153 345h139z" />
    <glyph glyph-name="seven" unicode="7" horiz-adv-x="481" 
d="M87 0l209 557h-255v139h394v-139l-209 -557h-139z" />
    <glyph glyph-name="eight" unicode="8" horiz-adv-x="481" 
d="M163 208q0 -33 23 -56.5t55 -23.5t55.5 23.5t23.5 56.5v7q0 33 -23.5 56.5t-56.5 23.5q-16 0 -30 -6.5t-24.5 -17.5t-16.5 -25.5t-6 -30.5v-7zM177 496q0 -27 19 -46.5t45 -19.5q27 0 46 19.5t19 46.5v6q0 27 -19 46.5t-46 19.5q-26 0 -45 -19.5t-19 -46.5v-6zM31 215
q0 42 14 79t46 72q-24 32 -35 62.5t-11 67.5v6q0 42 15.5 78.5t42 63.5t62 43t76.5 16t77 -16t62.5 -43t42 -63.5t15.5 -78.5v-6q0 -37 -10.5 -67.5t-36.5 -62.5q32 -33 46.5 -71t14.5 -80v-7q0 -45 -16.5 -84t-45 -68t-67 -46t-82.5 -17q-43 0 -81.5 17t-67 46t-45 68
t-16.5 84v7z" />
    <glyph glyph-name="nine" unicode="9" horiz-adv-x="481" 
d="M310 494q0 29 -20 49.5t-49 20.5t-49.5 -20.5t-20.5 -49.5v-32q0 -29 20 -49t49 -20t49.5 20t20.5 49v32zM237 255q-41 0 -78 16t-65.5 44t-45 66t-16.5 81v32q0 44 16.5 82t44.5 66t66.5 44.5t81.5 16.5t81 -16t66.5 -44.5t45 -66.5t16.5 -82v-31q0 -23 -9.5 -54.5
t-23.5 -63.5l-153 -345h-139z" />
    <glyph glyph-name="colon" unicode=":" horiz-adv-x="213" 
d="M176 418v-140h-139v140h139zM176 139v-139h-139v139h139z" />
    <glyph glyph-name="semicolon" unicode=";" horiz-adv-x="213" 
d="M37 -139v278h139v-139zM176 418v-140h-139v140h139z" />
    <glyph glyph-name="less" unicode="&#x3c;" horiz-adv-x="528" 
d="M496 247v-154l-464 182v146l464 182v-154l-288 -101z" />
    <glyph glyph-name="equal" unicode="=" horiz-adv-x="528" 
d="M496 313v-139h-464v139h464zM496 522v-139h-464v139h464z" />
    <glyph glyph-name="greater" unicode="&#x3e;" horiz-adv-x="528" 
d="M32 449v154l464 -182v-146l-464 -182v154l288 101z" />
    <glyph glyph-name="question" unicode="?" horiz-adv-x="481" 
d="M310 139v-139h-139v139h139zM171 232q0 42 16 80.5t45 67.5l58 58q10 10 15 23t5 25v11q0 28 -19 47.5t-50 19.5q-29 0 -49.5 -19.5t-20.5 -48.5h-139q0 42 16 80t44.5 66t66.5 44.5t82 16.5q43 0 81 -16.5t66.5 -44.5t45 -65.5t16.5 -79.5v-11q0 -43 -16 -80t-45 -66
l-58 -58q-21 -21 -21 -50h-139z" />
    <glyph glyph-name="at" unicode="@" horiz-adv-x="759" 
d="M311 318q0 -29 20.5 -49.5t49.5 -20.5q28 0 48.5 20.5t20.5 49.5v53q0 27 -20.5 48.5t-48.5 21.5q-29 0 -49.5 -20.5t-20.5 -49.5v-53zM450 534h93v-232q0 -19 13.5 -33t31.5 -14q20 0 33.5 16t13.5 39v38q0 53 -20.5 100t-55 81.5t-80.5 54.5t-98 20q-53 0 -100 -20
t-81.5 -55t-54.5 -81.5t-20 -100.5q0 -52 20 -98.5t55 -81t81.5 -54.5t99.5 -20q26 0 49 4.5t50 15.5l36 -86q-38 -14 -70 -20.5t-65 -6.5q-72 0 -136 27.5t-111 74.5t-74.5 111t-27.5 136q0 71 27.5 134t75 110.5t110.5 75.5t135 28q71 0 134 -28t110.5 -75.5t75.5 -111
t28 -134.5v-38q0 -28 -11 -55t-29.5 -47.5t-43 -33t-52.5 -12.5q-29 0 -52.5 12.5t-37.5 35.5q-53 -55 -130 -55q-34 0 -62.5 12t-49 33.5t-31.5 51.5t-11 66v53q0 41 13.5 71.5t35 50.5t48 30.5t52.5 10.5q25 0 47 -7.5t36 -21.5v29z" />
    <glyph glyph-name="A" unicode="A" horiz-adv-x="630" 
d="M315 506l-70 -228h139zM199 139l-47 -139h-139l232 696h139l232 -696h-139l-46 139h-232z" />
    <glyph glyph-name="B" unicode="B" horiz-adv-x="546" 
d="M189 139h116q29 0 49.5 21t20.5 48q0 29 -19 49.5t-51 20.5h-116v-139zM305 418q29 0 49 18.5t20 50.5t-20 51t-49 19h-116v-139h116zM305 696q44 0 82 -16.5t66.5 -45t44.5 -66t16 -80.5q0 -39 -13.5 -75t-39.5 -65q27 -30 40 -65.5t13 -74.5q0 -45 -17.5 -83.5
t-46.5 -66t-67 -43t-79 -15.5h-254v696h255z" />
    <glyph glyph-name="C" unicode="C" horiz-adv-x="537" 
d="M362 471q0 20 -7.5 37t-20 29.5t-29.5 19.5t-36 7q-20 0 -37 -8t-29.5 -21t-19.5 -29.5t-7 -34.5v-246q0 -19 7.5 -36t20 -29.5t29.5 -20t36 -7.5q39 0 65 25.5t28 67.5h139q0 -48 -18 -90t-49.5 -73.5t-74 -50t-90.5 -18.5t-90 18.5t-73.5 50t-50 73.5t-18.5 90v246
q0 48 18.5 90.5t50 74t73.5 49.5t90 18t90.5 -18t74 -49.5t49.5 -74t18 -90.5h-139z" />
    <glyph glyph-name="D" unicode="D" horiz-adv-x="546" 
d="M280 139q19 0 36 7.5t29.5 20t20 29.5t7.5 36v232q0 19 -7.5 36t-20 29.5t-29.5 20t-36 7.5h-93v-418h93zM48 696h232q48 0 90.5 -18t74 -49.5t49.5 -74t18 -90.5v-232q0 -53 -20 -96t-53 -73t-74.5 -46.5t-84.5 -16.5h-232v696z" />
    <glyph glyph-name="E" unicode="E" horiz-adv-x="546" 
d="M513 696v-139h-325v-139h255v-140h-255v-139h325v-139h-464v696h464z" />
    <glyph glyph-name="F" unicode="F" horiz-adv-x="528" 
d="M512 696v-139h-325v-139h255v-140h-255v-278h-139v696h464z" />
    <glyph glyph-name="G" unicode="G" horiz-adv-x="537" 
d="M361 471q0 40 -27 66.5t-66 26.5t-66 -27t-27 -66v-246q0 -19 7.5 -36t20 -29.5t29.5 -20t36 -7.5q41 0 67 27.5t26 69.5h-93v135h232v-139q0 -49 -18 -91.5t-49.5 -73.5t-74 -49t-90.5 -18t-90 18.5t-73.5 50t-50 73.5t-18.5 90v246q0 48 18.5 90.5t50 74t73.5 49.5
t90 18t90.5 -18t74 -49.5t49.5 -74t18 -90.5h-139z" />
    <glyph glyph-name="H" unicode="H" horiz-adv-x="565" 
d="M514 0h-139v278h-186v-278h-139v696h139v-278h186v278h139v-696z" />
    <glyph glyph-name="I" unicode="I" horiz-adv-x="241" 
d="M51 0v696h139v-696h-139z" />
    <glyph glyph-name="J" unicode="J" horiz-adv-x="528" 
d="M153 225q0 -18 7 -34.5t20 -29.5t30 -21t36 -8t36 7.5t29.5 20t20 29.5t7.5 36v471h139v-471q0 -48 -18 -90t-49.5 -73.5t-74 -50t-90.5 -18.5t-90.5 18.5t-74 50.5t-49.5 74t-18 89h139z" />
    <glyph glyph-name="K" unicode="K" horiz-adv-x="528" 
d="M513 0h-143l-130 229l-56 -97v-132h-135v696h135v-324l186 324h143l-203 -348z" />
    <glyph glyph-name="L" unicode="L" horiz-adv-x="537" 
d="M189 139h325v-139h-464v696h139v-557z" />
    <glyph glyph-name="M" unicode="M" horiz-adv-x="630" 
d="M582 0h-140v347l-70 -208h-115l-70 208v-347h-139v696h139l128 -383l127 383h140v-696z" />
    <glyph glyph-name="N" unicode="N" horiz-adv-x="565" 
d="M189 0h-139v696h139l186 -414v414h139v-696h-139l-186 414v-414z" />
    <glyph glyph-name="O" unicode="O" horiz-adv-x="537" 
d="M175 225q0 -19 7.5 -36t20 -29.5t29.5 -20t36 -7.5t36 7.5t29.5 20t20 29.5t7.5 36v246q0 20 -7.5 36.5t-20 29.5t-29.5 20t-36 7t-36 -7t-29.5 -20t-20 -29.5t-7.5 -36.5v-246zM500 225q0 -48 -18 -90t-49.5 -73.5t-74 -50t-90.5 -18.5t-90 18.5t-73.5 50t-50 73.5
t-18.5 90v246q0 48 18.5 90.5t50 74t73.5 49.5t90 18t90.5 -18t74 -49.5t49.5 -74t18 -90.5v-246z" />
    <glyph glyph-name="P" unicode="P" horiz-adv-x="546" 
d="M187 371h93q20 0 36.5 7.5t29.5 20t20 29.5t7 36t-7 36t-20 29.5t-29.5 20t-36.5 7.5h-93v-186zM280 696q48 0 90.5 -18t74 -49.5t49.5 -74t18 -90.5t-18 -90t-49.5 -73.5t-74 -50t-90.5 -18.5h-93v-232h-139v696h232z" />
    <glyph glyph-name="Q" unicode="Q" horiz-adv-x="537" 
d="M175 225q0 -19 7.5 -36t20 -29.5t29.5 -20t36 -7.5t36 7t29.5 20t20 30t7.5 36v246q0 42 -26.5 67.5t-66.5 25.5q-19 0 -36 -7t-29.5 -20t-20 -29.5t-7.5 -36.5v-246zM499 -139h-139l-46 136q-14 -2 -24.5 -3t-21.5 -1q-48 0 -90 18.5t-73.5 50t-50 73.5t-18.5 90v246
q0 48 18.5 90.5t50 74t73.5 49.5t90 18t90.5 -18t74 -49.5t49.5 -74t18 -90.5v-246q0 -97 -69 -165z" />
    <glyph glyph-name="R" unicode="R" horiz-adv-x="546" 
d="M189 371h93q20 0 36.5 7.5t29.5 20t20 29.5t7 36t-7 36t-20 29.5t-29.5 20t-36.5 7.5h-93v-186zM514 0h-139l-78 232h-15h-93v-232h-139v696h232q48 0 90.5 -18t74 -49.5t49.5 -74t18 -90.5q0 -111 -92 -185z" />
    <glyph glyph-name="S" unicode="S" horiz-adv-x="481" 
d="M160 188q13 -27 33.5 -41.5t46.5 -14.5q29 0 50 19.5t21 46.5q0 22 -9.5 35.5t-26.5 21.5l-122 58q-60 29 -90.5 76t-30.5 106q0 43 16.5 81t45 66t66.5 44.5t82 16.5q69 0 124 -37.5t84 -103.5l-129 -54q-12 27 -32.5 41.5t-46.5 14.5q-29 0 -50 -19.5t-21 -46.5
q0 -19 9.5 -34t26.5 -23l122 -58q121 -58 121 -182q0 -44 -16.5 -82t-45 -66t-67 -44t-82.5 -16q-69 0 -123 37t-84 104z" />
    <glyph glyph-name="T" unicode="T" horiz-adv-x="528" 
d="M334 0h-140v557h-162v139h464v-139h-162v-557z" />
    <glyph glyph-name="U" unicode="U" horiz-adv-x="565" 
d="M514 696v-471q0 -48 -18 -90t-49.5 -73.5t-74 -50t-90.5 -18.5t-90 18.5t-73.5 50t-50 73.5t-18.5 90v471h139v-471q0 -19 7.5 -36t20 -29.5t29.5 -20t36 -7.5t36 7.5t29.5 20t20 29.5t7.5 36v471h139z" />
    <glyph glyph-name="V" unicode="V" horiz-adv-x="491" 
d="M339 696h139l-162 -696h-140l-162 696h139l93 -439z" />
    <glyph glyph-name="W" unicode="W" horiz-adv-x="815" 
d="M338 696h139l93 -439l93 439h139l-163 -696h-139l-93 439l-92 -439h-140l-162 696h139l93 -439z" />
    <glyph glyph-name="X" unicode="X" horiz-adv-x="491" 
d="M477 0h-139l-93 199l-93 -199h-139l162 348l-162 348h139l93 -199l93 199h139l-162 -348z" />
    <glyph glyph-name="Y" unicode="Y" horiz-adv-x="491" 
d="M316 0h-140v278l-162 418h139l93 -257l93 257h139l-162 -418v-278z" />
    <glyph glyph-name="Z" unicode="Z" horiz-adv-x="537" 
d="M499 557l-302 -418h302v-139h-464v139l302 418h-302v139h464v-139z" />
    <glyph glyph-name="bracketleft" unicode="[" horiz-adv-x="361" 
d="M326 557h-139v-418h139v-139h-278v696h278v-139z" />
    <glyph glyph-name="backslash" unicode="\" horiz-adv-x="370" 
d="M150 696l209 -696h-139l-209 696h139z" />
    <glyph glyph-name="bracketright" unicode="]" horiz-adv-x="361" 
d="M313 696v-696h-278v139h139v418h-139v139h278z" />
    <glyph glyph-name="asciicircum" unicode="^" horiz-adv-x="398" 
d="M257 696l127 -302h-116l-69 165l-70 -165h-116l128 302h116z" />
    <glyph glyph-name="underscore" unicode="_" horiz-adv-x="407" 
d="M29 0v139h348v-139h-348z" />
    <glyph glyph-name="grave" unicode="`" horiz-adv-x="222" 
d="M203 561h-104l-93 139h116z" />
    <glyph glyph-name="a" unicode="a" horiz-adv-x="435" 
d="M175 186q-14 0 -24.5 -9t-10.5 -26q0 -14 9.5 -24.5t25.5 -10.5h35q28 0 44.5 17.5t16.5 46.5v6h-96zM271 0v29q-14 -13 -32.5 -21t-36.5 -8h-27q-30 0 -57.5 12t-48.5 32.5t-33 48t-12 58.5t12 58.5t32.5 48t48 32.5t58.5 12h96q0 31 -16 49t-46 18q-36 0 -56 -38
l-115 48q23 51 69 82.5t102 31.5q40 0 74 -14.5t59 -40t39 -60.5t14 -76v-302h-124z" />
    <glyph glyph-name="b" unicode="b" horiz-adv-x="435" 
d="M287 302q0 25 -18 43t-43 18q-26 0 -44 -18t-18 -43v-117q0 -25 18 -43t44 -18q25 0 43 18t18 44v116zM164 458q34 29 83 29q35 0 65 -14t52 -38.5t34.5 -58.5t12.5 -74v-116q0 -40 -12.5 -74t-34.5 -59t-52 -39t-65 -14q-51 0 -83 29v-29h-124v696h124v-238z" />
    <glyph glyph-name="c" unicode="c" 
d="M271 307q-2 28 -18.5 45t-42.5 17t-44 -18t-18 -44v-127q0 -26 18 -44t44 -18t42.5 17.5t18.5 44.5h124q-1 -40 -15.5 -74t-39.5 -59t-58 -39t-72 -14t-72.5 14.5t-59 40t-40 59t-14.5 72.5v127q0 39 14.5 72.5t40 59t59 40t72.5 14.5t72 -14t58 -39t39.5 -59t15.5 -74
h-124z" />
    <glyph glyph-name="d" unicode="d" horiz-adv-x="435" 
d="M271 302q0 25 -18 43t-43 18q-26 0 -44 -18t-18 -43v-116q0 -26 18 -44t44 -18q25 0 43 18t18 43v117zM271 696h124v-696h-124v29q-32 -29 -83 -29q-35 0 -65 14t-52 39t-34.5 59t-12.5 74v116q0 40 12.5 74t34.5 58.5t52 38.5t65 14q49 0 83 -29v238z" />
    <glyph glyph-name="e" unicode="e" 
d="M273 303q0 31 -18 50.5t-47 19.5t-47.5 -19.5t-18.5 -50.5h131zM142 195v-15q0 -27 19.5 -46.5t46.5 -19.5q28 0 48 20l83 -85q-26 -27 -60 -41t-72 -14t-72 14.5t-59 40t-39.5 59.5t-14.5 72v127q0 39 14.5 72.5t40 59t59 40t72.5 14.5q38 0 72 -14.5t59 -40t39.5 -59
t14.5 -72.5v-112h-251z" />
    <glyph glyph-name="f" unicode="f" horiz-adv-x="343" 
d="M316 487v-124h-112v-363h-124v363h-54v124h54v20q0 39 15 73.5t40.5 60t60.5 40.5t74 15h46v-124h-46q-28 0 -47 -19t-19 -46v-20h112z" />
    <glyph glyph-name="g" unicode="g" horiz-adv-x="435" 
d="M273 302q0 25 -18 43t-43 18q-26 0 -44 -18t-18 -44v-115q0 -26 18 -44t44 -18q25 0 43 18t18 43v117zM397 -23q0 -38 -14.5 -72t-39.5 -59.5t-59 -40t-72 -14.5q-75 0 -133 56l88 88q20 -20 45 -20t43 18t18 44v52q-33 -29 -83 -29q-35 0 -65 14t-52 39t-34.5 59
t-12.5 74v115q0 40 12.5 74t34 59t51.5 39t64 14q53 0 85 -29v29h124v-510z" />
    <glyph glyph-name="h" unicode="h" horiz-adv-x="454" 
d="M288 0v302q0 25 -18 43t-43 18q-26 0 -44 -18t-18 -43v-302h-124v696h124v-238q33 29 85 29q35 0 64.5 -14t51 -39t34 -59t12.5 -73v-302h-124z" />
    <glyph glyph-name="i" unicode="i" horiz-adv-x="204" 
d="M40 572v124h124v-124h-124zM40 0v487h124v-487h-124z" />
    <glyph glyph-name="j" unicode="j" horiz-adv-x="204" 
d="M40 572v124h124v-124h-124zM164 -23q0 -39 -15 -72.5t-40.5 -59t-60.5 -40t-74 -14.5v124q28 0 47 18t19 44v510h124v-510z" />
    <glyph glyph-name="k" unicode="k" horiz-adv-x="472" 
d="M322 487h132l-160 -189l166 -298h-132l-112 207l-49 -58v-149h-120v696h120v-392z" />
    <glyph glyph-name="l" unicode="l" horiz-adv-x="231" 
d="M164 696v-506q0 -14 6 -26t15.5 -21t21.5 -14t23 -5v-124q-39 0 -74 15.5t-60.5 41.5t-40.5 60.5t-15 72.5v506h124z" />
    <glyph glyph-name="m" unicode="m" horiz-adv-x="704" 
d="M540 0v299q0 28 -18.5 46t-44.5 18q-27 0 -45.5 -18.5t-18.5 -45.5v-299h-124v299q0 26 -18.5 45t-44.5 19t-45 -19t-19 -45v-299h-124v487h124v-29q33 29 82 29q35 0 66.5 -13t54.5 -38q53 51 123 51q33 0 68.5 -13.5t67.5 -50.5q23 -26 31.5 -54.5t8.5 -67.5v-301h-124
z" />
    <glyph glyph-name="n" unicode="n" horiz-adv-x="454" 
d="M288 0v301q0 29 -18 45.5t-43 16.5q-26 0 -44 -18t-18 -43v-302h-124v487h124v-29q34 29 85 29q35 0 64.5 -13.5t51 -38t34 -58.5t12.5 -76v-301h-124z" />
    <glyph glyph-name="o" unicode="o" 
d="M147 180q0 -26 18 -44t44 -18q25 0 43 18t18 44v127q0 26 -18 44t-43 18q-26 0 -44 -18t-18 -44v-127zM394 180q0 -38 -14.5 -72t-39.5 -59.5t-59 -40t-72 -14.5q-39 0 -72.5 14.5t-59 40t-40 59.5t-14.5 72v127q0 39 14.5 72.5t40 59t59 40t72.5 14.5q38 0 72 -14.5
t59 -40t39.5 -59t14.5 -72.5v-127z" />
    <glyph glyph-name="p" unicode="p" horiz-adv-x="435" 
d="M287 301q0 26 -18 44t-43 18q-26 0 -44 -18t-18 -43v-117q0 -25 18 -43t44 -18q25 0 43 18t18 44v115zM164 458q34 29 83 29q35 0 65 -14t52 -39t34.5 -59t12.5 -74v-115q0 -40 -12.5 -74t-34.5 -59t-52 -39t-65 -14q-50 0 -83 29v-238h-124v696h124v-29z" />
    <glyph glyph-name="q" unicode="q" horiz-adv-x="435" 
d="M271 302q0 25 -18 43t-43 18q-26 0 -44 -18t-18 -44v-115q0 -26 18 -44t44 -18q25 0 43 18t18 43v117zM271 487h124v-696h-124v238q-33 -29 -83 -29q-35 0 -65 14t-52 39t-34.5 59t-12.5 74v115q0 40 12.5 74t34.5 59t52 39t65 14q49 0 83 -29v29z" />
    <glyph glyph-name="r" unicode="r" horiz-adv-x="370" 
d="M40 0v487h124v-29q35 29 79 29q32 0 62 -13.5t53 -38.5l-89 -90q-19 18 -43 18q-26 0 -44 -18t-18 -43v-302h-124z" />
    <glyph glyph-name="s" unicode="s" horiz-adv-x="343" 
d="M124 146q6 -13 17 -21t22 -8q12 0 20.5 7t8.5 18q0 12 -19 25l-76 50q-30 20 -53 52t-23 76q0 31 12 58t33 47t49.5 31.5t61.5 11.5q51 0 90 -28t60 -79l-113 -44q-14 29 -40 29q-11 0 -19.5 -7.5t-8.5 -18.5q0 -12 19 -25l76 -50q38 -25 57 -55.5t19 -72.5
q0 -31 -12 -57.5t-33 -46.5t-49.5 -31.5t-61.5 -11.5q-48 0 -88 27.5t-62 78.5z" />
    <glyph glyph-name="t" unicode="t" horiz-adv-x="343" 
d="M80 696h124v-209h112v-124h-112v-169q0 -34 18.5 -52t47.5 -18h46v-124h-46q-44 0 -79 16.5t-60 42.5t-38 59.5t-13 67.5v177h-54v124h54v209z" />
    <glyph glyph-name="u" unicode="u" horiz-adv-x="454" 
d="M165 487v-301q0 -26 19.5 -44t42.5 -18q25 0 43 18t18 43v302h124v-487h-124v29q-34 -29 -85 -29q-41 0 -71.5 17.5t-50.5 44.5t-30 60t-10 64v301h124z" />
    <glyph glyph-name="v" unicode="v" horiz-adv-x="398" 
d="M261 487h124l-116 -487h-139l-116 487h124l62 -287z" />
    <glyph glyph-name="w" unicode="w" horiz-adv-x="657" 
d="M131 0l-116 487h124l66 -309l61 309h124l61 -309l66 309h124l-116 -487h-143l-54 273l-54 -273h-143z" />
    <glyph glyph-name="x" unicode="x" horiz-adv-x="463" 
d="M11 487h128l93 -144l93 144h128l-157 -243l157 -244h-128l-93 144l-93 -144h-128l157 244z" />
    <glyph glyph-name="y" unicode="y" horiz-adv-x="463" 
d="M323 487h124l-178 -558q-23 -71 -65.5 -103t-116.5 -35v124q33 1 47 12t24 43l9 27l-151 490h124l90 -310z" />
    <glyph glyph-name="z" unicode="z" 
d="M233 363h-210v124h371v-124l-210 -239h210v-124h-371v124z" />
    <glyph glyph-name="braceleft" unicode="{" horiz-adv-x="268" 
d="M185 441q0 -25 -8 -49t-23 -44q16 -19 23.5 -43.5t7.5 -49.5v-81q0 -24 16 -40t42 -18v-116q-37 0 -69 14.5t-55.5 39t-36.5 56t-13 64.5v81q0 17 -10 26t-25 9h-11v116h11q15 0 25 10.5t10 24.5v81q0 38 15 70t39.5 55t56 36t63.5 13v-116q-26 -2 -42 -18.5t-16 -39.5
v-81z" />
    <glyph glyph-name="bar" unicode="|" horiz-adv-x="241" 
d="M51 -209v905h139v-905h-139z" />
    <glyph glyph-name="braceright" unicode="}" horiz-adv-x="268" 
d="M83 255q0 50 31 93q-31 43 -31 93v81q0 26 -16 41t-42 17v116q29 0 60 -11.5t56.5 -33.5t41.5 -54.5t16 -74.5v-81q0 -14 10 -24.5t25 -10.5h11v-116h-11q-15 0 -25 -10.5t-10 -24.5v-81q0 -42 -16 -74.5t-41 -54.5t-56 -33.5t-61 -11.5v116q26 2 42 18t16 40v81z" />
    <glyph glyph-name="asciitilde" unicode="~" horiz-adv-x="343" 
d="M13 587q17 31 45.5 50.5t64.5 19.5q9 0 16 -1t15.5 -3.5t18.5 -7t25 -12.5q5 -2 11 -4t11 -2q24 0 38 26l72 -37q-34 -70 -111 -70q-19 0 -35 5.5t-39 18.5q-5 3 -11 4t-11 1q-22 0 -38 -25z" />
    <glyph glyph-name="exclamdown" unicode="&#xa1;" horiz-adv-x="204" 
d="M32 -209l23 464h93l23 -464h-139zM171 348h-139v139h139v-139z" />
    <glyph glyph-name="cent" unicode="&#xa2;" horiz-adv-x="444" 
d="M225 481q-37 -1 -60.5 -23.5t-23.5 -57.5v-104q0 -26 16 -48zM324 569q45 -26 70 -71t25 -98h-116q0 27 -15 48l-69 -233q35 0 59.5 23t24.5 58h116q-1 -42 -16.5 -78.5t-41.5 -62.5t-61.5 -41t-76.5 -15q-9 0 -17.5 0.5t-19.5 2.5l-32 -109l-67 19l34 115
q-45 26 -70.5 71.5t-25.5 97.5v104q0 41 15.5 76.5t42 62.5t62.5 42.5t76 15.5q8 0 16 -0.5t21 -2.5l32 109l67 -20z" />
    <glyph glyph-name="sterling" unicode="&#xa3;" horiz-adv-x="463" 
d="M235 286q3 -17 4 -26.5t1 -18.5q0 -56 -31 -103q17 0 29 -2t27 -8q20 -8 28.5 -9.5t16.5 -1.5q24 0 41 9.5t31 30.5l75 -91q-61 -73 -146 -73q-11 0 -20 1t-19.5 4t-23.5 8.5t-33 14.5q-18 9 -39 9q-20 0 -36 -8.5t-34 -28.5l-71 86q81 69 81 172q0 8 -1 15t-3 20h-86
v124h56q-21 74 -21 116q0 36 15 68.5t40.5 57t59.5 38.5t72 14q39 0 71.5 -13.5t57 -38t39 -59t16.5 -75.5h-124q-2 28 -19 45t-43 17q-27 0 -44 -18t-17 -47q0 -23 4 -47t14 -58h113v-124h-81z" />
    <glyph glyph-name="yen" unicode="&#xa5;" horiz-adv-x="491" 
d="M316 279v-23h127v-70h-127v-186h-140v186h-127v70h127v23l-18 45h-109v70h82l-117 302h139l93 -257l93 257h139l-117 -302h82v-70h-109z" />
    <glyph glyph-name="section" unicode="&#xa7;" horiz-adv-x="509" 
d="M330 169q8 8 12.5 21t4.5 26q0 26 -13.5 42t-36.5 24q-29 11 -59 21.5t-59 21.5q-17 -19 -17 -47q0 -22 13.5 -40t36.5 -26t56 -20t62 -23zM168 93q-63 22 -98.5 71.5t-35.5 113.5q0 36 13 70t36 61q-26 47 -26 97q0 41 15.5 77t42.5 62.5t63 42t76 15.5q41 0 76.5 -15
t62 -41t42.5 -62.5t17 -78.5h-128q-2 31 -21.5 50t-48.5 19t-49.5 -20t-20.5 -49q0 -49 52 -68l105 -37q63 -22 98.5 -70.5t35.5 -114.5q0 -36 -13 -70t-36 -61q13 -20 19.5 -45.5t6.5 -51.5q0 -41 -15.5 -76.5t-42.5 -62.5t-62.5 -42.5t-76.5 -15.5q-40 0 -76 15.5
t-63 42.5t-43 62.5t-16 76.5h128q2 -31 22 -50t47 -19q29 0 49.5 20t20.5 49q0 27 -13.5 43.5t-37.5 24.5z" />
    <glyph glyph-name="dieresis" unicode="&#xa8;" horiz-adv-x="324" 
d="M185 565v116h116v-116h-116zM23 565v116h116v-116h-116z" />
    <glyph glyph-name="copyright" unicode="&#xa9;" horiz-adv-x="768" 
d="M390 668q-68 0 -127 -25t-103 -67.5t-69.5 -100.5t-25.5 -124q0 -67 25 -126t68.5 -102.5t101.5 -68.5t125 -25q66 0 124 25t101.5 68.5t68.5 102t25 124.5q0 65 -25 123t-68 101.5t-100 69t-121 25.5zM390 704q72 0 135.5 -28.5t111 -77t75.5 -113t28 -136.5
q0 -74 -28 -139t-76 -113t-112.5 -76t-138.5 -28t-139 28t-113 76.5t-76 114t-28 139.5t28.5 138t77 112t114.5 75.5t141 27.5zM451 430q0 29 -19 47.5t-47 18.5t-47.5 -19.5t-19.5 -46.5v-164q0 -28 19.5 -47t47.5 -19t47 19t19 48h100q0 -34 -13.5 -64.5t-36 -53.5
t-53 -36t-63.5 -13q-34 0 -64.5 13.5t-53.5 36t-36 52.5t-13 64v164q0 35 13 65t36 52.5t53.5 35.5t64.5 13q35 0 65 -13.5t52.5 -36t35.5 -52.5t13 -64h-100z" />
    <glyph glyph-name="ordfeminine" unicode="&#xaa;" horiz-adv-x="278" 
d="M124 519q-9 0 -15.5 -6t-6.5 -15q0 -8 6.5 -14.5t15.5 -6.5h14q16 0 25.5 10t9.5 29v3h-49zM173 408v16q-9 -9 -20.5 -12.5t-23.5 -3.5h-12q-38 0 -64.5 26.5t-26.5 63.5q0 22 8.5 39t22 28.5t29.5 17.5t31 6h56q-1 16 -10.5 25.5t-24.5 9.5q-23 0 -33 -24l-70 33
q16 31 42 49t61 18q24 0 44 -9t35 -24t23.5 -35t8.5 -43v-181h-76zM249 282h-220v82h220v-82z" />
    <glyph glyph-name="guillemotleft" unicode="&#xab;" horiz-adv-x="546" 
d="M533 0h-140l-185 244l185 243h140l-186 -243zM335 0h-139l-185 244l185 243h139l-185 -243z" />
    <glyph glyph-name="logicalnot" unicode="&#xac;" horiz-adv-x="528" 
d="M354 164v232h-325v139h464v-371h-139z" />
    <glyph glyph-name="registered" unicode="&#xae;" horiz-adv-x="768" 
d="M390 668q-68 0 -127 -25t-103 -67.5t-69.5 -100.5t-25.5 -124q0 -67 25 -126t68.5 -102.5t101.5 -68.5t125 -25q66 0 124 25t101.5 68.5t68.5 102t25 124.5q0 65 -25 123t-68 101.5t-100 69t-121 25.5zM390 704q72 0 135.5 -28.5t111 -77t75.5 -113t28 -136.5
q0 -74 -28 -139t-76 -113t-112.5 -76t-138.5 -28t-139 28t-113 76.5t-76 114t-28 139.5t28.5 138t77 112t114.5 75.5t141 27.5zM402 368q26 0 45 18t19 43t-19 43t-45 18h-68v-122h68zM567 104h-101l-58 162h-6h-68v-162h-102v488h170q34 0 64 -13t52.5 -35t35.5 -51.5
t13 -63.5q0 -40 -18 -74.5t-50 -57.5z" />
    <glyph glyph-name="macron" unicode="&#xaf;" horiz-adv-x="343" 
d="M320 563h-298v82h298v-82z" />
    <glyph glyph-name="degree" unicode="&#xb0;" horiz-adv-x="241" 
d="M122 685q-20 0 -34 -13.5t-14 -32.5t13.5 -33t33.5 -14t33.5 13.5t13.5 33.5t-14.5 33t-31.5 13zM123 731q18 0 34.5 -7t29 -19.5t20 -29.5t7.5 -36t-7 -36t-20 -29.5t-29.5 -20t-36.5 -7.5q-39 0 -66 27.5t-27 66.5q0 38 27.5 64.5t67.5 26.5z" />
    <glyph glyph-name="plusminus" unicode="&#xb1;" horiz-adv-x="528" 
d="M496 235v-139h-464v139h464zM194 606h140v-99h162v-139h-162v-98h-140v98h-162v139h162v99z" />
    <glyph glyph-name="acute" unicode="&#xb4;" horiz-adv-x="222" 
d="M215 700l-92 -139h-105l81 139h116z" />
    <glyph glyph-name="mu" unicode="&#xb5;" horiz-adv-x="491" 
d="M482 0q-38 0 -72 13t-57 34q-20 -23 -49.5 -35t-59.5 -12q-23 0 -43.5 7.5t-35.5 21.5v-238h-124v696h124v-302q0 -25 18 -43t44 -18q25 0 43 18t18 44v301h124v-299q0 -26 20.5 -45t49.5 -19v-124z" />
    <glyph glyph-name="mu" unicode="&#x3bc;" horiz-adv-x="491" 
d="M482 0q-38 0 -72 13t-57 34q-20 -23 -49.5 -35t-59.5 -12q-23 0 -43.5 7.5t-35.5 21.5v-238h-124v696h124v-302q0 -25 18 -43t44 -18q25 0 43 18t18 44v301h124v-299q0 -26 20.5 -45t49.5 -19v-124z" />
    <glyph glyph-name="paragraph" unicode="&#xb6;" horiz-adv-x="500" 
d="M232 278q-44 1 -82.5 17.5t-66.5 44.5t-44 66t-16 81t16.5 81t45 66.5t66.5 45t81 16.5h232v-905h-81v824h-70v-824h-81v487z" />
    <glyph glyph-name="periodcentered" unicode="&#xb7;" horiz-adv-x="222" 
d="M113 435q17 0 32.5 -7t27 -18.5t18.5 -27.5t7 -34q0 -36 -25.5 -61.5t-61.5 -25.5t-61.5 25.5t-25.5 62.5q0 36 25.5 61t63.5 25z" />
    <glyph glyph-name="cedilla" unicode="&#xb8;" horiz-adv-x="176" 
d="M94 -27q26 -8 41.5 -29t15.5 -48q0 -36 -23.5 -59t-58.5 -23h-46v58h46q11 0 17.5 6.5t6.5 16.5q0 24 -24 24h-46l16 106h63z" />
    <glyph glyph-name="ordmasculine" unicode="&#xba;" horiz-adv-x="278" 
d="M248 282h-219v82h219v-82zM110 515q0 -12 8.5 -20.5t20.5 -8.5q11 0 19.5 8.5t8.5 20.5v75q0 12 -8.5 20.5t-19.5 8.5q-12 0 -20.5 -8.5t-8.5 -20.5v-75zM248 515q0 -23 -8.5 -43t-23.5 -35t-34.5 -23.5t-42.5 -8.5t-43 8.5t-35 23.5t-23.5 35t-8.5 43v75q0 23 8.5 43
t23.5 35t35 23.5t43 8.5t42.5 -8.5t34.5 -23.5t23.5 -35t8.5 -43v-75z" />
    <glyph glyph-name="guillemotright" unicode="&#xbb;" horiz-adv-x="546" 
d="M14 487h139l185 -243l-185 -244h-139l185 244zM211 487h139l186 -243l-186 -244h-139l185 244z" />
    <glyph glyph-name="questiondown" unicode="&#xbf;" horiz-adv-x="481" 
d="M171 348v139h139v-139h-139zM310 255q0 -33 -12.5 -73t-47.5 -75l-58 -58q-11 -11 -16 -23.5t-5 -24.5v-11q0 -28 20.5 -47.5t49.5 -19.5t49 19.5t20 48.5h140q0 -43 -16.5 -80.5t-44.5 -65.5t-66 -44.5t-82 -16.5q-43 0 -81 16.5t-66.5 44.5t-45 65.5t-16.5 79.5v11
q0 37 14 75t47 71l58 58q11 11 15.5 22.5t4.5 27.5h139z" />
    <glyph glyph-name="Agrave" unicode="&#xc0;" horiz-adv-x="630" 
d="M407 769h-104l-93 140h116zM315 506l-70 -228h139zM199 139l-47 -139h-139l232 696h139l232 -696h-139l-46 139h-232z" />
    <glyph glyph-name="Aacute" unicode="&#xc1;" horiz-adv-x="630" 
d="M419 909l-92 -140h-105l81 140h116zM315 506l-70 -228h139zM199 139l-47 -139h-139l232 696h139l232 -696h-139l-46 139h-232z" />
    <glyph glyph-name="Acircumflex" unicode="&#xc2;" horiz-adv-x="630" 
d="M463 769h-104l-44 66l-44 -66h-105l81 140h135zM315 506l-70 -228h139zM199 139l-47 -139h-139l232 696h139l232 -696h-139l-46 139h-232z" />
    <glyph glyph-name="Atilde" unicode="&#xc3;" horiz-adv-x="630" 
d="M146 796q19 34 48 52t62 18q19 0 33.5 -5t41.5 -19l10 -4t10 -2q26 0 39 25l72 -36q-18 -35 -45 -52.5t-65 -17.5q-19 0 -33.5 4.5t-41.5 19.5q-10 5 -21 5q-24 0 -38 -26zM315 506l-70 -228h139zM199 139l-47 -139h-139l232 696h139l232 -696h-139l-46 139h-232z" />
    <glyph glyph-name="Adieresis" unicode="&#xc4;" horiz-adv-x="630" 
d="M338 774v116h116v-116h-116zM175 774v116h116v-116h-116zM315 506l-70 -228h139zM199 139l-47 -139h-139l232 696h139l232 -696h-139l-46 139h-232z" />
    <glyph glyph-name="Aring" unicode="&#xc5;" horiz-adv-x="630" 
d="M315 894q-20 0 -33.5 -13.5t-13.5 -33.5q0 -19 13.5 -33t33.5 -14q19 0 32.5 13.5t13.5 33.5t-13.5 33.5t-32.5 13.5zM316 940q19 0 35.5 -7.5t29 -20t19.5 -29.5t7 -36t-7 -36t-19.5 -29.5t-29.5 -20t-36 -7.5q-39 0 -66 27.5t-27 66.5q0 19 7.5 36t20 29.5t30 19.5
t36.5 7zM315 506l-70 -228h139zM199 139l-47 -139h-139l232 696h139l232 -696h-139l-46 139h-232z" />
    <glyph glyph-name="AE" unicode="&#xc6;" horiz-adv-x="907" 
d="M412 278v279h-75l-92 -279h167zM152 0h-139l232 696h631v-139h-324v-139h255v-140h-255v-139h324v-139h-464v139h-214z" />
    <glyph glyph-name="Ccedilla" unicode="&#xc7;" horiz-adv-x="537" 
d="M234 -4q-42 6 -78.5 27t-62.5 52t-41 69.5t-15 80.5v246q0 48 18.5 90.5t50 74t73.5 49.5t90 18t90.5 -18t74 -49t49.5 -73.5t18 -91.5h-139q0 42 -26.5 67.5t-66.5 25.5q-19 0 -36 -7.5t-29.5 -20t-20 -29.5t-7.5 -36v-246q0 -19 7.5 -36t20 -29.5t29.5 -20t36 -7.5
q39 0 66 27t27 66h139q0 -44 -15.5 -84t-43.5 -70.5t-65 -50.5t-81 -25l-3 -22q26 -8 41.5 -27.5t15.5 -49.5q0 -17 -6.5 -31.5t-17.5 -26t-26.5 -18t-32.5 -6.5h-45v58h46q11 0 17.5 6.5t6.5 16.5q0 13 -7 18.5t-17 5.5h-46z" />
    <glyph glyph-name="Egrave" unicode="&#xc8;" horiz-adv-x="546" 
d="M366 769h-104l-93 140h116zM513 696v-139h-325v-139h255v-140h-255v-139h325v-139h-464v696h464z" />
    <glyph glyph-name="Eacute" unicode="&#xc9;" horiz-adv-x="546" 
d="M378 909l-93 -140h-104l81 140h116zM513 696v-139h-325v-139h255v-140h-255v-139h325v-139h-464v696h464z" />
    <glyph glyph-name="Ecircumflex" unicode="&#xca;" horiz-adv-x="546" 
d="M513 696v-139h-325v-139h255v-140h-255v-139h325v-139h-464v696h464zM422 769h-104l-44 66l-44 -66h-105l82 140h134z" />
    <glyph glyph-name="Edieresis" unicode="&#xcb;" horiz-adv-x="546" 
d="M298 774v116h116v-116h-116zM135 774v116h116v-116h-116zM513 696v-139h-325v-139h255v-140h-255v-139h325v-139h-464v696h464z" />
    <glyph glyph-name="Igrave" unicode="&#xcc;" horiz-adv-x="241" 
d="M51 0v696h139v-696h-139zM213 769h-104l-93 140h116z" />
    <glyph glyph-name="Iacute" unicode="&#xcd;" horiz-adv-x="241" 
d="M51 0v696h139v-696h-139zM225 909l-92 -140h-105l81 140h116z" />
    <glyph glyph-name="Icircumflex" unicode="&#xce;" horiz-adv-x="241" 
d="M51 0v696h139v-696h-139zM269 769h-104l-44 66l-44 -66h-105l81 140h135z" />
    <glyph glyph-name="Idieresis" unicode="&#xcf;" horiz-adv-x="241" 
d="M51 0v696h139v-696h-139zM143 774v116h116v-116h-116zM-19 774v116h116v-116h-116z" />
    <glyph glyph-name="Ntilde" unicode="&#xd1;" horiz-adv-x="565" 
d="M122 796q15 32 45 51t65 19q10 0 18 -1t16 -4t18 -7.5t23 -11.5q5 -2 10.5 -4t10.5 -2q25 0 38 25l72 -36q-18 -35 -45 -52.5t-65 -17.5q-17 0 -29 3.5t-27 11.5q-12 7 -22.5 11t-17.5 4q-22 0 -38 -27zM189 0h-139v696h139l186 -414v414h139v-696h-139l-186 414v-414z
" />
    <glyph glyph-name="Ograve" unicode="&#xd2;" horiz-adv-x="537" 
d="M361 769h-105l-93 140h116zM175 225q0 -19 7.5 -36t20 -29.5t29.5 -20t36 -7.5t36 7.5t29.5 20t20 29.5t7.5 36v246q0 20 -7.5 36.5t-20 29.5t-29.5 20t-36 7t-36 -7t-29.5 -20t-20 -29.5t-7.5 -36.5v-246zM500 225q0 -48 -18 -90t-49.5 -73.5t-74 -50t-90.5 -18.5
t-90 18.5t-73.5 50t-50 73.5t-18.5 90v246q0 48 18.5 90.5t50 74t73.5 49.5t90 18t90.5 -18t74 -49.5t49.5 -74t18 -90.5v-246z" />
    <glyph glyph-name="Oacute" unicode="&#xd3;" horiz-adv-x="537" 
d="M373 909l-93 -140h-105l82 140h116zM175 225q0 -19 7.5 -36t20 -29.5t29.5 -20t36 -7.5t36 7.5t29.5 20t20 29.5t7.5 36v246q0 20 -7.5 36.5t-20 29.5t-29.5 20t-36 7t-36 -7t-29.5 -20t-20 -29.5t-7.5 -36.5v-246zM500 225q0 -48 -18 -90t-49.5 -73.5t-74 -50
t-90.5 -18.5t-90 18.5t-73.5 50t-50 73.5t-18.5 90v246q0 48 18.5 90.5t50 74t73.5 49.5t90 18t90.5 -18t74 -49.5t49.5 -74t18 -90.5v-246z" />
    <glyph glyph-name="Ocircumflex" unicode="&#xd4;" horiz-adv-x="537" 
d="M175 225q0 -19 7.5 -36t20 -29.5t29.5 -20t36 -7.5t36 7.5t29.5 20t20 29.5t7.5 36v246q0 20 -7.5 36.5t-20 29.5t-29.5 20t-36 7t-36 -7t-29.5 -20t-20 -29.5t-7.5 -36.5v-246zM500 225q0 -48 -18 -90t-49.5 -73.5t-74 -50t-90.5 -18.5t-90 18.5t-73.5 50t-50 73.5
t-18.5 90v246q0 48 18.5 90.5t50 74t73.5 49.5t90 18t90.5 -18t74 -49.5t49.5 -74t18 -90.5v-246zM417 769h-105l-44 66l-44 -66h-105l82 140h134z" />
    <glyph glyph-name="Otilde" unicode="&#xd5;" horiz-adv-x="537" 
d="M110 796q19 34 48 52t62 18q9 0 16 -1t15 -3.5t18.5 -7t25.5 -12.5q5 -2 10.5 -4t10.5 -2q26 0 39 25l71 -36q-17 -35 -45.5 -53t-64.5 -18q-19 0 -33.5 5t-40.5 20q-9 5 -22 5q-24 0 -38 -26zM175 225q0 -19 7.5 -36t20 -29.5t29.5 -20t36 -7.5t36 7.5t29.5 20t20 29.5
t7.5 36v246q0 20 -7.5 36.5t-20 29.5t-29.5 20t-36 7t-36 -7t-29.5 -20t-20 -29.5t-7.5 -36.5v-246zM500 225q0 -48 -18 -90t-49.5 -73.5t-74 -50t-90.5 -18.5t-90 18.5t-73.5 50t-50 73.5t-18.5 90v246q0 48 18.5 90.5t50 74t73.5 49.5t90 18t90.5 -18t74 -49.5t49.5 -74
t18 -90.5v-246z" />
    <glyph glyph-name="Odieresis" unicode="&#xd6;" horiz-adv-x="537" 
d="M291 774v116h116v-116h-116zM129 774v116h116v-116h-116zM175 225q0 -19 7.5 -36t20 -29.5t29.5 -20t36 -7.5t36 7.5t29.5 20t20 29.5t7.5 36v246q0 20 -7.5 36.5t-20 29.5t-29.5 20t-36 7t-36 -7t-29.5 -20t-20 -29.5t-7.5 -36.5v-246zM500 225q0 -48 -18 -90
t-49.5 -73.5t-74 -50t-90.5 -18.5t-90 18.5t-73.5 50t-50 73.5t-18.5 90v246q0 48 18.5 90.5t50 74t73.5 49.5t90 18t90.5 -18t74 -49.5t49.5 -74t18 -90.5v-246z" />
    <glyph glyph-name="Oslash" unicode="&#xd8;" horiz-adv-x="537" 
d="M198 164q29 -32 70 -32q19 0 36 7.5t29.5 20t20 29.5t7.5 36v210zM338 532q-29 32 -70 32q-19 0 -36 -7.5t-29.5 -20t-20 -29.5t-7.5 -36v-210zM441 703l59 -37l-39 -65q39 -61 39 -130v-246q0 -48 -18 -90t-49.5 -73.5t-74 -50t-90.5 -18.5q-78 0 -143 49l-30 -49
l-59 36l40 66q-40 60 -40 130v246q0 48 18.5 90.5t50 74t73.5 49.5t90 18q40 0 74.5 -11.5t68.5 -37.5z" />
    <glyph glyph-name="Ugrave" unicode="&#xd9;" horiz-adv-x="565" 
d="M375 769h-105l-93 140h116zM514 696v-471q0 -48 -18 -90t-49.5 -73.5t-74 -50t-90.5 -18.5t-90 18.5t-73.5 50t-50 73.5t-18.5 90v471h139v-471q0 -19 7.5 -36t20 -29.5t29.5 -20t36 -7.5t36 7.5t29.5 20t20 29.5t7.5 36v471h139z" />
    <glyph glyph-name="Uacute" unicode="&#xda;" horiz-adv-x="565" 
d="M387 909l-93 -140h-105l82 140h116zM514 696v-471q0 -48 -18 -90t-49.5 -73.5t-74 -50t-90.5 -18.5t-90 18.5t-73.5 50t-50 73.5t-18.5 90v471h139v-471q0 -19 7.5 -36t20 -29.5t29.5 -20t36 -7.5t36 7.5t29.5 20t20 29.5t7.5 36v471h139z" />
    <glyph glyph-name="Ucircumflex" unicode="&#xdb;" horiz-adv-x="565" 
d="M514 696v-471q0 -48 -18 -90t-49.5 -73.5t-74 -50t-90.5 -18.5t-90 18.5t-73.5 50t-50 73.5t-18.5 90v471h139v-471q0 -19 7.5 -36t20 -29.5t29.5 -20t36 -7.5t36 7.5t29.5 20t20 29.5t7.5 36v471h139zM431 769h-105l-44 66l-44 -66h-105l82 140h134z" />
    <glyph glyph-name="Udieresis" unicode="&#xdc;" horiz-adv-x="565" 
d="M305 774v116h116v-116h-116zM143 774v116h116v-116h-116zM514 696v-471q0 -48 -18 -90t-49.5 -73.5t-74 -50t-90.5 -18.5t-90 18.5t-73.5 50t-50 73.5t-18.5 90v471h139v-471q0 -19 7.5 -36t20 -29.5t29.5 -20t36 -7.5t36 7.5t29.5 20t20 29.5t7.5 36v471h139z" />
    <glyph glyph-name="germandbls" unicode="&#xdf;" horiz-adv-x="454" 
d="M180 449h42q26 0 45 19t19 46t-18.5 46t-45.5 19t-46 -19.5t-19 -45.5v-514h-124v514q0 38 15 72.5t40.5 60.5t59.5 41t73 15t73.5 -15t60 -40.5t40.5 -60t15 -73.5q0 -64 -45 -112q31 -25 47 -63t16 -82v-64q0 -41 -14 -76.5t-38.5 -61.5t-58.5 -40.5t-73 -14.5
q-45 0 -80 18l42 117q20 -11 37 -11q28 0 44.5 19t16.5 50v64q0 35 -18.5 51.5t-53.5 16.5h-52v124z" />
    <glyph glyph-name="agrave" unicode="&#xe0;" horiz-adv-x="435" 
d="M310 561h-104l-93 139h116zM175 186q-14 0 -24.5 -10t-10.5 -25q0 -14 10.5 -24.5t24.5 -10.5h35q27 0 44 17.5t17 46.5v6h-96zM271 0v29q-15 -14 -33.5 -21.5t-35.5 -7.5h-27q-30 0 -57.5 12t-48.5 32.5t-33 48t-12 58.5t12 58.5t32.5 48t48 32.5t58.5 12h96
q0 33 -17 50t-45 17q-36 0 -56 -38l-115 48q26 54 72 84t99 30q29 0 61.5 -10.5t60 -34t46 -59.5t18.5 -87v-302h-124z" />
    <glyph glyph-name="aacute" unicode="&#xe1;" horiz-adv-x="435" 
d="M322 700l-93 -139h-104l81 139h116zM175 186q-14 0 -24.5 -9.5t-10.5 -25.5q0 -14 10.5 -24.5t24.5 -10.5h35q27 0 44 17.5t17 46.5v6h-96zM271 0v29q-14 -14 -33.5 -21.5t-35.5 -7.5h-27q-30 0 -57.5 12t-48.5 32.5t-33 48t-12 58.5t12 58.5t32.5 48t48 32.5t58.5 12h96
q0 31 -15.5 49t-46.5 18q-36 0 -56 -38l-115 48q24 51 69 82.5t102 31.5q40 0 74 -14.5t59 -40t39 -60.5t14 -76v-302h-124z" />
    <glyph glyph-name="acircumflex" unicode="&#xe2;" horiz-adv-x="435" 
d="M175 186q-14 0 -24.5 -9t-10.5 -26q0 -14 10 -24.5t25 -10.5h35q27 0 44 17.5t17 46.5v6h-96zM271 0v29q-32 -29 -69 -29h-27q-31 0 -58.5 12t-48 32.5t-32.5 48t-12 58.5q0 33 12.5 60.5t33 47.5t48 31.5t57.5 11.5h96q0 32 -17 49.5t-45 17.5q-36 0 -56 -38l-115 48
q23 51 70 82.5t101 31.5q25 0 57 -9.5t60.5 -31.5t48.5 -58.5t20 -91.5v-302h-124zM366 561h-104l-44 66l-44 -66h-105l81 139h135z" />
    <glyph glyph-name="atilde" unicode="&#xe3;" horiz-adv-x="435" 
d="M59 587q19 35 48 52.5t62 17.5q8 0 15.5 -1t15.5 -3.5t18.5 -7t25.5 -12.5q5 -2 10.5 -4t10.5 -2q25 0 39 26l71 -37q-34 -70 -110 -70q-19 0 -33.5 4.5t-40.5 19.5q-10 6 -22 6q-10 0 -20 -6t-17 -20zM175 186q-14 0 -24.5 -9.5t-10.5 -25.5q0 -14 10.5 -24.5
t24.5 -10.5h35q27 0 44 17.5t17 46.5v6h-96zM271 0v29q-29 -29 -69 -29h-27q-31 0 -58.5 12t-48 33t-32.5 48.5t-12 57.5q0 31 12 58.5t32.5 48t48 32.5t58.5 12h96q0 33 -17 50t-45 17q-36 0 -56 -38l-115 48q26 54 71.5 84t99.5 30q27 0 59.5 -10.5t60.5 -33t47 -59
t19 -88.5v-302h-124z" />
    <glyph glyph-name="adieresis" unicode="&#xe4;" horiz-adv-x="435" 
d="M241 565v116h116v-116h-116zM78 565v116h116v-116h-116zM175 186q-14 0 -24.5 -9.5t-10.5 -25.5q0 -14 10.5 -24.5t24.5 -10.5h35q27 0 44 17.5t17 46.5v6h-96zM271 0v29q-12 -12 -32 -20.5t-37 -8.5h-27q-31 0 -58.5 12t-48 32.5t-32.5 48t-12 58.5t12 58.5t32.5 48
t48 32.5t58.5 12h96q0 33 -17 50t-45 17q-36 0 -56 -38l-115 48q23 51 69 82.5t102 31.5q29 0 61.5 -10.5t60.5 -33.5t46 -59.5t18 -87.5v-302h-124z" />
    <glyph glyph-name="aring" unicode="&#xe5;" horiz-adv-x="435" 
d="M217 686q-20 0 -33.5 -13.5t-13.5 -33.5q0 -19 13.5 -33t33.5 -14q19 0 32.5 13.5t13.5 33.5t-13.5 33.5t-32.5 13.5zM218 732q19 0 35.5 -7.5t29 -20t19.5 -29.5t7 -36t-7 -36t-19.5 -29.5t-29.5 -20t-36 -7.5q-39 0 -66 27.5t-27 66.5q0 19 7.5 36t20 29.5t30 19.5
t36.5 7zM175 186q-14 0 -24.5 -10.5t-10.5 -24.5t10.5 -24.5t24.5 -10.5h35q27 0 44 17.5t17 46.5v6h-96zM271 0v29q-14 -14 -33 -21.5t-36 -7.5h-27q-31 0 -58.5 12t-48 32.5t-32.5 48t-12 58.5t12 58.5t32.5 48t48 32.5t58.5 12h96q0 34 -17 50.5t-45 16.5q-36 0 -56 -38
l-115 48q26 54 71.5 84t99.5 30q24 0 56.5 -9.5t61 -31.5t48.5 -59t20 -91v-302h-124z" />
    <glyph glyph-name="ae" unicode="&#xe6;" horiz-adv-x="704" 
d="M550 302q0 29 -18.5 50t-47.5 21t-47 -20t-18 -51h131zM175 187q-14 0 -24.5 -9.5t-10.5 -25.5q0 -15 10.5 -25.5t24.5 -10.5h35q28 0 45 17.5t17 46.5v7h-97zM616 55q-26 -27 -62.5 -41t-69.5 -14q-38 0 -73 15t-64 45q-24 -28 -60 -44t-69 -16h-43q-33 0 -61 13
t-48 34.5t-31 48.5t-11 55q0 31 12 58.5t32.5 48t48 32.5t58.5 12h97q-1 31 -18 49t-44 18q-36 0 -57 -38l-114 48q25 54 70 84t101 30q39 0 75 -16t62 -45q26 29 62 45t76 16q39 0 73 -15t58.5 -40.5t39 -59t14.5 -71.5v-112h-251v-10q0 -26 19.5 -45.5t46.5 -19.5
q10 0 23.5 4.5t24.5 14.5z" />
    <glyph glyph-name="ccedilla" unicode="&#xe7;" 
d="M183 -3q-34 4 -63 20t-50.5 41t-33.5 56.5t-12 65.5v127q0 39 14.5 72.5t39.5 59t59 40t72 14.5q39 0 72.5 -14t58.5 -39t39.5 -59t15.5 -74h-124q-2 28 -19 45t-43 17q-25 0 -43 -18t-18 -44v-127q0 -26 18 -44t43 -18q26 0 43 17.5t19 44.5h124q0 -33 -11 -63
t-31 -54.5t-47.5 -41.5t-59.5 -23l-4 -25q26 -9 41.5 -29.5t15.5 -47.5q0 -35 -23.5 -58.5t-58.5 -23.5h-46v58h46q11 0 17.5 6.5t6.5 16.5t-7 17t-17 7h-46z" />
    <glyph glyph-name="egrave" unicode="&#xe8;" 
d="M300 561h-104l-93 139h116zM273 303q0 31 -18 50.5t-47 19.5t-47.5 -19.5t-18.5 -50.5h131zM142 195v-15q0 -27 19.5 -46.5t46.5 -19.5q28 0 48 20l83 -85q-26 -27 -60 -41t-72 -14t-72 14.5t-59 40t-39.5 59.5t-14.5 72v127q0 39 14.5 72.5t40 59t59 40t72.5 14.5
q38 0 72 -14.5t59 -40t39.5 -59t14.5 -72.5v-112h-251z" />
    <glyph glyph-name="eacute" unicode="&#xe9;" 
d="M312 700l-92 -139h-105l81 139h116zM273 303q0 31 -18 50.5t-47 19.5t-47.5 -19.5t-18.5 -50.5h131zM142 195v-15q0 -27 19.5 -46.5t46.5 -19.5q28 0 48 20l83 -85q-26 -27 -60 -41t-72 -14t-72 14.5t-59 40t-39.5 59.5t-14.5 72v127q0 39 14.5 72.5t40 59t59 40
t72.5 14.5q38 0 72 -14.5t59 -40t39.5 -59t14.5 -72.5v-112h-251z" />
    <glyph glyph-name="ecircumflex" unicode="&#xea;" 
d="M273 303q0 31 -18 50.5t-47 19.5t-47.5 -19.5t-18.5 -50.5h131zM142 195v-15q0 -27 19.5 -46.5t46.5 -19.5q28 0 48 20l83 -85q-26 -27 -60 -41t-72 -14t-72 14.5t-59 40t-39.5 59.5t-14.5 72v127q0 39 14.5 72.5t40 59t59 40t72.5 14.5q38 0 72 -14.5t59 -40t39.5 -59
t14.5 -72.5v-112h-251zM356 561h-104l-44 66l-44 -66h-105l81 139h135z" />
    <glyph glyph-name="edieresis" unicode="&#xeb;" 
d="M231 565v116h116v-116h-116zM69 565v116h116v-116h-116zM273 303q0 31 -18 50.5t-47 19.5t-47.5 -19.5t-18.5 -50.5h131zM142 195v-15q0 -27 19.5 -46.5t46.5 -19.5q28 0 48 20l83 -85q-26 -27 -60 -41t-72 -14t-72 14.5t-59 40t-39.5 59.5t-14.5 72v127q0 39 14.5 72.5
t40 59t59 40t72.5 14.5q38 0 72 -14.5t59 -40t39.5 -59t14.5 -72.5v-112h-251z" />
    <glyph glyph-name="igrave" unicode="&#xec;" horiz-adv-x="204" 
d="M194 561h-104l-93 139h116zM40 0v487h124v-487h-124z" />
    <glyph glyph-name="iacute" unicode="&#xed;" horiz-adv-x="204" 
d="M206 700l-92 -139h-105l81 139h116zM40 0v487h124v-487h-124z" />
    <glyph glyph-name="icircumflex" unicode="&#xee;" horiz-adv-x="204" 
d="M40 0v487h124v-487h-124zM250 561h-104l-44 66l-44 -66h-105l81 139h135z" />
    <glyph glyph-name="idieresis" unicode="&#xef;" horiz-adv-x="204" 
d="M125 565v116h116v-116h-116zM-37 565v116h116v-116h-116zM39 0v487h124v-487h-124z" />
    <glyph glyph-name="ntilde" unicode="&#xf1;" horiz-adv-x="454" 
d="M288 0v301q0 29 -18 45.5t-43 16.5q-26 0 -44 -18t-18 -43v-302h-124v487h124v-29q34 29 85 29q35 0 64.5 -14t51 -38.5t34 -58.5t12.5 -75v-301h-124zM68 587q18 35 47.5 52.5t62.5 17.5q22 0 36 -5t39 -19l10 -4t10 -2q26 0 39 26l72 -37q-17 -34 -45.5 -52t-64.5 -18
q-17 0 -34.5 5t-40.5 19q-9 6 -21 6q-13 0 -21.5 -7t-16.5 -19z" />
    <glyph glyph-name="ograve" unicode="&#xf2;" 
d="M301 561h-104l-93 139h116zM147 180q0 -26 18 -44t44 -18q25 0 43 18t18 44v127q0 26 -18 44t-43 18q-26 0 -44 -18t-18 -44v-127zM394 180q0 -38 -14.5 -72t-39.5 -59.5t-59 -40t-72 -14.5q-39 0 -72.5 14.5t-59 40t-40 59.5t-14.5 72v127q0 39 14.5 72.5t40 59t59 40
t72.5 14.5q38 0 72 -14.5t59 -40t39.5 -59t14.5 -72.5v-127z" />
    <glyph glyph-name="oacute" unicode="&#xf3;" 
d="M313 700l-92 -139h-105l81 139h116zM147 180q0 -26 18 -44t44 -18q25 0 43 18t18 44v127q0 26 -18 44t-43 18q-26 0 -44 -18t-18 -44v-127zM394 180q0 -38 -14.5 -72t-39.5 -59.5t-59 -40t-72 -14.5q-39 0 -72.5 14.5t-59 40t-40 59.5t-14.5 72v127q0 39 14.5 72.5t40 59
t59 40t72.5 14.5q38 0 72 -14.5t59 -40t39.5 -59t14.5 -72.5v-127z" />
    <glyph glyph-name="ocircumflex" unicode="&#xf4;" 
d="M147 180q0 -26 18 -44t44 -18q25 0 43 18t18 44v127q0 26 -18 44t-43 18q-26 0 -44 -18t-18 -44v-127zM394 180q0 -38 -14.5 -72t-39.5 -59.5t-59 -40t-72 -14.5q-39 0 -72.5 14.5t-59 40t-40 59.5t-14.5 72v127q0 39 14.5 72.5t40 59t59 40t72.5 14.5q38 0 72 -14.5
t59 -40t39.5 -59t14.5 -72.5v-127zM357 561h-104l-44 66l-44 -66h-105l81 139h135z" />
    <glyph glyph-name="odieresis" unicode="&#xf6;" 
d="M232 565v116h116v-116h-116zM69 565v116h116v-116h-116zM147 180q0 -26 18 -44t44 -18q25 0 43 18t18 44v127q0 26 -18 44t-43 18q-26 0 -44 -18t-18 -44v-127zM394 180q0 -38 -14.5 -72t-39.5 -59.5t-59 -40t-72 -14.5q-39 0 -72.5 14.5t-59 40t-40 59.5t-14.5 72v127
q0 39 14.5 72.5t40 59t59 40t72.5 14.5q38 0 72 -14.5t59 -40t39.5 -59t14.5 -72.5v-127z" />
    <glyph glyph-name="otilde" unicode="&#xf5;" 
d="M50 587q40 70 111 70q9 0 16 -1t15 -3.5t18 -7t25 -12.5q5 -2 10.5 -4t10.5 -2q26 0 39 26l72 -37q-19 -37 -48.5 -53.5t-61.5 -16.5q-19 0 -34 4.5t-41 19.5q-10 6 -22 6q-23 0 -37 -26zM147 180q0 -26 18 -44t44 -18q25 0 43 18t18 44v127q0 26 -18 44t-43 18
q-26 0 -44 -18t-18 -44v-127zM394 180q0 -38 -14.5 -72t-39.5 -59.5t-59 -40t-72 -14.5q-39 0 -72.5 14.5t-59 40t-40 59.5t-14.5 72v127q0 39 14.5 72.5t40 59t59 40t72.5 14.5q38 0 72 -14.5t59 -40t39.5 -59t14.5 -72.5v-127z" />
    <glyph glyph-name="divide" unicode="&#xf7;" horiz-adv-x="528" 
d="M266 232q16 0 30.5 -6.5t25.5 -17.5t17.5 -25.5t6.5 -31.5q0 -34 -24 -58t-57 -24q-34 0 -58 24t-24 58t24 57.5t59 23.5zM266 627q16 0 30.5 -6.5t25.5 -17.5t17.5 -25.5t6.5 -31.5q0 -34 -24 -58t-57 -24q-34 0 -58 24t-24 58t24 57.5t59 23.5zM496 418v-140h-464v140
h464z" />
    <glyph glyph-name="oslash" unicode="&#xf8;" 
d="M173 130q16 -12 36 -12q25 0 43 18t18 44v92zM244 357q-16 12 -35 12q-26 0 -44 -18t-18 -44v-92zM337 493l57 -40l-30 -44q30 -47 30 -102v-127q0 -38 -14.5 -72t-39.5 -59.5t-59 -40t-72 -14.5q-58 0 -106 34l-23 -34l-57 40l30 44q-30 47 -30 102v127q0 39 14.5 72.5
t39.5 59t59 40t72 14.5q30 0 55 -8t51 -25z" />
    <glyph glyph-name="ugrave" unicode="&#xf9;" horiz-adv-x="454" 
d="M165 487v-301q0 -26 18 -44t44 -18q25 0 43 18t18 43v302h124v-487h-124v29q-34 -29 -85 -29q-34 0 -64 14t-51.5 39t-34 59t-12.5 74v301h124zM319 561h-104l-93 139h116z" />
    <glyph glyph-name="uacute" unicode="&#xfa;" horiz-adv-x="454" 
d="M165 487v-301q0 -26 18 -44t44 -18q25 0 43 18t18 43v302h124v-487h-124v29q-34 -29 -85 -29q-34 0 -64 14t-51.5 39t-34 59t-12.5 74v301h124zM331 700l-92 -139h-105l81 139h116z" />
    <glyph glyph-name="ucircumflex" unicode="&#xfb;" horiz-adv-x="454" 
d="M165 487v-301q0 -26 18 -44t44 -18q25 0 43 18t18 43v302h124v-487h-124v29q-34 -29 -85 -29q-34 0 -64 14t-51.5 39t-34 59t-12.5 74v301h124zM375 561h-104l-44 66l-44 -66h-105l81 139h135z" />
    <glyph glyph-name="udieresis" unicode="&#xfc;" horiz-adv-x="454" 
d="M165 487v-301q0 -26 18 -44t44 -18q25 0 43 18t18 43v302h124v-487h-124v29q-34 -29 -85 -29q-34 0 -64 14t-51.5 39t-34 59t-12.5 74v301h124zM250 565v116h116v-116h-116zM87 565v116h116v-116h-116z" />
    <glyph glyph-name="ydieresis" unicode="&#xff;" horiz-adv-x="463" 
d="M255 565v116h116v-116h-116zM92 565v116h116v-116h-116zM323 487h124l-178 -558q-23 -71 -65.5 -103t-116.5 -35v124q33 1 47 12t24 43l9 27l-151 490h124l90 -310z" />
    <glyph glyph-name="quoteright" unicode="&#x2019;" horiz-adv-x="213" 
d="M37 418v278h139v-139z" />
    <glyph glyph-name="quotedblleft" unicode="&#x201c;" 
d="M243 418v278h139v-139zM34 418v278h139v-139z" />
    <glyph glyph-name="quotedblright" unicode="&#x201d;" 
d="M243 418v278h139v-139zM34 418v278h139v-139z" />
    <glyph glyph-name="cAC" unicode="&#x20ac;" horiz-adv-x="583" 
d="M90 488q4 46 23.5 85.5t50 68t71 45t86.5 16.5q48 0 90 -18t73.5 -49t49.5 -73.5t19 -91.5h-139q-2 42 -28 67.5t-65 25.5q-34 0 -59.5 -21.5t-31.5 -54.5h95l-23 -116h-74v-48h97l-23 -116h-72q6 -33 31.5 -54.5t59.5 -21.5q39 0 65 25.5t28 67.5h139
q-1 -49 -19.5 -91.5t-49.5 -74t-73 -49t-90 -17.5q-46 0 -86.5 16.5t-71 45t-50 68t-23.5 85.5h-78l24 116h53v48h-77l24 116h54z" />
    <glyph glyph-name="hungarumlaut" unicode="&#x2dd;" horiz-adv-x="370" 
d="M150 696l209 -696h-139l-209 696h139z" />
    <glyph glyph-name="ogonek" unicode="&#x2db;" horiz-adv-x="463" 
d="M336 700l-93 -139h-105l82 139h116zM323 487h124l-178 -558q-23 -71 -65.5 -103t-116.5 -35v124q33 1 47 12t24 43l9 27l-151 490h124l90 -310z" />
    <glyph glyph-name="caron" unicode="&#x2c7;" horiz-adv-x="528" 
d="M112 98l-98 99l151 151l-151 151l98 99l152 -152l151 152l99 -99l-152 -151l152 -151l-99 -99l-151 152z" />
    <glyph glyph-name="quoteleft" unicode="&#x2018;" horiz-adv-x="213" 
d="M37 418v278h139v-139z" />
    <glyph glyph-name="minus" unicode="&#x2212;" horiz-adv-x="528" 
d="M496 418v-140h-464v140h464z" />
    <glyph glyph-name="currency" unicode="&#xa4;" horiz-adv-x="611" 
d="M308 489q-29 0 -54.5 -11t-45 -30t-31 -44.5t-11.5 -53.5q0 -30 11 -56t30 -45.5t44.5 -31t54.5 -11.5q30 0 56 11t45.5 30.5t30.5 45t11 55.5q0 29 -11 55t-30 45t-45 30t-55 11zM512 479q17 -26 28 -62t11 -70q0 -69 -38 -130l88 -88l-74 -74l-88 87q-64 -38 -131 -38
q-33 0 -68.5 10t-63.5 28l-88 -88l-74 75l88 87q-17 26 -27.5 63t-10.5 70q0 71 38 130l-88 88l74 74l88 -88q27 17 60.5 27.5t68.5 10.5q38 0 73 -10.5t60 -27.5l89 88l74 -74z" />
    <glyph glyph-name="brokenbar" unicode="&#xa6;" horiz-adv-x="241" 
d="M190 151v-360h-139v360h139zM190 696v-360h-139v360h139z" />
    <glyph glyph-name="twosuperior" unicode="&#xb2;" horiz-adv-x="268" 
d="M26 590q2 47 32.5 78.5t76.5 31.5q23 0 42.5 -8.5t34.5 -23.5t23.5 -34.5t8.5 -42.5q0 -19 -7 -37.5t-19 -32.5l-83 -92h108v-81h-217v81l130 144q7 8 7 18q0 12 -8 20t-20 8t-19.5 -8t-8.5 -21h-81z" />
    <glyph glyph-name="threesuperior" unicode="&#xb3;" horiz-adv-x="268" 
d="M134 563q13 0 21 7.5t8 20.5q0 12 -8 20t-21 8q-26 0 -28 -29h-81q0 23 8.5 43t23.5 35t35 23.5t43 8.5t43 -8.5t34.5 -23.5t23 -35t8.5 -43q0 -19 -5.5 -34.5t-19.5 -32.5q14 -17 19.5 -33.5t5.5 -39.5q0 -21 -8.5 -40.5t-23.5 -34t-35 -23t-42 -8.5q-23 0 -43 8.5
t-35 23.5t-23.5 35.5t-8.5 43.5h81q2 -29 28 -29q13 0 21 8t8 20t-8 20t-21 8h-43v81h43z" />
    <glyph glyph-name="onesuperior" unicode="&#xb9;" horiz-adv-x="268" 
d="M181 696v-348h-93v255h-46v93h139z" />
    <glyph glyph-name="onequarter" unicode="&#xbc;" horiz-adv-x="611" 
d="M537 677l-420 -684l-44 26l421 684zM489 127v100l-50 -100h50zM489 0v46h-132v79l118 223h95v-221h35v-81h-35v-46h-81zM181 696v-348h-93v255h-46v93h139z" />
    <glyph glyph-name="onehalf" unicode="&#xbd;" horiz-adv-x="611" 
d="M369 242q0 23 9 43t23.5 35t34.5 23.5t42 8.5q23 0 42.5 -8.5t34.5 -23.5t23.5 -34.5t8.5 -41.5q0 -20 -7 -38.5t-19 -32.5l-83 -92h108v-81h-217v81l130 144q7 8 7 18q0 12 -8.5 20t-19.5 8q-12 0 -19.5 -8t-8.5 -21h-81zM181 696v-348h-93v255h-46v93h139zM537 677
l-421 -684l-43 26l421 684z" />
    <glyph glyph-name="threequarters" unicode="&#xbe;" horiz-adv-x="611" 
d="M134 563q13 0 21 7.5t8 20.5q0 12 -8 20t-21 8q-26 0 -28 -29h-81q0 23 8.5 43t23.5 35t35 23.5t43 8.5t43 -8.5t34.5 -23.5t23 -35t8.5 -43q0 -19 -5.5 -34.5t-19.5 -32.5q14 -17 19.5 -33.5t5.5 -39.5q0 -21 -8.5 -40.5t-23.5 -34t-35 -23t-42 -8.5q-23 0 -43 8.5
t-35 23.5t-23.5 35.5t-8.5 43.5h81q2 -29 28 -29q13 0 21 8t8 20t-8 20t-21 8h-43v81h43zM489 127v100l-50 -100h50zM489 0v46h-132v79l118 223h95v-221h35v-81h-35v-46h-81zM538 677l-421 -684l-43 26l421 684z" />
    <glyph glyph-name="Eth" unicode="&#xd0;" horiz-adv-x="546" 
d="M281 383v-70h-93v-174h93q19 0 36 7.5t29.5 20t19.5 29.5t7 36v232q0 19 -7 36t-19.5 29.5t-29.5 20t-36 7.5h-93v-174h93zM49 696h232q48 0 90.5 -18t74 -49.5t49.5 -74t18 -90.5v-232q0 -48 -18 -90t-49.5 -73.5t-74 -50t-90.5 -18.5h-232v313h-35v70h35v313z" />
    <glyph glyph-name="multiply" unicode="&#xd7;" horiz-adv-x="528" 
d="M112 98l-98 99l151 151l-151 151l98 99l152 -152l151 152l99 -99l-152 -151l152 -151l-99 -99l-151 152z" />
    <glyph glyph-name="Yacute" unicode="&#xdd;" horiz-adv-x="491" 
d="M351 909l-93 -140h-105l82 140h116zM316 0h-140v278l-162 418h139l93 -257l93 257h139l-162 -418v-278z" />
    <glyph glyph-name="Thorn" unicode="&#xde;" horiz-adv-x="546" 
d="M187 255h93q20 0 36.5 7.5t29.5 20t20 29.5t7 36t-7 36t-20 29.5t-29.5 20t-36.5 7.5h-93v-186zM280 580q48 0 90.5 -18t74 -49.5t49.5 -74t18 -90.5t-18 -90t-49.5 -73.5t-74 -50t-90.5 -18.5h-93v-116h-139v696h139v-116h93z" />
    <glyph glyph-name="eth" unicode="&#xf0;" 
d="M147 178q0 -25 18 -43t44 -18q25 0 43 18t18 43v104q0 26 -18 44t-43 18q-26 0 -44 -18t-18 -44v-104zM224 585q-5 1 -8.5 1.5t-7.5 0.5q-38 0 -61 -35l-99 58q27 45 68.5 69t92.5 24q56 0 104 -31l31 31l51 -47l-32 -32q15 -21 23 -47t8 -52v-347q0 -38 -14.5 -72
t-39.5 -59t-59 -39.5t-72 -14.5q-39 0 -72.5 14.5t-59 39.5t-40 59t-14.5 72v104q0 38 14.5 72t40 59.5t59 40t72.5 14.5q15 0 29.5 -2.5t31.5 -8.5v68v7l-61 -60l-51 48z" />
    <glyph glyph-name="yacute" unicode="&#xfd;" horiz-adv-x="463" 
d="M336 700l-93 -139h-105l82 139h116zM323 487h124l-178 -558q-23 -71 -65.5 -103t-116.5 -35v124q33 1 47 12t24 43l9 27l-151 490h124l90 -310z" />
    <glyph glyph-name="thorn" unicode="&#xfe;" horiz-adv-x="435" 
d="M287 302q0 25 -18 43t-43 18q-26 0 -44 -18t-18 -43v-117q0 -25 18 -43t44 -18q25 0 43 18t18 44v116zM164 458q34 29 83 29q35 0 65 -14t52 -38.5t34.5 -58.5t12.5 -74v-116q0 -40 -12.5 -74t-34.5 -59t-52 -39t-65 -14q-50 0 -83 29v-238h-124v905h124v-238z" />
    </font>
</defs>
</svg>
