<?xml version="1.0" standalone="no"?>
<!DOCTYPE svg PUBLIC "-//W3C//DTD SVG 1.1//EN" "http://www.w3.org/Graphics/SVG/1.1/DTD/svg11.dtd" >
<svg xmlns="http://www.w3.org/2000/svg" xmlns:xlink="http://www.w3.org/1999/xlink" version="1.1">
<metadata>
Created by FontForge 20161003 at Sun Jun 10 12:44:53 2018
 By www-data
Copyright (c) 2007 by Morisawa &#38; Company Ltd. All rights reserved.
</metadata>
<defs>
<font id="UniqloBoldRounded" horiz-adv-x="417" >
  <font-face 
    font-family="UniqloBoldRounded"
    font-weight="400"
    font-stretch="normal"
    units-per-em="1000"
    panose-1="2 0 5 6 2 0 0 2 0 4"
    ascent="750"
    descent="-250"
    x-height="487"
    cap-height="703"
    bbox="-88 -218 884 940"
    underline-thickness="20"
    underline-position="-133"
    unicode-range="U+0020-2212"
  />
<missing-glyph horiz-adv-x="333" 
 />
    <glyph glyph-name=".notdef" horiz-adv-x="333" 
 />
    <glyph glyph-name=".null" horiz-adv-x="0" 
 />
    <glyph glyph-name="nonmarkingreturn" horiz-adv-x="0" 
 />
    <glyph glyph-name="space" unicode=" " horiz-adv-x="333" 
 />
    <glyph glyph-name="space" unicode="&#xa0;" horiz-adv-x="333" 
 />
    <glyph glyph-name="exclam" unicode="!" horiz-adv-x="204" 
d="M103 147q31 0 53.5 -22.5t22.5 -54.5t-22.5 -54.5t-54.5 -22.5q-16 0 -30 6t-24.5 16.5t-16.5 25t-6 30.5q0 32 23 54t55 22zM36 627q-2 32 17.5 54t48.5 22q30 0 49 -22t17 -54l-18 -354q-1 -21 -14.5 -34.5t-33.5 -13.5t-34 13.5t-15 34.5z" />
    <glyph glyph-name="quotedbl" unicode="&#x22;" 
d="M243 626q0 36 18.5 56.5t50.5 20.5q33 0 51.5 -20.5t18.5 -56.5v-82q0 -23 -9 -42.5t-29 -39.5l-29 -29q-15 -15 -32 -15t-28.5 11.5t-11.5 28.5v168zM34 626q0 36 18.5 56.5t50.5 20.5q33 0 51.5 -20.5t18.5 -56.5v-82q0 -23 -9 -42.5t-29 -39.5l-29 -29
q-15 -15 -32 -15t-28.5 11.5t-11.5 28.5v168z" />
    <glyph glyph-name="numbersign" unicode="#" horiz-adv-x="565" 
d="M338 418h-92l-19 -140h92zM473 556q31 -3 48 -21t17 -48q0 -32 -20.5 -50.5t-57.5 -18.5h-6l-19 -142q26 -4 41 -22.5t15 -44.5q0 -67 -74 -70l-12 -90q-8 -56 -57 -56q-26 0 -42 15.5t-16 41.5q0 9 1 14l10 75h-92l-12 -90q-8 -56 -58 -56q-26 0 -43 16.5t-15 40.5l1 14
l10 76q-31 2 -48 20.5t-17 48.5q0 32 20.5 50.5t57.5 18.5h6l19 142q-26 4 -41.5 22t-15.5 46q0 32 19.5 50t55.5 19l12 90q4 26 19 40.5t38 14.5q32 0 46 -19t12 -38l-11 -88h93l12 90q4 28 19 41.5t38 13.5q32 0 46 -19t12 -39z" />
    <glyph glyph-name="dollar" unicode="$" horiz-adv-x="463" 
d="M267 135q24 11 38 32t14 47q0 17 -10.5 33t-24.5 21l-17 6v-139zM197 561q-24 -11 -38 -32t-14 -47q0 -17 10.5 -33t24.5 -21l17 -6v139zM197 734q0 18 9 28.5t26 10.5t26 -10.5t9 -28.5v-53q31 -4 61 -18.5t53.5 -33.5t38 -40t14.5 -39q0 -23 -17 -40.5t-42 -17.5
q-16 0 -27 6t-23 23q-10 14 -25.5 25.5t-32.5 16.5v-166l62 -22q47 -17 76.5 -62t29.5 -101q0 -36 -12.5 -69t-35 -59t-53 -44t-67.5 -25v-53q0 -18 -9 -28.5t-26 -10.5t-26 10.5t-9 28.5v52q-31 6 -61.5 20t-53.5 32.5t-37.5 39.5t-14.5 40q0 24 17 41t42 17q17 0 27 -6
t23 -23q12 -16 27.5 -26.5t30.5 -15.5v166l-62 22q-21 8 -40.5 23.5t-34 37.5t-23 48t-8.5 53q0 37 12.5 69.5t34.5 59t53 44.5t68 25v53z" />
    <glyph glyph-name="percent" unicode="%" horiz-adv-x="472" 
d="M323 98q0 -10 6.5 -16.5t16.5 -6.5q11 0 17.5 6.5t6.5 16.5v94q0 11 -6.5 17.5t-16.5 6.5q-11 0 -17.5 -6.5t-6.5 -17.5v-94zM445 99q0 -20 -8 -38t-21.5 -31.5t-31 -21.5t-37.5 -8t-38 8t-31.5 21.5t-21.5 31.5t-8 38v93q0 20 7.5 38t21 31.5t31.5 21.5t39 8q20 0 38 -8
t31.5 -21.5t21 -31.5t7.5 -38v-93zM102 504q0 -11 6.5 -17.5t17.5 -6.5q10 0 16.5 6.5t6.5 17.5v94q0 10 -6.5 16.5t-17.5 6.5q-10 0 -16.5 -6.5t-6.5 -16.5v-94zM224 504q0 -20 -7.5 -38t-21 -31.5t-31.5 -21.5t-38 -8q-21 0 -39 8t-31.5 21.5t-21 31.5t-7.5 38v93
q0 42 28.5 70.5t70.5 28.5q41 0 69.5 -28.5t28.5 -70.5v-93zM136 19q-15 -32 -42 -32q-19 0 -33.5 12.5t-14.5 29.5q0 14 7 28l280 614q15 32 42 32q19 0 33.5 -13t14.5 -30q0 -13 -7 -27z" />
    <glyph glyph-name="ampersand" unicode="&#x26;" horiz-adv-x="593" 
d="M234 493q11 9 26 24.5t15 29.5t-11 23.5t-25 9.5t-24 -10t-10 -25q0 -8 3 -14.5t9 -14.5zM226 323l-48 -46q-31 -29 -31 -68q0 -19 7.5 -36t20 -29.5t29 -20t35.5 -7.5q32 0 63 11t56 31zM430 67q-39 -32 -88 -49.5t-98 -17.5q-45 0 -83.5 16.5t-67.5 45t-45.5 66.5
t-16.5 82q0 40 16.5 79.5t44.5 66.5l61 58l-20 24q-25 30 -34.5 53t-9.5 54q0 32 12 59.5t32 47.5t47.5 32t58.5 12q32 0 59.5 -12t48 -32.5t32.5 -48t12 -59.5q0 -29 -12 -57.5t-32 -48.5l-38 -36l112 -139l2 10l2 10q5 23 19.5 35t34.5 12q26 0 42.5 -17.5t16.5 -45.5
q0 -20 -9.5 -51t-23.5 -57l46 -57q19 -24 19 -44q0 -11 -5 -21.5t-13.5 -18.5t-19.5 -13t-23 -5q-28 0 -49 28z" />
    <glyph glyph-name="quotesingle" unicode="'" horiz-adv-x="213" 
d="M37 626q0 36 18.5 56.5t50.5 20.5q33 0 51.5 -20.5t18.5 -56.5v-82q0 -23 -9 -42.5t-29 -39.5l-29 -29q-15 -15 -32 -15t-28.5 11.5t-11.5 28.5v168z" />
    <glyph glyph-name="parenleft" unicode="(" horiz-adv-x="352" 
d="M187 209q0 -28 17.5 -46.5t47.5 -23.5q67 -9 67 -69q0 -29 -20.5 -49.5t-49.5 -20.5q-40 0 -76.5 17t-64 45.5t-44 66.5t-16.5 80v278q0 42 16.5 80t44 66.5t64 45.5t76.5 17q29 0 49.5 -20.5t20.5 -49.5q0 -60 -67 -69q-30 -5 -47.5 -23.5t-17.5 -46.5v-278z" />
    <glyph glyph-name="parenright" unicode=")" horiz-adv-x="352" 
d="M304 209q0 -42 -16.5 -80t-44 -66.5t-64 -45.5t-76.5 -17q-29 0 -49.5 20.5t-20.5 49.5q0 60 67 69q30 5 47.5 23.5t17.5 46.5v278q0 28 -17.5 46.5t-47.5 23.5q-67 9 -67 69q0 29 20.5 49.5t49.5 20.5q40 0 76.5 -17t64 -45.5t44 -66.5t16.5 -80v-278z" />
    <glyph glyph-name="asterisk" unicode="*" horiz-adv-x="306" 
d="M42 581q-21 13 -21 31q0 14 10 25t23 11q4 0 11 -2t12 -5l41 -24v48q0 18 9 28.5t26 10.5t26 -10.5t9 -28.5v-48l41 24q5 3 11.5 5t10.5 2q14 0 24 -11t10 -26q0 -18 -21 -30l-41 -24l41 -24q21 -13 21 -30q0 -14 -10 -25.5t-23 -11.5q-5 0 -11.5 2t-11.5 5l-41 24v-47
q0 -39 -35 -39t-35 39v47l-41 -24q-5 -3 -11.5 -5t-10.5 -2q-14 0 -24 11.5t-10 25.5q0 17 21 30l41 24z" />
    <glyph glyph-name="plus" unicode="+" horiz-adv-x="528" 
d="M103 278q-37 0 -57.5 18.5t-20.5 51.5t20.5 51.5t57.5 18.5h92v92q0 37 18.5 57.5t50.5 20.5q33 0 51.5 -20.5t18.5 -57.5v-92h92q37 0 57.5 -18.5t20.5 -51.5t-20.5 -51.5t-57.5 -18.5h-92v-92q0 -37 -18.5 -57.5t-51.5 -20.5q-32 0 -50.5 20.5t-18.5 57.5v92h-92z" />
    <glyph glyph-name="comma" unicode="," horiz-adv-x="213" 
d="M37 69q0 36 18.5 56.5t50.5 20.5q33 0 51.5 -20t18.5 -57v-82q0 -23 -9 -42.5t-29 -39.5l-29 -29q-15 -15 -32 -15t-28.5 11.5t-11.5 28.5v168z" />
    <glyph glyph-name="hyphen" unicode="-" horiz-adv-x="528" 
d="M426 418q37 0 57 -18.5t20 -51.5t-20.5 -51.5t-56.5 -18.5h-323q-37 0 -57.5 18.5t-20.5 51.5t20.5 51.5t57.5 18.5h323z" />
    <glyph glyph-name="period" unicode="." horiz-adv-x="213" 
d="M108 147q31 0 53.5 -22.5t22.5 -54.5t-22.5 -54.5t-54.5 -22.5q-16 0 -30 6t-24.5 16.5t-16.5 25t-6 30.5q0 32 23 54t55 22z" />
    <glyph glyph-name="slash" unicode="/" horiz-adv-x="370" 
d="M165 48q-16 -55 -64 -55q-29 0 -49 18t-20 43q0 15 5 32l169 562q16 55 63 55q29 0 49 -18t20 -43q0 -8 -1.5 -17t-3.5 -15z" />
    <glyph glyph-name="zero" unicode="0" horiz-adv-x="481" 
d="M171 202q0 -29 20.5 -49.5t48.5 -20.5q29 0 49.5 20.5t20.5 49.5v292q0 29 -20.5 49.5t-48.5 20.5q-29 0 -49.5 -20.5t-20.5 -49.5v-292zM450 202q0 -43 -16.5 -81t-45 -66.5t-66.5 -45t-82 -16.5q-43 0 -80.5 16.5t-66 45t-45 66.5t-16.5 81v292q0 43 16.5 81t45 66.5
t66 45t80.5 16.5q44 0 82 -16.5t66.5 -45t45 -66.5t16.5 -81v-292z" />
    <glyph glyph-name="one" unicode="1" horiz-adv-x="481" 
d="M156 557q-37 0 -57.5 18.5t-20.5 50.5q0 33 20.5 51.5t57.5 18.5h68q39 0 66 -27t27 -66v-533q0 -36 -18.5 -56.5t-51.5 -20.5q-32 0 -50.5 20.5t-18.5 56.5v487h-22z" />
    <glyph glyph-name="two" unicode="2" horiz-adv-x="481" 
d="M378 139q37 0 57.5 -18.5t20.5 -51.5q0 -32 -20.5 -50.5t-57.5 -18.5h-261q-19 0 -36 7t-29.5 19.5t-20 29t-7.5 35.5q0 18 5 31t19 30l235 285q11 14 19 26.5t8 30.5q0 29 -20.5 49.5t-49.5 20.5q-52 0 -70 -58q-16 -54 -66 -54q-29 0 -49.5 20.5t-20.5 48.5q0 16 7 37
t18 41q29 49 77 76.5t104 27.5q43 0 81 -16.5t66.5 -45t45 -66.5t16.5 -81q0 -35 -15 -66.5t-38 -59.5l-192 -229h174z" />
    <glyph glyph-name="three" unicode="3" horiz-adv-x="481" 
d="M449 487q0 -79 -54 -139q54 -60 54 -139v-8q0 -43 -16.5 -81t-45 -66t-66.5 -44.5t-81 -16.5q-54 0 -100 25t-75 70q-28 44 -28 76q0 29 20.5 49.5t49.5 20.5q25 0 40.5 -12t25.5 -39q20 -51 68 -51q28 0 48.5 20.5t20.5 48.5v8q0 29 -20.5 49t-49.5 20h-1
q-35 0 -55.5 19t-20.5 51t20.5 51t55.5 19h1q29 0 49.5 20t20.5 49v8q0 28 -20.5 48.5t-49.5 20.5q-47 0 -67 -51q-19 -51 -66 -51q-29 0 -49.5 20.5t-20.5 49.5q0 19 10 42t27 46q29 38 73 60.5t93 22.5q43 0 81 -16.5t66.5 -45t45 -66t16.5 -80.5v-8z" />
    <glyph glyph-name="four" unicode="4" horiz-adv-x="481" 
d="M273 218v276l-116 -276h116zM407 218q30 -3 46.5 -20.5t16.5 -46.5t-16.5 -46.5t-46.5 -20.5v-16q0 -35 -17.5 -55t-49.5 -20t-49.5 20t-17.5 55v16h-166q-19 0 -36 7t-29.5 19.5t-19.5 29t-7 35.5q0 17 8 35l188 429q14 30 38.5 47t56.5 17q21 0 39.5 -8t32 -22
t21.5 -32.5t8 -39.5v-383z" />
    <glyph glyph-name="five" unicode="5" horiz-adv-x="481" 
d="M171 474q33 13 72 13q44 0 82 -16.5t67 -45t45.5 -66.5t16.5 -81v-77q0 -43 -16.5 -80.5t-45 -66t-66.5 -45t-81 -16.5q-42 0 -80.5 16t-67.5 45q-25 25 -41 57.5t-16 57.5q0 27 20.5 46.5t49.5 19.5q20 0 32 -6.5t18 -13.5t9.5 -16t8.5 -20q9 -22 28 -34.5t39 -12.5
q28 0 48.5 20.5t20.5 48.5v77q0 35 -22.5 52.5t-56.5 17.5q-25 0 -40.5 -6.5t-34.5 -25.5q-18 -17 -29 -22.5t-27 -5.5q-29 0 -48.5 19.5t-19.5 48.5v247q0 39 27 66t66 27h231q37 0 57.5 -18.5t20.5 -51.5q0 -32 -20.5 -50.5t-57.5 -18.5h-189v-83z" />
    <glyph glyph-name="six" unicode="6" horiz-adv-x="481" 
d="M171 202q0 -29 20 -49.5t49 -20.5t49.5 20.5t20.5 49.5v32q0 29 -20 49t-49 20t-49.5 -20t-20.5 -49v-32zM244 441q44 0 81.5 -16.5t65 -44.5t43.5 -65.5t16 -80.5v-32q0 -43 -16.5 -81t-45 -66.5t-66.5 -45t-81 -16.5t-81.5 16.5t-66.5 44.5t-44.5 66.5t-16.5 81.5v32
q0 20 8.5 51.5t23.5 65.5l136 307q20 45 59 45q26 0 46.5 -18t20.5 -41q0 -17 -9 -38z" />
    <glyph glyph-name="seven" unicode="7" horiz-adv-x="481" 
d="M112 557q-37 0 -57.5 18.5t-20.5 50.5q0 33 20.5 51.5t57.5 18.5h228q21 0 40 -8t33 -22t22 -32t8 -39q0 -20 -7 -38l-194 -515q-18 -49 -61 -49q-27 0 -47.5 18t-20.5 42q0 14 8 35l175 469h-184z" />
    <glyph glyph-name="eight" unicode="8" horiz-adv-x="481" 
d="M163 208q0 -33 23 -56.5t55 -23.5t55.5 23.5t23.5 56.5v7q0 33 -23.5 56.5t-56.5 23.5q-16 0 -30 -6.5t-24.5 -17.5t-16.5 -25.5t-6 -30.5v-7zM177 496q0 -27 19 -46.5t45 -19.5q27 0 46 19.5t19 46.5v6q0 27 -19 46.5t-46 19.5q-26 0 -45 -19.5t-19 -46.5v-6zM31 215
q0 43 14 78.5t46 72.5q-24 32 -35 62.5t-11 67.5v6q0 42 15.5 78.5t42 63.5t62 43t76.5 16t77 -16t62.5 -43t42 -63.5t15.5 -78.5v-6q0 -37 -10.5 -67.5t-36.5 -62.5q32 -38 46.5 -73.5t14.5 -77.5v-7q0 -45 -16.5 -84t-45 -68t-67 -46t-82.5 -17q-43 0 -81.5 17t-67 46
t-45 68t-16.5 84v7z" />
    <glyph glyph-name="nine" unicode="9" horiz-adv-x="481" 
d="M310 494q0 29 -20 49.5t-49 20.5t-49.5 -20.5t-20.5 -49.5v-32q0 -29 20 -49t49 -20t49.5 20t20.5 49v32zM237 255q-42 0 -79 17t-65 45.5t-44.5 66t-16.5 78.5v32q0 44 16.5 82t44.5 66t66.5 44.5t81.5 16.5t81 -16.5t66.5 -45t45 -66.5t16.5 -81v-32q0 -23 -9 -53
t-24 -64l-136 -307q-20 -45 -59 -45q-26 0 -46.5 18t-20.5 41q0 17 9 38z" />
    <glyph glyph-name="colon" unicode=":" horiz-adv-x="213" 
d="M108 147q31 0 53.5 -22.5t22.5 -54.5t-22.5 -54.5t-54.5 -22.5q-16 0 -30 6t-24.5 16.5t-16.5 25t-6 30.5q0 32 23 54t55 22zM108 425q31 0 53.5 -22.5t22.5 -54.5t-22.5 -54.5t-54.5 -22.5q-16 0 -30 6t-24.5 16.5t-16.5 25t-6 30.5q0 32 23 54t55 22z" />
    <glyph glyph-name="semicolon" unicode=";" horiz-adv-x="213" 
d="M37 69q0 36 18.5 56.5t51.5 20.5t51.5 -20t18.5 -57v-82q0 -23 -9.5 -42t-29.5 -40l-28 -29q-7 -8 -16 -11.5t-17 -3.5q-17 0 -28.5 11.5t-11.5 28.5v168zM108 425q31 0 53.5 -22.5t22.5 -54.5t-22.5 -54.5t-54.5 -22.5q-16 0 -30 6t-24.5 16.5t-16.5 25t-6 30.5
q0 32 23 54t55 22z" />
    <glyph glyph-name="less" unicode="&#x3c;" horiz-adv-x="528" 
d="M460 260q53 -19 53 -66q0 -30 -20 -52.5t-46 -22.5q-8 0 -19 2t-20 6l-308 121q-75 30 -75 100t75 100l308 121q22 8 39 8q26 0 46 -22t20 -52q0 -48 -53 -67l-252 -88z" />
    <glyph glyph-name="equal" unicode="=" horiz-adv-x="528" 
d="M426 313q37 0 57 -18.5t20 -51.5q0 -32 -20 -50.5t-57 -18.5h-323q-37 0 -57.5 18.5t-20.5 51.5q0 32 20.5 50.5t57.5 18.5h323zM426 522q36 0 56.5 -18.5t20.5 -50.5q0 -33 -20.5 -51.5t-56.5 -18.5h-323q-37 0 -57.5 18.5t-20.5 51.5q0 32 20.5 50.5t57.5 18.5h323z
" />
    <glyph glyph-name="greater" unicode="&#x3e;" horiz-adv-x="528" 
d="M68 436q-53 19 -53 67q0 30 20 52t46 22q18 0 39 -8l308 -121q75 -30 75 -100t-75 -100l-308 -121q-9 -4 -20 -6t-19 -2q-26 0 -46 22.5t-20 52.5q0 47 53 66l252 88z" />
    <glyph glyph-name="question" unicode="?" horiz-adv-x="481" 
d="M241 147q32 0 54 -22.5t22 -54.5t-22.5 -54.5t-54.5 -22.5q-16 0 -30 6t-24.5 16.5t-16.5 25t-6 30.5q0 32 23 54t55 22zM289 438q21 21 21 48v11q0 27 -20.5 47t-49.5 20q-47 0 -67 -50q-21 -51 -67 -51q-29 0 -49.5 20t-20.5 48q0 23 13.5 51.5t36.5 52.5q63 68 154 68
q43 0 81 -16.5t66.5 -44.5t45 -65.5t16.5 -79.5v-11q0 -41 -16 -79t-45 -67l-58 -58q-8 -8 -12 -16.5t-9 -23.5q-8 -22 -26 -35t-40 -13q-29 0 -49.5 20t-20.5 49q0 25 17 58.5t42 58.5z" />
    <glyph glyph-name="at" unicode="@" horiz-adv-x="759" 
d="M311 318q0 -29 20.5 -49.5t49.5 -20.5q28 0 48.5 20.5t20.5 49.5v53q0 29 -20.5 49.5t-48.5 20.5q-29 0 -49.5 -20.5t-20.5 -49.5v-53zM728 310q0 -30 -11 -57t-29.5 -47.5t-43 -32t-52.5 -11.5q-55 0 -90 48q-53 -55 -130 -55q-34 0 -62.5 12t-49 33t-31.5 51t-11 66v54
q0 35 11 65t31 52t47.5 34t59.5 12q48 0 83 -29q11 29 45 29q23 0 35.5 -14t12.5 -38v-180q0 -20 13.5 -33.5t31.5 -13.5q20 0 33.5 16t13.5 39v38q0 53 -20 99.5t-54.5 81t-80.5 54.5t-99 20t-100 -20t-81.5 -54.5t-54.5 -81.5t-20 -100q0 -52 20 -98.5t55 -81t81.5 -54.5
t99.5 -20q11 0 19.5 0.5t17 2t18.5 4t24 6.5q9 3 18 3q18 0 30.5 -14t12.5 -33q0 -37 -44 -48q-51 -14 -96 -14q-72 0 -136 27.5t-111 74.5t-74.5 110.5t-27.5 135.5t27.5 135t75 110.5t110.5 75t135 27.5t135 -27.5t110.5 -75t75 -110.5t27.5 -135v-38z" />
    <glyph glyph-name="A" unicode="A" horiz-adv-x="630" 
d="M384 278l-69 228l-70 -228h139zM199 139l-32 -94q-18 -52 -63 -52q-27 0 -47.5 18t-20.5 43q0 6 1.5 15.5t4.5 17.5l181 544q25 72 92 72q66 0 91 -72l181 -544q2 -8 4 -17.5t2 -16.5q0 -24 -20.5 -42t-47.5 -18q-45 0 -63 52l-31 94h-232z" />
    <glyph glyph-name="B" unicode="B" horiz-adv-x="546" 
d="M189 139h116q29 0 49.5 20t20.5 49t-20.5 49.5t-49.5 20.5h-116v-139zM305 418q29 0 49 20t20 49t-20 49.5t-49 20.5h-116v-139h116zM305 696q43 0 81 -16.5t66.5 -45t45 -66t16.5 -80.5q0 -39 -12.5 -72t-40.5 -68q28 -35 40.5 -68t12.5 -72q0 -43 -16.5 -80.5t-45 -66
t-66.5 -45t-81 -16.5h-162q-39 0 -66 27t-27 66v510q0 39 27 66t66 27h162z" />
    <glyph glyph-name="C" unicode="C" horiz-adv-x="537" 
d="M176 225q0 -19 7.5 -36t20 -29.5t29.5 -20t36 -7.5q67 0 92 75q18 53 67 53q29 0 49.5 -20t20.5 -48q0 -16 -8 -39.5t-20 -43.5q-32 -55 -85 -85.5t-116 -30.5q-48 0 -90 18.5t-73.5 50t-50 73.5t-18.5 90v246q0 48 18.5 90.5t50 74t73.5 49.5t90 18q63 0 116 -30.5
t85 -85.5q12 -20 20 -43.5t8 -39.5q0 -28 -20.5 -48t-49.5 -20q-49 0 -67 53q-25 75 -92 75q-19 0 -36 -7.5t-29.5 -20t-20 -29.5t-7.5 -36v-246z" />
    <glyph glyph-name="D" unicode="D" horiz-adv-x="546" 
d="M280 139q19 0 36 7.5t29.5 20t20 29.5t7.5 36v232q0 19 -7.5 36t-20 29.5t-29.5 20t-36 7.5h-93v-418h93zM141 0q-39 0 -66 27t-27 66v510q0 39 27 66t66 27h139q48 0 90.5 -18t74 -49.5t49.5 -74t18 -90.5v-232q0 -48 -18 -90t-49.5 -73.5t-74 -50t-90.5 -18.5h-139z
" />
    <glyph glyph-name="E" unicode="E" horiz-adv-x="546" 
d="M373 418q37 0 57 -18.5t20 -51.5t-20.5 -51.5t-56.5 -18.5h-185v-139h254q37 0 57.5 -18.5t20.5 -51.5q0 -32 -20.5 -50.5t-57.5 -18.5h-300q-39 0 -66 27t-27 66v510q0 39 27 66t66 27h300q37 0 57.5 -18.5t20.5 -51.5q0 -32 -20.5 -50.5t-57.5 -18.5h-254v-139h185z
" />
    <glyph glyph-name="F" unicode="F" horiz-adv-x="528" 
d="M187 70q0 -36 -18.5 -56.5t-51.5 -20.5q-32 0 -50.5 20.5t-18.5 56.5v533q0 39 27 66t66 27h300q37 0 57.5 -18.5t20.5 -51.5q0 -32 -20.5 -50.5t-57.5 -18.5h-254v-139h185q37 0 57 -18.5t20 -51.5t-20.5 -51.5t-56.5 -18.5h-185v-208z" />
    <glyph glyph-name="G" unicode="G" horiz-adv-x="537" 
d="M336 229q-35 0 -55 17.5t-20 49.5t20 50t55 18h71q39 0 66 -26.5t27 -66.5v-46q0 -48 -18 -90t-49.5 -73.5t-74 -50t-90.5 -18.5t-90 18.5t-73.5 50t-50 73.5t-18.5 90v246q0 48 18.5 90.5t50 74t73.5 49.5t90 18q63 0 116 -30.5t85 -85.5q12 -20 20 -43.5t8 -39.5
q0 -28 -20.5 -48t-49.5 -20q-49 0 -67 53q-25 75 -92 75q-19 0 -36 -7.5t-29.5 -20t-20 -29.5t-7.5 -36v-246q0 -19 7.5 -36t20 -29.5t29.5 -20t36 -7.5q41 0 66.5 26.5t26.5 70.5h-25z" />
    <glyph glyph-name="H" unicode="H" horiz-adv-x="565" 
d="M375 418v208q0 37 18.5 57.5t50.5 20.5q33 0 51.5 -20.5t18.5 -57.5v-556q0 -36 -18.5 -56.5t-51.5 -20.5q-32 0 -50.5 20.5t-18.5 56.5v208h-186v-208q0 -36 -18.5 -56.5t-51.5 -20.5q-32 0 -50.5 20.5t-18.5 56.5v556q0 37 18.5 57.5t50.5 20.5q33 0 51.5 -20.5
t18.5 -57.5v-208h186z" />
    <glyph glyph-name="I" unicode="I" horiz-adv-x="241" 
d="M51 626q0 36 18.5 56.5t50.5 20.5q33 0 51.5 -20.5t18.5 -56.5v-556q0 -36 -18.5 -56.5t-51.5 -20.5q-32 0 -50.5 20.5t-18.5 56.5v556z" />
    <glyph glyph-name="J" unicode="J" horiz-adv-x="528" 
d="M339 626q0 36 18.5 56.5t51.5 20.5t51.5 -20.5t18.5 -56.5v-401q0 -48 -18.5 -90t-50 -73.5t-74 -50t-90.5 -18.5q-62 0 -115 31t-85 85q-13 21 -20.5 44t-7.5 38q0 28 20.5 48t49.5 20q32 0 46.5 -17t22.5 -41q11 -33 36 -51t53 -18q20 0 36.5 7.5t29.5 20t20 29.5t7 36
v401z" />
    <glyph glyph-name="K" unicode="K" horiz-adv-x="500" 
d="M459 92q13 -22 13 -41q0 -23 -20 -40.5t-45 -17.5q-18 0 -31 9t-24 29l-112 198l-56 -97v-64q0 -35 -17.5 -55t-49.5 -20t-50 20t-18 55v560q0 35 18 55t50 20t49.5 -20t17.5 -55v-256l168 293q22 38 54 38q26 0 46 -17.5t20 -40.5q0 -19 -13 -41l-149 -256z" />
    <glyph glyph-name="L" unicode="L" horiz-adv-x="537" 
d="M443 139q37 0 57.5 -18.5t20.5 -51.5q0 -32 -20.5 -50.5t-57.5 -18.5h-300q-39 0 -66 27t-27 66v532q0 37 18.5 57.5t50.5 20.5q33 0 51.5 -20.5t18.5 -57.5v-486h254z" />
    <glyph glyph-name="M" unicode="M" horiz-adv-x="630" 
d="M425 644q20 59 77 59q33 0 56.5 -23.5t23.5 -55.5v-554q0 -36 -18.5 -56.5t-51.5 -20.5t-51.5 20.5t-18.5 56.5v277l-53 -159q-9 -26 -28.5 -41t-45.5 -15q-27 0 -46.5 15t-28.5 41l-53 159v-277q0 -36 -18.5 -56.5t-51.5 -20.5q-32 0 -50.5 20.5t-18.5 56.5v554
q0 32 23.5 55.5t55.5 23.5q57 0 77 -59l111 -331z" />
    <glyph glyph-name="N" unicode="N" horiz-adv-x="565" 
d="M189 70q0 -36 -18.5 -56.5t-51.5 -20.5q-32 0 -50.5 20.5t-18.5 56.5v551q0 34 24 58t58 24q26 0 45.5 -13.5t30.5 -36.5l167 -371v344q0 36 18.5 56.5t50.5 20.5q33 0 51.5 -20.5t18.5 -56.5v-551q0 -34 -24 -58t-58 -24q-26 0 -45.5 13.5t-30.5 36.5l-167 371v-344z
" />
    <glyph glyph-name="O" unicode="O" horiz-adv-x="537" 
d="M175 225q0 -19 7.5 -36t20 -29.5t29.5 -20t36 -7.5t36 7.5t29.5 20t20 29.5t7.5 36v246q0 20 -7.5 36.5t-20 29.5t-29.5 20t-36 7t-36 -7t-29.5 -20t-20 -29.5t-7.5 -36.5v-246zM500 225q0 -48 -18 -90t-49.5 -73.5t-74 -50t-90.5 -18.5t-90 18.5t-73.5 50t-50 73.5
t-18.5 90v246q0 48 18.5 90.5t50 74t73.5 49.5t90 18t90.5 -18t74 -49.5t49.5 -74t18 -90.5v-246z" />
    <glyph glyph-name="P" unicode="P" horiz-adv-x="546" 
d="M280 371q20 0 36.5 7.5t29.5 20t20 29.5t7 36t-7 36t-20 29.5t-29.5 20t-36.5 7.5h-93v-186h93zM187 70q0 -36 -18.5 -56.5t-51.5 -20.5q-32 0 -50.5 20.5t-18.5 56.5v533q0 39 27 66t66 27h139q48 0 90.5 -18t74 -49.5t49.5 -74t18 -90.5t-18 -90t-49.5 -73.5t-74 -50
t-90.5 -18.5h-93v-162z" />
    <glyph glyph-name="Q" unicode="Q" horiz-adv-x="537" 
d="M175 225q0 -19 7.5 -36t20 -29.5t29.5 -20t36 -7.5t36 7.5t29.5 20t20 29.5t7.5 36v246q0 20 -7.5 36.5t-20 29.5t-29.5 20t-36 7t-36 -7t-29.5 -20t-20 -29.5t-7.5 -36.5v-246zM469 -51q3 -9 5 -18t2 -16q0 -25 -20.5 -43t-48.5 -18q-44 0 -62 52l-32 91q-20 -4 -43 -4
q-49 0 -91.5 18t-74 49.5t-50 74t-18.5 90.5v246q0 48 18.5 90.5t50 74t73.5 49.5t90 18t90.5 -18t74 -49.5t49.5 -74t18 -90.5v-246q0 -94 -69 -165z" />
    <glyph glyph-name="R" unicode="R" horiz-adv-x="546" 
d="M282 371q20 0 36.5 7.5t29.5 20t20 29.5t7 36t-7 36t-20 29.5t-29.5 20t-36.5 7.5h-93v-186h93zM485 87q2 -8 4 -17t2 -16q0 -25 -20.5 -43t-48.5 -18q-45 0 -63 53l-62 186h-108v-162q0 -36 -18.5 -56.5t-51.5 -20.5q-32 0 -50.5 20.5t-18.5 56.5v533q0 39 27 66t66 27
h139q48 0 90.5 -18t74 -49.5t49.5 -74t18 -90.5q0 -55 -23.5 -103t-68.5 -82z" />
    <glyph glyph-name="S" unicode="S" horiz-adv-x="481" 
d="M153 313q-121 58 -121 182q0 44 16.5 81.5t45 66t66.5 44.5t82 16q89 0 153 -61q21 -20 30.5 -37t9.5 -35q0 -29 -20.5 -49.5t-49.5 -20.5q-16 0 -28.5 6.5t-31.5 27.5q-27 30 -64 30q-29 0 -49.5 -20t-20.5 -46q0 -18 9.5 -33.5t26.5 -23.5l122 -58q121 -58 121 -182
q0 -44 -16.5 -82t-45 -66t-67 -44t-82.5 -16q-89 0 -153 61q-21 20 -30.5 37t-9.5 35q0 28 20.5 49t49.5 21q20 0 32 -7.5t28 -25.5q14 -15 31.5 -23t33.5 -8q29 0 49.5 20t20.5 47q0 18 -9.5 33t-26.5 23z" />
    <glyph glyph-name="T" unicode="T" horiz-adv-x="528" 
d="M334 70q0 -36 -18.5 -56.5t-51.5 -20.5q-32 0 -50.5 20.5t-18.5 56.5v487h-92q-37 0 -57.5 18.5t-20.5 50.5q0 33 20.5 51.5t57.5 18.5h323q37 0 57.5 -18.5t20.5 -51.5q0 -32 -20.5 -50.5t-57.5 -18.5h-92v-487z" />
    <glyph glyph-name="U" unicode="U" horiz-adv-x="565" 
d="M375 626q0 36 18.5 56.5t50.5 20.5q33 0 51.5 -20.5t18.5 -56.5v-401q0 -48 -18 -90t-49.5 -73.5t-74 -50t-90.5 -18.5t-90 18.5t-73.5 50t-50 73.5t-18.5 90v401q0 36 18.5 56.5t50.5 20.5q33 0 51.5 -20.5t18.5 -56.5v-401q0 -18 7.5 -34.5t20.5 -29.5t30 -21t35 -8
q19 0 36 7.5t29.5 20t20 29.5t7.5 36v401z" />
    <glyph glyph-name="V" unicode="V" horiz-adv-x="491" 
d="M327 644q12 59 66 59q29 0 48.5 -18.5t19.5 -44.5q0 -8 -0.5 -14t-2.5 -13l-128 -549q-8 -33 -30.5 -52t-54.5 -19t-54 19t-30 52l-129 549q-3 14 -3 27q0 26 20 44.5t49 18.5q53 0 65 -59l82 -387z" />
    <glyph glyph-name="W" unicode="W" horiz-adv-x="815" 
d="M328 63q-7 -32 -29.5 -51t-53.5 -19q-32 0 -54 19t-30 51l-129 550q-3 14 -3 28q0 26 20 44t48 18q54 0 66 -59l82 -387l80 375q7 33 29 52t54 19t54 -19t29 -52l79 -375l82 387q12 59 66 59q27 0 47.5 -18t20.5 -44q0 -7 -1 -15t-2 -13l-129 -550q-8 -32 -30 -51
t-53 -19q-32 0 -54.5 19t-29.5 51l-79 376z" />
    <glyph glyph-name="X" unicode="X" horiz-adv-x="454" 
d="M151 36q-21 -43 -58 -43q-26 0 -46 17.5t-20 40.5q0 17 10 39l120 258l-120 258q-10 23 -10 38q0 12 5.5 22.5t14.5 18.5t21 13t25 5q37 0 58 -43l76 -163l75 163q19 43 58 43q13 0 25 -5t21 -13t14.5 -18.5t5.5 -22.5q0 -16 -10 -38l-120 -258l120 -258q10 -22 10 -38
q0 -12 -5.5 -22.5t-14.5 -18.5t-21 -13t-25 -5q-38 0 -58 43l-75 163z" />
    <glyph glyph-name="Y" unicode="Y" horiz-adv-x="472" 
d="M306 70q0 -36 -18.5 -56.5t-50.5 -20.5q-33 0 -51.5 20.5t-18.5 56.5v208l-128 330q-8 20 -8 36q0 23 20.5 41t47.5 18q43 0 60 -48l78 -216l77 216q17 48 60 48q27 0 47.5 -18t20.5 -41q0 -8 -1.5 -16t-6.5 -20l-128 -330v-208z" />
    <glyph glyph-name="Z" unicode="Z" horiz-adv-x="537" 
d="M428 139q37 0 57 -18.5t20 -51.5q0 -32 -20 -50.5t-57 -18.5h-303q-20 0 -38 7.5t-31.5 21t-21 31t-7.5 37.5q0 31 19 58l290 402h-231q-37 0 -57.5 18.5t-20.5 50.5q0 33 20.5 51.5t57.5 18.5h303q20 0 38 -7.5t31.5 -21t21 -31t7.5 -37.5q0 -32 -19 -58l-290 -402h231z
" />
    <glyph glyph-name="bracketleft" unicode="[" horiz-adv-x="361" 
d="M187 139h69q37 0 57 -18.5t20 -51.5q0 -32 -20.5 -50.5t-56.5 -18.5h-115q-39 0 -66 27t-27 66v510q0 39 27 66t66 27h115q37 0 57 -18.5t20 -51.5q0 -32 -20.5 -50.5t-56.5 -18.5h-69v-418z" />
    <glyph glyph-name="backslash" unicode="\" horiz-adv-x="370" 
d="M333 86q2 -8 3.5 -15.5t1.5 -16.5q0 -24 -20 -42.5t-49 -18.5q-47 0 -63 55l-169 562q-5 18 -5 32q0 12 6 23.5t15.5 19.5t22 13t25.5 5q48 0 64 -55z" />
    <glyph glyph-name="bracketright" unicode="]" horiz-adv-x="361" 
d="M105 557q-36 0 -56.5 18.5t-20.5 50.5q0 33 20.5 51.5t56.5 18.5h116q19 0 36 -7t29.5 -20t20 -29.5t7.5 -36.5v-510q0 -19 -7.5 -36t-20 -30t-29.5 -20t-36 -7h-116q-36 0 -56.5 18.5t-20.5 50.5q0 33 20.5 51.5t56.5 18.5h69v418h-69z" />
    <glyph glyph-name="asciicircum" unicode="^" horiz-adv-x="398" 
d="M143 426q-16 -39 -50 -39q-22 0 -39 15t-17 34q0 16 7 31l73 173q14 33 33.5 48t48.5 15t48 -15t33 -48l73 -173q7 -16 7 -30q0 -22 -18 -36t-38 -14q-33 0 -49 39l-56 133z" />
    <glyph glyph-name="underscore" unicode="_" horiz-adv-x="407" 
d="M307 139q37 0 57 -18.5t20 -51.5q0 -32 -20.5 -50.5t-56.5 -18.5h-207q-37 0 -57.5 18.5t-20.5 50.5q0 33 20.5 51.5t57.5 18.5h207z" />
    <glyph glyph-name="grave" unicode="`" horiz-adv-x="222" 
d="M54 628q-5 8 -8.5 17t-3.5 15q0 18 15 32.5t35 14.5q26 0 42 -27l29 -50q11 -19 11 -32q0 -17 -14.5 -31t-33.5 -14q-22 0 -39 26z" />
    <glyph glyph-name="a" unicode="a" horiz-adv-x="435" 
d="M175 186q-14 0 -24.5 -10.5t-10.5 -24.5t10.5 -24.5t24.5 -10.5h35q27 0 44 17.5t17 46.5v6h-96zM395 64q0 -33 -17 -51.5t-48 -18.5q-20 0 -35.5 9.5t-23.5 25.5q-20 -16 -36 -22.5t-33 -6.5h-27q-31 0 -58.5 12t-48 32.5t-32.5 48t-12 58.5t12 58.5t32.5 48t48 32.5
t58.5 12h96q-1 31 -17.5 49t-44.5 18q-13 0 -23 -4.5t-22 -15.5q-13 -12 -22.5 -16.5t-22.5 -4.5q-26 0 -44.5 18.5t-18.5 44.5q0 19 13.5 37t35 32.5t49 23.5t55.5 9q40 0 74 -14.5t59 -40.5t39 -60.5t14 -75.5v-238z" />
    <glyph glyph-name="b" unicode="b" horiz-adv-x="435" 
d="M287 302q0 25 -18 43t-43 18q-26 0 -44 -18t-18 -43v-117q0 -25 18 -43t44 -18q25 0 43 18t18 44v116zM164 458q34 29 83 29q35 0 65 -14t52 -38.5t34.5 -58.5t12.5 -74v-116q0 -40 -12.5 -74t-34.5 -59t-52 -39t-65 -14q-50 0 -83 29q-8 -17 -23.5 -26t-35.5 -9
q-31 0 -48 18.5t-17 51.5v568q0 33 16.5 51.5t45.5 18.5t45.5 -18.5t16.5 -51.5v-174z" />
    <glyph glyph-name="c" unicode="c" 
d="M148 180q0 -26 18 -44t44 -18q42 0 58 44q19 47 61 47q25 0 43.5 -18t18.5 -43q0 -13 -5.5 -29t-14.5 -32q-26 -44 -68.5 -68.5t-92.5 -24.5q-39 0 -72.5 14.5t-59 40t-40 59t-14.5 72.5v127q0 39 14.5 72.5t40 59t59 40t72.5 14.5q50 0 92.5 -24.5t68.5 -68.5
q9 -16 14.5 -32t5.5 -29q0 -25 -18.5 -43t-43.5 -18q-23 0 -37 11t-24 36q-16 44 -58 44q-26 0 -44 -18t-18 -44v-127z" />
    <glyph glyph-name="d" unicode="d" horiz-adv-x="435" 
d="M271 302q0 25 -18 43t-43 18q-26 0 -44 -18t-18 -43v-116q0 -26 18 -44t44 -18q25 0 43 18t18 43v117zM271 632q0 33 16.5 51.5t45.5 18.5t45.5 -18.5t16.5 -51.5v-568q0 -33 -17 -51.5t-48 -18.5q-20 0 -35.5 9t-23.5 26q-33 -29 -83 -29q-35 0 -65 14t-52 39t-34.5 59
t-12.5 74v116q0 40 12.5 74t34.5 58.5t52 38.5t65 14q49 0 83 -29v174z" />
    <glyph glyph-name="e" unicode="e" 
d="M273 303q0 31 -18 50.5t-47 19.5t-47.5 -19.5t-18.5 -50.5h131zM142 180q0 -27 19.5 -46.5t46.5 -19.5q24 0 44 16q12 9 20.5 13.5t24.5 4.5q25 0 41 -17.5t16 -41.5q0 -18 -12.5 -35.5t-33 -30.5t-47 -21t-54.5 -8q-38 0 -72 14.5t-59 40t-39.5 59t-14.5 72.5v127
q0 39 14.5 72.5t40 59t59 40t72.5 14.5q38 0 72 -14.5t59 -40t39.5 -59t14.5 -72.5v-47q0 -27 -19 -46t-46 -19h-186v-15z" />
    <glyph glyph-name="f" unicode="f" horiz-adv-x="361" 
d="M101 510q0 38 14.5 71.5t39 59t56.5 40.5t68 15q28 0 46 -18t18 -44q0 -57 -61 -63q-57 -6 -57 -69v-15h48q33 0 51.5 -16.5t18.5 -45.5t-18.5 -45.5t-51.5 -16.5h-48v-299q0 -33 -16.5 -51.5t-45.5 -18.5t-45.5 18.5t-16.5 51.5v299h-14q-32 0 -50.5 16.5t-18.5 45.5
t18.5 45.5t50.5 16.5h14v23z" />
    <glyph glyph-name="g" unicode="g" horiz-adv-x="435" 
d="M150 186q0 -26 18 -44t44 -18q25 0 43 18t18 43v117q0 25 -18 43t-43 18q-26 0 -44 -18t-18 -43v-116zM26 302q0 40 12.5 74t34.5 58.5t52 38.5t65 14q50 0 83 -29q8 17 23.5 26t35.5 9q31 0 48 -18.5t17 -50.5v-447q0 -38 -14.5 -72t-39.5 -59.5t-59 -40t-72 -14.5
q-27 0 -51 7t-42 18.5t-28.5 27t-10.5 32.5q0 26 18.5 44t44.5 18q11 0 18 -2.5t22 -12.5q11 -8 28 -8q26 0 44 18t18 44v52q-32 -29 -83 -29q-35 0 -65 14t-52 39t-34.5 59t-12.5 74v116z" />
    <glyph glyph-name="h" unicode="h" horiz-adv-x="454" 
d="M165 458q33 29 85 29q35 0 64.5 -14t51 -39t34 -59t12.5 -73v-238q0 -33 -16.5 -51.5t-45.5 -18.5t-45.5 18.5t-16.5 51.5v238q0 25 -18 43t-43 18q-26 0 -44 -18t-18 -43v-238q0 -33 -16.5 -51.5t-45.5 -18.5t-45.5 18.5t-16.5 51.5v568q0 33 16.5 51.5t45.5 18.5
t45.5 -18.5t16.5 -51.5v-174z" />
    <glyph glyph-name="i" unicode="i" horiz-adv-x="204" 
d="M103 701q27 0 46.5 -20t19.5 -47q0 -29 -19.5 -48.5t-48.5 -19.5q-28 0 -47.5 20t-19.5 48t20 47.5t49 19.5zM40 424q0 32 16.5 50.5t45.5 18.5t45.5 -18.5t16.5 -50.5v-360q0 -33 -16.5 -51.5t-45.5 -18.5t-45.5 18.5t-16.5 51.5v360z" />
    <glyph glyph-name="j" unicode="j" horiz-adv-x="204" 
d="M103 701q27 0 46.5 -20t19.5 -47q0 -29 -19.5 -48.5t-48.5 -19.5q-28 0 -47.5 20t-19.5 48t20 47.5t49 19.5zM40 424q0 33 16.5 51t45.5 18t45.5 -18t16.5 -51v-447q0 -39 -15 -72.5t-40.5 -59t-60.5 -40t-74 -14.5q-26 0 -44 18t-18 44q0 27 18.5 44t47.5 18
q25 0 43.5 19t18.5 43v447z" />
    <glyph glyph-name="k" unicode="k" horiz-adv-x="454" 
d="M413 86q11 -21 11 -35q0 -23 -18 -40t-43 -17q-31 0 -51 37l-96 176l-49 -58v-88q0 -32 -15.5 -49.5t-44.5 -17.5t-44.5 17.5t-15.5 49.5v574q0 32 15.5 49.5t44.5 17.5t44.5 -17.5t15.5 -49.5v-330l141 166q20 24 41 24q20 0 36.5 -15.5t16.5 -34.5t-17 -39l-92 -108z
" />
    <glyph glyph-name="l" unicode="l" horiz-adv-x="268" 
d="M40 632q0 33 16.5 51.5t45.5 18.5t45.5 -18.5t16.5 -51.5v-442q0 -28 19 -46.5t47 -19.5q26 -1 44 -18.5t18 -43.5t-18 -44t-44 -18q-39 0 -74 15t-60.5 40.5t-40.5 60.5t-15 74v442z" />
    <glyph glyph-name="m" unicode="m" horiz-adv-x="704" 
d="M38 424q0 32 17 50.5t48 18.5q20 0 36.5 -9.5t22.5 -25.5q15 13 34.5 21t47.5 8q70 0 121 -51q53 51 123 51q40 0 75 -17t61 -47q23 -26 31.5 -54t8.5 -67v-238q0 -33 -16.5 -51.5t-45.5 -18.5t-45.5 18.5t-16.5 51.5v236q0 26 -18.5 44.5t-44.5 18.5q-27 0 -45.5 -18.5
t-18.5 -44.5v-236q0 -33 -16.5 -51.5t-45.5 -18.5t-45.5 18.5t-16.5 51.5v236q0 26 -18.5 44.5t-44.5 18.5t-45 -18.5t-19 -44.5v-236q0 -33 -16.5 -51.5t-45.5 -18.5t-45.5 18.5t-16.5 51.5v360z" />
    <glyph glyph-name="n" unicode="n" horiz-adv-x="454" 
d="M41 424q0 32 17 50.5t48 18.5q43 0 59 -35q34 29 83 29q35 0 65 -14t52 -38.5t34.5 -58.5t12.5 -74v-238q0 -33 -16.5 -51.5t-45.5 -18.5t-45.5 18.5t-16.5 51.5v238q0 25 -18 43t-43 18q-26 0 -44 -18t-18 -43v-238q0 -33 -16.5 -51.5t-45.5 -18.5t-45.5 18.5
t-16.5 51.5v360z" />
    <glyph glyph-name="o" unicode="o" 
d="M147 180q0 -26 18 -44t44 -18q25 0 43 18t18 44v127q0 26 -18 44t-43 18q-26 0 -44 -18t-18 -44v-127zM394 180q0 -38 -14.5 -72t-39.5 -59.5t-59 -40t-72 -14.5q-39 0 -72.5 14.5t-59 40t-40 59.5t-14.5 72v127q0 39 14.5 72.5t40 59t59 40t72.5 14.5q38 0 72 -14.5
t59 -40t39.5 -59t14.5 -72.5v-127z" />
    <glyph glyph-name="p" unicode="p" horiz-adv-x="435" 
d="M164 185q0 -25 18 -43t44 -18q25 0 43 18t18 44v116q0 25 -18 43t-43 18q-26 0 -44 -18t-18 -43v-117zM164 -140q0 -32 -16.5 -50.5t-45.5 -18.5t-45.5 18.5t-16.5 50.5v564q0 32 17 50.5t48 18.5q20 0 35.5 -9t23.5 -26q33 29 83 29q35 0 65 -14t52 -38.5t34.5 -58.5
t12.5 -74v-116q0 -40 -12.5 -74t-34.5 -59t-52 -39t-65 -14q-51 0 -83 29v-169z" />
    <glyph glyph-name="q" unicode="q" horiz-adv-x="435" 
d="M148 186q0 -26 18 -44t44 -18q25 0 43 18t18 43v117q0 25 -18 43t-43 18q-26 0 -44 -18t-18 -43v-116zM271 29q-32 -29 -83 -29q-35 0 -65 14t-52 39t-34.5 59t-12.5 74v116q0 40 12.5 74t34.5 58.5t52 38.5t65 14q50 0 83 -29q8 17 23.5 26t35.5 9q31 0 48 -18.5
t17 -50.5v-564q0 -32 -16.5 -50.5t-45.5 -18.5t-45.5 18.5t-16.5 50.5v169z" />
    <glyph glyph-name="r" unicode="r" horiz-adv-x="370" 
d="M40 423q0 33 17 51t48 18q43 0 59 -34q33 29 80 29q23 0 44 -6.5t36.5 -17.5t24.5 -25.5t9 -31.5q0 -26 -19 -44.5t-45 -18.5q-17 0 -40 13q-14 7 -28 7q-26 0 -44 -18t-18 -44v-237q0 -33 -16.5 -51.5t-45.5 -18.5t-45.5 18.5t-16.5 51.5v359z" />
    <glyph glyph-name="s" unicode="s" horiz-adv-x="343" 
d="M241 270q76 -50 76 -128q0 -31 -12 -58t-33 -47t-49.5 -31.5t-61.5 -11.5q-26 0 -51 9t-45 23.5t-32 33t-12 37.5q0 25 18 43t43 18q17 0 28.5 -6t26.5 -23q5 -5 11.5 -9t14.5 -4q12 0 20.5 7.5t8.5 18.5q0 12 -19 25l-76 50q-76 50 -76 128q0 31 12 58t33 47t49.5 31.5
t61.5 11.5q26 0 51 -9t45 -23.5t32 -33t12 -38.5q0 -23 -17 -41.5t-42 -18.5q-17 0 -28.5 6t-27.5 24q-12 12 -27 12q-12 0 -20.5 -7.5t-8.5 -18.5q0 -12 19 -25z" />
    <glyph glyph-name="t" unicode="t" horiz-adv-x="361" 
d="M101 632q0 33 16.5 51t45.5 18t45.5 -18t16.5 -51v-145h48q33 0 51.5 -16.5t18.5 -45.5t-18.5 -45.5t-51.5 -16.5h-48v-169q0 -64 57 -70q61 -6 61 -62q0 -27 -18 -44.5t-46 -17.5q-36 0 -68 15t-56.5 40.5t-39 59.5t-14.5 71v177h-14q-32 0 -50.5 16.5t-18.5 45.5
t18.5 45.5t50.5 16.5h14v145z" />
    <glyph glyph-name="u" unicode="u" horiz-adv-x="454" 
d="M412 64q0 -33 -17 -51.5t-48 -18.5q-20 0 -35.5 9t-23.5 26q-34 -29 -83 -29q-35 0 -65 14t-52 39t-34.5 59t-12.5 74v238q0 32 16.5 50.5t45.5 18.5t45.5 -18.5t16.5 -50.5v-238q0 -26 18 -44t44 -18q25 0 43 18t18 43v239q0 32 16.5 50.5t45.5 18.5t45.5 -18.5
t16.5 -50.5v-360z" />
    <glyph glyph-name="v" unicode="v" horiz-adv-x="398" 
d="M251 440q11 53 58 53q25 0 43 -16t18 -39q0 -15 -3 -26l-77 -324q-4 -18 -10.5 -35t-16.5 -29.5t-25.5 -20t-38.5 -7.5q-22 0 -37.5 7.5t-25.5 20t-16 29.5t-11 35l-78 324q-3 14 -3 26q0 23 18 39t43 16q48 0 59 -53l51 -240z" />
    <glyph glyph-name="w" unicode="w" horiz-adv-x="657" 
d="M291 88q-10 -49 -31.5 -71.5t-58.5 -22.5q-21 0 -36.5 8t-26 21.5t-17.5 30t-11 34.5l-77 324q-3 14 -3 25q0 23 17.5 39.5t43.5 16.5q48 0 59 -53l55 -261l46 233q3 15 8 30t13.5 26t22 18t33.5 7q21 0 34 -6.5t21.5 -17.5t13.5 -25.5t8 -31.5l46 -233l56 261
q11 53 58 53q26 0 44 -16.5t18 -39.5q0 -4 -1 -12t-3 -13l-77 -324q-4 -18 -10 -35t-16 -30t-25.5 -21t-38.5 -8q-72 0 -91 94l-37 186z" />
    <glyph glyph-name="x" unicode="x" 
d="M375 84q14 -21 14 -37q0 -20 -17.5 -36.5t-39.5 -16.5q-27 0 -47 30l-77 120l-77 -120q-19 -30 -46 -30q-22 0 -39.5 16.5t-17.5 36.5q0 15 14 37l102 160l-102 159q-14 22 -14 37q0 20 17.5 36.5t39.5 16.5q27 0 46 -30l77 -120l77 120q20 30 47 30q22 0 39.5 -16
t17.5 -37q0 -15 -14 -37l-103 -159z" />
    <glyph glyph-name="y" unicode="y" horiz-adv-x="454" 
d="M305 445q15 48 56 48q25 0 43 -16t18 -38q0 -17 -4 -29l-152 -481q-20 -65 -62.5 -100.5t-102.5 -35.5q-26 0 -43.5 18t-17.5 44q0 53 61 62q23 3 34.5 14.5t19.5 38.5l8 28l-127 412q-5 17 -5 29q0 22 18 38t43 16q42 0 56 -48l77 -268z" />
    <glyph glyph-name="z" unicode="z" 
d="M331 124q33 0 51 -16.5t18 -45.5t-18 -45.5t-51 -16.5h-228q-18 0 -33.5 6.5t-27 18t-18 27t-6.5 32.5q0 32 24 61l192 218h-147q-32 0 -50.5 16.5t-18.5 45.5t18.5 45.5t50.5 16.5h229q35 0 60 -24.5t25 -59.5q0 -34 -24 -61l-192 -218h146z" />
    <glyph glyph-name="braceleft" unicode="{" horiz-adv-x="324" 
d="M185 441q0 -49 -31 -93q16 -20 23.5 -44t7.5 -49v-81q0 -21 15 -38t39 -20q29 -4 42 -20t13 -38q0 -23 -17 -40t-41 -17q-33 0 -63.5 14t-53.5 37.5t-36.5 55t-13.5 66.5v81q0 10 -3.5 16.5t-13.5 13.5q-37 28 -37 63t37 63q10 7 13.5 13.5t3.5 16.5v81q0 35 13.5 66.5
t36.5 55.5t53.5 38t63.5 14q24 0 41 -17.5t17 -40.5t-15 -39t-40 -19q-25 -4 -39.5 -19.5t-14.5 -38.5v-81z" />
    <glyph glyph-name="bar" unicode="|" horiz-adv-x="241" 
d="M51 626q0 36 18.5 56.5t50.5 20.5q33 0 51.5 -20.5t18.5 -56.5v-757q0 -37 -18.5 -57.5t-51.5 -20.5q-32 0 -50.5 20.5t-18.5 57.5v757z" />
    <glyph glyph-name="braceright" unicode="}" horiz-adv-x="324" 
d="M139 255q0 50 31 93q-31 44 -31 93v81q0 23 -14.5 38.5t-39.5 19.5q-25 3 -40 19t-15 39t17 40.5t41 17.5q33 0 63.5 -14t53.5 -38t36.5 -55.5t13.5 -66.5v-81q0 -10 3.5 -16.5t13.5 -13.5q36 -27 36 -63q0 -16 -9.5 -33t-26.5 -30q-10 -7 -13.5 -13.5t-3.5 -16.5v-81
q0 -35 -13.5 -66.5t-36.5 -55t-53.5 -37.5t-63.5 -14q-24 0 -41 17t-17 40t15 39t40 19q25 4 39.5 19.5t14.5 38.5v81z" />
    <glyph glyph-name="asciitilde" unicode="~" horiz-adv-x="343" 
d="M123 575q-9 0 -15.5 -2.5t-14.5 -10.5q-13 -12 -29 -12q-17 0 -29 12t-12 28q0 12 8.5 24t23 21.5t32.5 15.5t36 6q10 0 17 -1t15 -3.5t18 -7t25 -12.5q10 -5 21 -5q9 0 15.5 2.5t14.5 10.5q13 13 29 13q17 0 29 -12t12 -29q0 -12 -8.5 -24t-23 -21.5t-32.5 -15.5t-36 -6
q-9 0 -16.5 1t-15 3t-17 6.5t-22.5 11.5t-25 7z" />
    <glyph glyph-name="Adieresis" unicode="&#xc4;" horiz-adv-x="630" 
d="M397 895q26 0 44 -18.5t18 -44.5t-18.5 -45t-44.5 -19t-45 19t-19 45t19 44.5t46 18.5zM235 895q26 0 44 -18.5t18 -44.5t-18.5 -45t-44.5 -19t-45 19t-19 45t19 44.5t46 18.5zM384 278l-69 228l-70 -228h139zM199 139l-32 -94q-18 -52 -63 -52q-27 0 -47.5 18t-20.5 43
q0 6 1.5 15.5t4.5 17.5l181 544q25 72 92 72q66 0 91 -72l181 -544q2 -8 4 -17.5t2 -16.5q0 -24 -20.5 -42t-47.5 -18q-45 0 -63 52l-31 94h-232z" />
    <glyph glyph-name="Aring" unicode="&#xc5;" horiz-adv-x="630" 
d="M315 894q-20 0 -33.5 -13.5t-13.5 -33.5q0 -19 13.5 -33t33.5 -14q19 0 32.5 13.5t13.5 33.5t-13.5 33.5t-32.5 13.5zM316 940q19 0 35.5 -7.5t29 -20t19.5 -29.5t7 -36t-7 -36t-19.5 -29.5t-29.5 -20t-36 -7.5q-39 0 -66 27.5t-27 66.5q0 19 7.5 36t20 29.5t30 19.5
t36.5 7zM384 278l-69 228l-70 -228h139zM199 139l-32 -94q-18 -52 -63 -52q-27 0 -47.5 18t-20.5 43q0 6 1.5 15.5t4.5 17.5l181 544q25 72 92 72q66 0 91 -72l181 -544q2 -8 4 -17.5t2 -16.5q0 -24 -20.5 -42t-47.5 -18q-45 0 -63 52l-31 94h-232z" />
    <glyph glyph-name="Ccedilla" unicode="&#xc7;" horiz-adv-x="537" 
d="M292 -27q26 -9 41.5 -30t15.5 -47q0 -35 -23.5 -58.5t-57.5 -23.5h-21q-33 0 -33 29q0 14 9 21.5t24 7.5h21q10 0 16.5 6.5t6.5 16.5t-7 17t-17 7h-12q-19 0 -24 12t-3 26l5 39q-42 6 -78 26.5t-62 51t-41 69.5t-15 82v246q0 48 18.5 90.5t50 74t73.5 49.5t90 18
q63 0 116 -30.5t85 -85.5q12 -20 20 -43.5t8 -39.5q0 -28 -20.5 -48t-49.5 -20q-49 0 -67 53q-25 75 -92 75q-39 0 -66 -27t-27 -66v-246q0 -19 7.5 -36t20 -29.5t29.5 -20t36 -7.5q67 0 92 75q18 53 67 53q29 0 49.5 -20t20.5 -48q0 -15 -6 -33.5t-16 -37.5t-23.5 -36.5
t-28.5 -31.5q-54 -50 -128 -59z" />
    <glyph glyph-name="Eacute" unicode="&#xc9;" horiz-adv-x="546" 
d="M251 889q16 27 41 27q20 0 35 -14.5t15 -32.5q0 -7 -3.5 -16t-8.5 -17l-32 -48q-17 -26 -39 -26q-20 0 -34.5 14t-14.5 31q0 7 2 13.5t9 17.5zM373 418q37 0 57 -18.5t20 -51.5t-20.5 -51.5t-56.5 -18.5h-185v-139h254q37 0 57.5 -18.5t20.5 -51.5q0 -32 -20.5 -50.5
t-57.5 -18.5h-300q-39 0 -66 27t-27 66v510q0 39 27 66t66 27h300q37 0 57.5 -18.5t20.5 -51.5q0 -32 -20.5 -50.5t-57.5 -18.5h-254v-139h185z" />
    <glyph glyph-name="Ntilde" unicode="&#xd1;" horiz-adv-x="565" 
d="M189 70q0 -36 -18.5 -56.5t-51.5 -20.5q-32 0 -50.5 20.5t-18.5 56.5v551q0 34 24 58t58 24q26 0 45.5 -13.5t30.5 -36.5l167 -371v344q0 36 18.5 56.5t50.5 20.5q33 0 51.5 -20.5t18.5 -56.5v-551q0 -34 -24 -58t-58 -24q-26 0 -45.5 13.5t-30.5 36.5l-167 371v-344z
M234 784q-9 0 -15 -2.5t-14 -10.5q-14 -13 -30 -13q-17 0 -29 12t-12 29q0 12 8.5 24t23 21.5t32.5 15.5t36 6q10 0 17.5 -1t15.5 -3.5t17.5 -7t24.5 -12.5q5 -3 11 -4t11 -1q10 0 15.5 3t13.5 10t15.5 9.5t14.5 2.5q17 0 29 -11.5t12 -28.5q0 -12 -8.5 -24t-23 -21.5
t-32.5 -15.5t-37 -6q-9 0 -16.5 1t-15 3t-17 6.5t-22.5 11.5q-14 7 -25 7z" />
    <glyph glyph-name="Odieresis" unicode="&#xd6;" horiz-adv-x="537" 
d="M350 895q26 0 44 -18.5t18 -44.5t-18.5 -45t-44.5 -19t-45 19t-19 45t19 44.5t46 18.5zM188 896q26 0 44.5 -19t18.5 -45t-19 -45t-45 -19t-45 19t-19 46q0 26 19 44.5t46 18.5zM175 225q0 -19 7.5 -36t20 -29.5t29.5 -20t36 -7.5t36 7.5t29.5 20t20 29.5t7.5 36v246
q0 20 -7.5 36.5t-20 29.5t-29.5 20t-36 7t-36 -7t-29.5 -20t-20 -29.5t-7.5 -36.5v-246zM500 225q0 -48 -18 -90t-49.5 -73.5t-74 -50t-90.5 -18.5t-90 18.5t-73.5 50t-50 73.5t-18.5 90v246q0 48 18.5 90.5t50 74t73.5 49.5t90 18t90.5 -18t74 -49.5t49.5 -74t18 -90.5
v-246z" />
    <glyph glyph-name="Udieresis" unicode="&#xdc;" horiz-adv-x="565" 
d="M375 626q0 36 18.5 56.5t50.5 20.5q33 0 51.5 -20.5t18.5 -56.5v-401q0 -48 -18 -90t-49.5 -73.5t-74 -50t-90.5 -18.5t-90 18.5t-73.5 50t-50 73.5t-18.5 90v401q0 36 18.5 56.5t50.5 20.5q33 0 51.5 -20.5t18.5 -56.5v-401q0 -19 7.5 -36t20 -29.5t29.5 -20t36 -7.5
t36 7.5t29.5 20t20 29.5t7.5 36v401zM364 895q26 0 44 -18.5t18 -44.5t-18.5 -45t-44.5 -19t-45 19t-19 45t19 44.5t46 18.5zM202 896q26 0 44.5 -19t18.5 -45t-19 -45t-45 -19t-45 19t-19 46q0 26 19 44.5t46 18.5z" />
    <glyph glyph-name="aacute" unicode="&#xe1;" horiz-adv-x="435" 
d="M175 186q-14 0 -24.5 -10.5t-10.5 -24.5t10.5 -24.5t24.5 -10.5h35q27 0 44 17.5t17 46.5v6h-96zM395 64q0 -33 -17 -51.5t-48 -18.5q-20 0 -35.5 9.5t-23.5 25.5q-20 -16 -36 -22.5t-33 -6.5h-27q-31 0 -58.5 12t-48 32.5t-32.5 48t-12 58.5t12 58.5t32.5 48t48 32.5
t58.5 12h96q-1 31 -17.5 49t-44.5 18q-13 0 -23 -4.5t-22 -15.5q-13 -12 -22.5 -16.5t-22.5 -4.5q-26 0 -44.5 18.5t-18.5 44.5q0 19 13.5 37t35 32.5t49 23.5t55.5 9q40 0 74 -14.5t59 -40.5t39 -60.5t14 -75.5v-238zM195 680q16 27 41 27q20 0 35 -14.5t15 -32.5
q0 -6 -3.5 -15t-8.5 -17l-32 -49q-17 -26 -39 -26q-20 0 -34.5 14t-14.5 31q0 7 2.5 13.5t9.5 18.5z" />
    <glyph glyph-name="agrave" unicode="&#xe0;" horiz-adv-x="435" 
d="M175 186q-14 0 -24.5 -10.5t-10.5 -24.5t10.5 -24.5t24.5 -10.5h35q27 0 44 17.5t17 46.5v6h-96zM395 64q0 -33 -17 -51.5t-48 -18.5q-20 0 -35.5 9.5t-23.5 25.5q-12 -10 -29.5 -19.5t-39.5 -9.5h-27q-31 0 -58.5 12t-48 32.5t-32.5 48t-12 58.5t12 58.5t32.5 48
t48 32.5t58.5 12h96q0 27 -15 47t-47 20q-13 0 -23 -4.5t-22 -15.5q-13 -12 -22.5 -16.5t-22.5 -4.5q-26 0 -44.5 18.5t-18.5 44.5q0 19 13.5 37t35 32.5t49 23.5t55.5 9q40 0 74 -14.5t59 -40.5t39 -60.5t14 -75.5v-238zM161 628q-5 8 -8.5 16.5t-3.5 15.5q0 18 15 32.5
t35 14.5q13 0 23 -7.5t18 -19.5l30 -50q7 -11 9 -18t2 -14q0 -17 -14.5 -31t-33.5 -14q-22 0 -39 26z" />
    <glyph glyph-name="acircumflex" unicode="&#xe2;" horiz-adv-x="435" 
d="M175 186q-14 0 -24.5 -10.5t-10.5 -24.5t10.5 -24.5t24.5 -10.5h35q27 0 44 17.5t17 46.5v6h-96zM395 64q0 -33 -17 -51.5t-48 -18.5q-20 0 -35.5 9.5t-23.5 25.5q-20 -16 -36 -22.5t-33 -6.5h-27q-31 0 -58.5 12t-48 32.5t-32.5 48t-12 58.5t12 58.5t32.5 48t48 32.5
t58.5 12h96q-1 31 -17.5 49t-44.5 18q-13 0 -23 -4.5t-22 -15.5q-13 -12 -22.5 -16.5t-22.5 -4.5q-26 0 -44.5 18.5t-18.5 44.5q0 19 13.5 37t35 32.5t49 23.5t55.5 9q40 0 74 -14.5t59 -40.5t39 -60.5t14 -75.5v-238zM187 581q-11 -16 -19.5 -22t-20.5 -6q-20 0 -34.5 13.5
t-14.5 31.5q0 12 10 30l29 48q14 24 41 24h79q28 0 42 -24l28 -48q10 -17 10 -30q0 -17 -14.5 -31t-33.5 -14q-13 0 -21 6t-19 22l-31 47z" />
    <glyph glyph-name="adieresis" unicode="&#xe4;" horiz-adv-x="435" 
d="M175 186q-14 0 -24.5 -10.5t-10.5 -24.5t10.5 -24.5t24.5 -10.5h35q27 0 44 17.5t17 46.5v6h-96zM395 64q0 -33 -17 -51.5t-48 -18.5q-20 0 -35.5 9.5t-23.5 25.5q-20 -16 -36 -22.5t-33 -6.5h-27q-31 0 -58.5 12t-48 32.5t-32.5 48t-12 58.5t12 58.5t32.5 48t48 32.5
t58.5 12h96q-1 31 -17.5 49t-44.5 18q-13 0 -23 -4.5t-22 -15.5q-13 -12 -22.5 -16.5t-22.5 -4.5q-26 0 -44.5 18.5t-18.5 44.5q0 19 13.5 37t35 32.5t49 23.5t55.5 9q40 0 74 -14.5t59 -40.5t39 -60.5t14 -75.5v-238zM300 686q26 0 44 -18.5t18 -44.5t-18.5 -45t-44.5 -19
t-45 19t-19 45t19 44.5t46 18.5zM138 686q26 0 44 -18.5t18 -44.5t-18.5 -45t-44.5 -19t-45 19t-19 45t19 44.5t46 18.5z" />
    <glyph glyph-name="atilde" unicode="&#xe3;" horiz-adv-x="435" 
d="M175 186q-14 0 -24.5 -10.5t-10.5 -24.5t10.5 -24.5t24.5 -10.5h35q27 0 44 17.5t17 46.5v6h-96zM395 64q0 -33 -17 -51.5t-48 -18.5q-20 0 -35.5 9.5t-23.5 25.5q-20 -16 -36 -22.5t-33 -6.5h-27q-31 0 -58.5 12t-48 32.5t-32.5 48t-12 58.5t12 58.5t32.5 48t48 32.5
t58.5 12h96q-1 31 -17.5 49t-44.5 18q-13 0 -23 -4.5t-22 -15.5q-13 -12 -22.5 -16.5t-22.5 -4.5q-26 0 -44.5 18.5t-18.5 44.5q0 19 13.5 37t35 32.5t49 23.5t55.5 9q40 0 74 -14.5t59 -40.5t39 -60.5t14 -75.5v-238zM169 576q-9 0 -15 -2.5t-14 -10.5q-14 -13 -30 -13
q-17 0 -29 12t-12 29q0 12 8.5 24t23 21.5t32.5 15.5t36 6q10 0 17.5 -1t15.5 -3.5t17.5 -7.5t24.5 -13q10 -5 22 -5q16 0 29 13q14 13 30 13q17 0 29 -12t12 -29q0 -12 -8.5 -24t-23 -21.5t-32.5 -15.5t-37 -6q-9 0 -16.5 1t-15 3.5t-17 7t-22.5 11.5q-11 7 -25 7z" />
    <glyph glyph-name="aring" unicode="&#xe5;" horiz-adv-x="435" 
d="M175 186q-14 0 -24.5 -10.5t-10.5 -24.5t10.5 -24.5t24.5 -10.5h35q27 0 44 17.5t17 46.5v6h-96zM395 64q0 -33 -17 -51.5t-48 -18.5q-20 0 -35.5 9.5t-23.5 25.5q-20 -16 -36 -22.5t-33 -6.5h-27q-31 0 -58.5 12t-48 32.5t-32.5 48t-12 58.5t12 58.5t32.5 48t48 32.5
t58.5 12h96q-1 31 -17.5 49t-44.5 18q-13 0 -23 -4.5t-22 -15.5q-13 -12 -22.5 -16.5t-22.5 -4.5q-26 0 -44.5 18.5t-18.5 44.5q0 19 13.5 37t35 32.5t49 23.5t55.5 9q40 0 74 -14.5t59 -40.5t39 -60.5t14 -75.5v-238zM217 686q-20 0 -33.5 -13.5t-13.5 -33.5
q0 -19 13.5 -33t33.5 -14q19 0 32.5 13.5t13.5 33.5t-13.5 33.5t-32.5 13.5zM218 732q19 0 35.5 -7.5t29 -20t19.5 -29.5t7 -36t-7 -36t-19.5 -29.5t-29.5 -20t-36 -7.5q-39 0 -66 27.5t-27 66.5q0 19 7.5 36t20 29.5t30 19.5t36.5 7z" />
    <glyph glyph-name="ccedilla" unicode="&#xe7;" 
d="M242 -27q26 -9 41.5 -30t15.5 -47q0 -35 -23.5 -58.5t-57.5 -23.5h-22q-14 0 -23 7.5t-9 21.5q0 29 32 29h21q11 0 17.5 6.5t6.5 16.5t-7 17t-17 7h-12q-11 0 -20 8.5t-9 19.5q0 2 0.5 5t0.5 5l6 39q-34 5 -63 21t-50.5 41t-33.5 56.5t-12 65.5v127q0 39 14.5 72.5t40 59
t59 40t72.5 14.5q50 0 92.5 -24.5t68.5 -68.5q9 -16 14.5 -32.5t5.5 -28.5q0 -25 -18.5 -43t-43.5 -18q-23 0 -37 11t-24 36q-16 44 -58 44q-26 0 -44 -18t-18 -44v-127q0 -26 18 -44t44 -18q42 0 58 44q19 47 61 47q25 0 43.5 -18t18.5 -43q0 -24 -12 -48t-32 -44.5
t-46 -36t-55 -21.5z" />
    <glyph glyph-name="eacute" unicode="&#xe9;" 
d="M273 303q0 31 -18 50.5t-47 19.5t-47.5 -19.5t-18.5 -50.5h131zM142 180q0 -27 19.5 -46.5t46.5 -19.5q24 0 44 16q16 12 22.5 15t19.5 3q25 0 42.5 -17.5t17.5 -41.5q0 -18 -12.5 -35.5t-33 -30.5t-47 -21t-54.5 -8q-38 0 -72 14.5t-59 40t-39.5 59t-14.5 72.5v127
q0 39 14.5 72.5t40 59t59 40t72.5 14.5q38 0 72 -14.5t59 -40t39.5 -59t14.5 -72.5v-47q0 -27 -19 -46t-46 -19h-186v-15zM185 680q5 9 16.5 18t25.5 9q20 0 35 -14.5t15 -32.5q0 -7 -3.5 -15.5t-8.5 -16.5l-33 -49q-17 -26 -39 -26q-20 0 -34.5 14t-14.5 31q0 7 2 12.5
t10 19.5z" />
    <glyph glyph-name="egrave" unicode="&#xe8;" 
d="M273 303q0 31 -18 50.5t-47 19.5t-47.5 -19.5t-18.5 -50.5h131zM142 180q0 -27 19.5 -46.5t46.5 -19.5q24 0 44 16q16 12 22.5 15t19.5 3q25 0 42.5 -17.5t17.5 -41.5q0 -18 -12.5 -35.5t-33 -30.5t-47 -21t-54.5 -8q-38 0 -72 14.5t-59 40t-39.5 59t-14.5 72.5v127
q0 39 14.5 72.5t40 59t59 40t72.5 14.5q38 0 72 -14.5t59 -40t39.5 -59t14.5 -72.5v-47q0 -27 -19 -46t-46 -19h-186v-15zM151 628q-5 8 -8.5 16.5t-3.5 15.5q0 18 15 32.5t35 14.5q26 0 42 -27l29 -50q8 -14 10 -19.5t2 -12.5q0 -17 -14.5 -31t-34.5 -14q-22 0 -39 26z" />
    <glyph glyph-name="ecircumflex" unicode="&#xea;" 
d="M273 303q0 31 -18 50.5t-47 19.5t-47.5 -19.5t-18.5 -50.5h131zM142 180q0 -27 19.5 -46.5t46.5 -19.5q24 0 44 16q16 12 22.5 15t19.5 3q25 0 42.5 -17.5t17.5 -41.5q0 -18 -12.5 -35.5t-33 -30.5t-47 -21t-54.5 -8q-38 0 -72 14.5t-59 40t-39.5 59t-14.5 72.5v127
q0 39 14.5 72.5t40 59t59 40t72.5 14.5q38 0 72 -14.5t59 -40t39.5 -59t14.5 -72.5v-47q0 -27 -19 -46t-46 -19h-186v-15zM177 581q-11 -16 -19.5 -22t-20.5 -6q-20 0 -34.5 13.5t-14.5 31.5q0 12 10 30l29 48q14 24 41 24h80q27 0 41 -24l29 -48q10 -18 10 -30
q0 -18 -14.5 -31.5t-34.5 -13.5q-12 0 -20.5 6t-19.5 22l-31 47z" />
    <glyph glyph-name="edieresis" unicode="&#xeb;" 
d="M273 303q0 31 -18 50.5t-47 19.5t-47.5 -19.5t-18.5 -50.5h131zM142 180q0 -27 19.5 -46.5t46.5 -19.5q24 0 44 16q16 12 22.5 15t19.5 3q25 0 42.5 -17.5t17.5 -41.5q0 -18 -12.5 -35.5t-33 -30.5t-47 -21t-54.5 -8q-38 0 -72 14.5t-59 40t-39.5 59t-14.5 72.5v127
q0 39 14.5 72.5t40 59t59 40t72.5 14.5q38 0 72 -14.5t59 -40t39.5 -59t14.5 -72.5v-47q0 -27 -19 -46t-46 -19h-186v-15zM290 686q26 0 44 -18.5t18 -44.5t-18.5 -45t-44.5 -19t-45 19t-19 45t19 44.5t46 18.5zM128 686q26 0 44 -18.5t18 -44.5t-18.5 -45t-44.5 -19t-45 19
t-19 45t19 44.5t46 18.5z" />
    <glyph glyph-name="iacute" unicode="&#xed;" horiz-adv-x="204" 
d="M79 680q16 27 41 27q20 0 35 -14.5t15 -32.5q0 -6 -3.5 -15t-8.5 -17l-32 -49q-17 -26 -39 -26q-20 0 -34.5 14t-14.5 31q0 7 2.5 13.5t9.5 18.5zM40 424q0 32 16.5 50.5t45.5 18.5t45.5 -18.5t16.5 -50.5v-360q0 -33 -16.5 -51.5t-45.5 -18.5t-45.5 18.5t-16.5 51.5v360
z" />
    <glyph glyph-name="igrave" unicode="&#xec;" horiz-adv-x="204" 
d="M45 628q-5 8 -8.5 17t-3.5 15q0 18 15 32.5t35 14.5q26 0 42 -27l29 -50q11 -19 11 -32q0 -17 -14.5 -31t-33.5 -14q-22 0 -39 26zM40 424q0 32 16.5 50.5t45.5 18.5t45.5 -18.5t16.5 -50.5v-360q0 -33 -16.5 -51.5t-45.5 -18.5t-45.5 18.5t-16.5 51.5v360z" />
    <glyph glyph-name="icircumflex" unicode="&#xee;" horiz-adv-x="204" 
d="M71 581q-11 -16 -19.5 -22t-20.5 -6q-20 0 -34.5 14t-14.5 31q0 13 10 30l29 48q14 24 41 24h79q28 0 42 -24l28 -48q11 -19 11 -30q0 -17 -15 -31t-34 -14q-12 0 -20.5 6t-19.5 22l-31 47zM40 424q0 32 16.5 50.5t45.5 18.5t45.5 -18.5t16.5 -50.5v-360
q0 -33 -16.5 -51.5t-45.5 -18.5t-45.5 18.5t-16.5 51.5v360z" />
    <glyph glyph-name="idieresis" unicode="&#xef;" horiz-adv-x="204" 
d="M40 424q0 32 16.5 50.5t45.5 18.5t45.5 -18.5t16.5 -50.5v-360q0 -33 -16.5 -51.5t-45.5 -18.5t-45.5 18.5t-16.5 51.5v360zM184 686q26 0 44 -18.5t18 -44.5t-18.5 -45t-44.5 -19t-45 19t-19 45t19 44.5t46 18.5zM22 687q26 0 44.5 -19t18.5 -45t-19 -45t-45 -19t-45 19
t-19 46q0 26 19 44.5t46 18.5z" />
    <glyph glyph-name="ntilde" unicode="&#xf1;" horiz-adv-x="454" 
d="M41 424q0 32 17 50.5t48 18.5q43 0 59 -35q34 29 83 29q35 0 65 -14t52 -38.5t34.5 -58.5t12.5 -74v-238q0 -33 -16.5 -51.5t-45.5 -18.5t-45.5 18.5t-16.5 51.5v238q0 25 -18 43t-43 18q-26 0 -44 -18t-18 -43v-238q0 -33 -16.5 -51.5t-45.5 -18.5t-45.5 18.5
t-16.5 51.5v360zM178 576q-9 0 -15 -2.5t-14 -10.5q-14 -13 -30 -13q-17 0 -29 12t-12 29q0 12 8.5 24t23 21.5t32.5 15.5t36 6q10 0 17.5 -1t15.5 -3.5t17.5 -7.5t24.5 -13q10 -5 22 -5q9 0 15 2.5t14 10.5q14 13 30 13q17 0 29 -12t12 -29q0 -12 -8.5 -24t-23 -21.5
t-32.5 -15.5t-37 -6q-9 0 -16.5 1t-15.5 3.5t-17 7t-22 11.5q-11 7 -25 7z" />
    <glyph glyph-name="oacute" unicode="&#xf3;" 
d="M147 180q0 -26 18 -44t44 -18q25 0 43 18t18 44v127q0 26 -18 44t-43 18q-26 0 -44 -18t-18 -44v-127zM394 180q0 -38 -14.5 -72t-39.5 -59.5t-59 -40t-72 -14.5q-39 0 -72.5 14.5t-59 40t-40 59.5t-14.5 72v127q0 39 14.5 72.5t40 59t59 40t72.5 14.5q38 0 72 -14.5
t59 -40t39.5 -59t14.5 -72.5v-127zM186 680q16 27 41 27q20 0 35 -14.5t15 -32.5q0 -6 -3.5 -15t-8.5 -17l-32 -49q-17 -26 -39 -26q-20 0 -34.5 14t-14.5 31q0 7 2.5 13.5t9.5 18.5z" />
    <glyph glyph-name="ograve" unicode="&#xf2;" 
d="M147 180q0 -26 18 -44t44 -18q25 0 43 18t18 44v127q0 26 -18 44t-43 18q-26 0 -44 -18t-18 -44v-127zM394 180q0 -38 -14.5 -72t-39.5 -59.5t-59 -40t-72 -14.5q-39 0 -72.5 14.5t-59 40t-40 59.5t-14.5 72v127q0 39 14.5 72.5t40 59t59 40t72.5 14.5q38 0 72 -14.5
t59 -40t39.5 -59t14.5 -72.5v-127zM152 628q-5 8 -8.5 17t-3.5 15q0 18 15 32.5t35 14.5q13 0 23 -7.5t18 -19.5l30 -50q7 -11 9 -18t2 -14q0 -17 -14.5 -31t-33.5 -14q-22 0 -39 26z" />
    <glyph glyph-name="ocircumflex" unicode="&#xf4;" 
d="M178 581q-11 -17 -19.5 -22.5t-20.5 -5.5q-20 0 -34.5 14t-14.5 31q0 13 10 30l29 48q14 24 41 24h79q28 0 42 -24l28 -48q10 -17 10 -30q0 -18 -14.5 -31.5t-33.5 -13.5q-13 0 -21 6t-19 22l-31 47zM147 180q0 -26 18 -44t44 -18q25 0 43 18t18 44v127q0 26 -18 44
t-43 18q-26 0 -44 -18t-18 -44v-127zM394 180q0 -38 -14.5 -72t-39.5 -59.5t-59 -40t-72 -14.5q-39 0 -72.5 14.5t-59 40t-40 59.5t-14.5 72v127q0 39 14.5 72.5t40 59t59 40t72.5 14.5q38 0 72 -14.5t59 -40t39.5 -59t14.5 -72.5v-127z" />
    <glyph glyph-name="odieresis" unicode="&#xf6;" 
d="M291 686q26 0 44 -18.5t18 -44.5t-18.5 -45t-44.5 -19t-45 19t-19 45t19 44.5t46 18.5zM129 686q26 0 44 -18.5t18 -44.5t-18.5 -45t-44.5 -19t-45 19t-19 45t19 44.5t46 18.5zM147 180q0 -26 18 -44t44 -18q25 0 43 18t18 44v127q0 26 -18 44t-43 18q-26 0 -44 -18
t-18 -44v-127zM394 180q0 -38 -14.5 -72t-39.5 -59.5t-59 -40t-72 -14.5q-39 0 -72.5 14.5t-59 40t-40 59.5t-14.5 72v127q0 39 14.5 72.5t40 59t59 40t72.5 14.5q38 0 72 -14.5t59 -40t39.5 -59t14.5 -72.5v-127z" />
    <glyph glyph-name="otilde" unicode="&#xf5;" 
d="M160 576q-9 0 -15 -2.5t-14 -10.5q-14 -13 -30 -13q-17 0 -29 12t-12 29q0 12 8.5 24t23 21.5t32.5 15.5t36 6q10 0 17.5 -1t15.5 -3.5t17.5 -7.5t24.5 -13q10 -5 22 -5q16 0 29 13q14 13 30 13q17 0 29 -12t12 -29q0 -12 -8.5 -24t-23 -21.5t-32.5 -15.5t-37 -6
q-9 0 -16.5 1t-15 3.5t-17 7t-22.5 11.5q-11 7 -25 7zM147 180q0 -26 18 -44t44 -18q25 0 43 18t18 44v127q0 26 -18 44t-43 18q-26 0 -44 -18t-18 -44v-127zM394 180q0 -38 -14.5 -72t-39.5 -59.5t-59 -40t-72 -14.5q-39 0 -72.5 14.5t-59 40t-40 59.5t-14.5 72v127
q0 39 14.5 72.5t40 59t59 40t72.5 14.5q38 0 72 -14.5t59 -40t39.5 -59t14.5 -72.5v-127z" />
    <glyph glyph-name="uacute" unicode="&#xfa;" horiz-adv-x="454" 
d="M204 680q16 27 41 27q20 0 35 -14.5t15 -32.5q0 -6 -3.5 -15t-8.5 -17l-32 -49q-17 -26 -39 -26q-20 0 -34.5 14t-14.5 31q0 7 2.5 13.5t9.5 18.5zM412 64q0 -33 -17 -51.5t-48 -18.5q-20 0 -35.5 9t-23.5 26q-34 -29 -83 -29q-35 0 -65 14t-52 39t-34.5 59t-12.5 74v238
q0 32 16.5 50.5t45.5 18.5t45.5 -18.5t16.5 -50.5v-238q0 -26 18 -44t44 -18q25 0 43 18t18 43v239q0 32 16.5 50.5t45.5 18.5t45.5 -18.5t16.5 -50.5v-360z" />
    <glyph glyph-name="ugrave" unicode="&#xf9;" horiz-adv-x="454" 
d="M170 628q-5 8 -8.5 16.5t-3.5 15.5q0 18 15 32.5t35 14.5q13 0 23 -7.5t18 -19.5l30 -50q7 -11 9 -18t2 -14q0 -17 -14.5 -31t-33.5 -14q-22 0 -39 26zM412 64q0 -33 -17 -51.5t-48 -18.5q-20 0 -35.5 9t-23.5 26q-34 -29 -83 -29q-35 0 -65 14t-52 39t-34.5 59t-12.5 74
v238q0 32 16.5 50.5t45.5 18.5t45.5 -18.5t16.5 -50.5v-238q0 -26 18 -44t44 -18q25 0 43 18t18 43v239q0 32 16.5 50.5t45.5 18.5t45.5 -18.5t16.5 -50.5v-360z" />
    <glyph glyph-name="ucircumflex" unicode="&#xfb;" horiz-adv-x="454" 
d="M196 581q-11 -16 -19.5 -22t-20.5 -6q-20 0 -34.5 13.5t-14.5 31.5q0 12 10 30l29 48q14 24 41 24h79q28 0 42 -24l28 -48q11 -19 11 -30q0 -17 -15 -31t-34 -14q-12 0 -20.5 6t-19.5 22l-31 47zM412 64q0 -33 -17 -51.5t-48 -18.5q-20 0 -35.5 9t-23.5 26
q-34 -29 -83 -29q-35 0 -65 14t-52 39t-34.5 59t-12.5 74v238q0 32 16.5 50.5t45.5 18.5t45.5 -18.5t16.5 -50.5v-238q0 -26 18 -44t44 -18q25 0 43 18t18 43v239q0 32 16.5 50.5t45.5 18.5t45.5 -18.5t16.5 -50.5v-360z" />
    <glyph glyph-name="udieresis" unicode="&#xfc;" horiz-adv-x="454" 
d="M412 64q0 -33 -17 -51.5t-48 -18.5q-20 0 -35.5 9t-23.5 26q-34 -29 -83 -29q-35 0 -65 14t-52 39t-34.5 59t-12.5 74v238q0 32 16.5 50.5t45.5 18.5t45.5 -18.5t16.5 -50.5v-238q0 -26 18 -44t44 -18q25 0 43 18t18 43v239q0 32 16.5 50.5t45.5 18.5t45.5 -18.5
t16.5 -50.5v-360zM309 686q26 0 44 -18.5t18 -44.5t-18.5 -45t-44.5 -19t-45 19t-19 45t19 44.5t46 18.5zM147 686q26 0 44 -18.5t18 -44.5t-18.5 -45t-44.5 -19t-45 19t-19 45t19 44.5t46 18.5z" />
    <glyph glyph-name="degree" unicode="&#xb0;" horiz-adv-x="241" 
d="M122 686q-20 0 -34 -14.5t-14 -32.5q0 -19 13.5 -33t33.5 -14t33.5 13.5t13.5 33.5t-13.5 33.5t-32.5 13.5zM123 732q19 0 35.5 -7.5t29 -20t19.5 -29.5t7 -36t-7 -36t-20 -29.5t-29.5 -20t-36.5 -7.5q-39 0 -66 27.5t-27 66.5q0 19 7.5 36t20 29.5t30 19.5t37.5 7z" />
    <glyph glyph-name="cent" unicode="&#xa2;" horiz-adv-x="444" 
d="M221 481q-16 0 -30.5 -6.5t-25.5 -17.5t-17.5 -25.5t-6.5 -31.5v-104q0 -26 16 -48l68 233h-4zM162 22q-9 -29 -33 -29q-14 0 -25 9.5t-11 22.5q0 8 2 16l26 86q-46 28 -71 72.5t-25 96.5v104q0 41 15.5 77t42.5 62.5t63 42t77 15.5q16 0 35 -3l24 80q9 29 33 29
q14 0 25 -9.5t11 -22.5q0 -3 -0.5 -8.5t-1.5 -8.5l-26 -85q19 -11 36 -28t29.5 -36t20 -39t7.5 -38q0 -23 -17 -40t-40 -17q-43 0 -58 47q-3 11 -5.5 16t-7.5 13l-69 -232q34 2 53.5 17.5t28.5 45.5q13 47 58 47q23 0 40 -17t17 -40q0 -14 -6 -33t-17 -37
q-27 -46 -72.5 -72.5t-96.5 -26.5q-9 0 -17.5 0.5t-20.5 2.5z" />
    <glyph glyph-name="sterling" unicode="&#xa3;" horiz-adv-x="463" 
d="M254 410q33 0 51.5 -16.5t18.5 -45.5t-18.5 -45.5t-51.5 -16.5h-19q3 -16 4 -26t1 -19q0 -56 -31 -103q17 0 29 -2t28 -8q20 -8 28.5 -9.5t14.5 -1.5q21 0 39 15q17 14 27 17.5t20 3.5q26 0 44.5 -18t18.5 -44q0 -18 -12.5 -36t-33 -31.5t-47 -22t-53.5 -8.5q-11 0 -20 1
t-19 4t-23.5 8.5t-33.5 14.5q-18 9 -41 9q-22 0 -44 -15q-17 -11 -25 -14.5t-19 -3.5q-26 0 -44.5 18t-18.5 44q0 9 1 16t5 13.5t12 14t21 18.5q53 47 53 130q0 8 -0.5 15t-2.5 20h-25q-32 0 -50.5 16.5t-18.5 45.5q0 28 16.5 44t46.5 18q-6 24 -10.5 41t-6.5 29.5t-3 22.5
t-1 22q0 37 14.5 69.5t40 57t59.5 38.5t73 14q51 0 92 -24t67 -69q9 -17 14.5 -33.5t5.5 -29.5q0 -25 -18 -43t-44 -18q-43 0 -60 47q-15 46 -59 46q-26 0 -43.5 -18t-17.5 -47q0 -23 4 -47.5t14 -57.5h51z" />
    <glyph glyph-name="section" unicode="&#xa7;" horiz-adv-x="509" 
d="M330 169q17 20 17 47q0 48 -49 66l-27.5 10t-33.5 12t-32.5 12t-24.5 9q-18 -22 -18 -46q0 -23 13.5 -41t36.5 -26q32 -11 63.5 -23t54.5 -20zM168 93q-63 22 -98.5 71.5t-35.5 113.5q0 36 13 70t36 61q-26 47 -26 97q0 41 15.5 77t42.5 62.5t63 42t77 15.5q53 0 98 -26
t72 -72q11 -18 17 -36.5t6 -32.5q0 -25 -18.5 -43.5t-45.5 -18.5q-30 0 -43.5 18t-22.5 41q-7 18 -24.5 30t-39.5 12q-13 0 -25.5 -5.5t-22.5 -15t-16 -22t-6 -26.5q0 -48 52 -67l105 -38q63 -23 98.5 -72t35.5 -113q0 -36 -13 -70t-36 -60q26 -45 26 -98q0 -41 -15.5 -77
t-42.5 -62.5t-63 -42t-77 -15.5q-53 0 -97.5 26.5t-72.5 72.5q-11 18 -17 36t-6 32q0 25 19 43.5t45 18.5q19 0 33.5 -9t21.5 -22q2 -5 4.5 -12.5t6.5 -15.5q8 -18 25.5 -30t37.5 -12q29 0 49.5 20.5t20.5 49.5q0 25 -13.5 42t-37.5 25z" />
    <glyph glyph-name="paragraph" unicode="&#xb6;" horiz-adv-x="500" 
d="M313 -163q0 -46 -41 -46q-40 0 -40 46v442q-44 1 -82.5 17t-66.5 44t-44 66t-16 81q0 44 16.5 82t45 66t66.5 44.5t81 16.5h139q39 0 66 -27t27 -66v-766q0 -46 -41 -46q-40 0 -40 46v778h-70v-778z" />
    <glyph glyph-name="germandbls" unicode="&#xdf;" horiz-adv-x="454" 
d="M33 514q0 39 15 73.5t40.5 60t60 40.5t73.5 15t73 -15t59.5 -40.5t40.5 -59.5t15 -73q0 -65 -45 -113q33 -29 48 -65.5t15 -78.5v-65q0 -41 -14 -76.5t-38 -61.5t-57 -40.5t-72 -14.5q-33 0 -52 16.5t-19 46.5q0 24 16.5 43t48.5 19q30 0 46.5 19.5t16.5 48.5v65
q0 32 -16 47.5t-54 20.5q-23 2 -38.5 20.5t-15.5 41.5q0 32 18.5 45t44.5 20q20 5 31.5 23t11.5 38q0 27 -18.5 46t-45.5 19q-26 0 -45.5 -19.5t-19.5 -45.5v-445q0 -32 -16.5 -50.5t-45.5 -18.5t-45.5 18.5t-16.5 50.5v445z" />
    <glyph glyph-name="registered" unicode="&#xae;" horiz-adv-x="768" 
d="M390 668q-68 0 -127 -25t-103 -67.5t-69.5 -100.5t-25.5 -124q0 -67 25 -126t68.5 -102.5t101.5 -68.5t125 -25q66 0 124 25t101.5 68.5t68.5 102t25 124.5q0 65 -25 123t-68 101.5t-100 69t-121 25.5zM390 704q72 0 135.5 -28.5t111 -77t75.5 -113t28 -136.5
q0 -74 -28 -139t-76 -113t-112.5 -76t-138.5 -28t-139 28t-113 76.5t-76 114t-28 139.5t28.5 138t77 112t114.5 75.5t141 27.5zM402 368q26 0 45 18t19 43t-19 43t-45 18h-68v-122h68zM544 168q5 -15 5 -25q0 -17 -15 -30.5t-35 -13.5q-32 0 -45 37l-46 130h-74v-110
q0 -27 -13.5 -42t-37.5 -15t-37.5 15t-13.5 42v371q0 27 19 46t46 19h105q34 0 64 -13t52.5 -35t35.5 -51.5t13 -63.5q0 -40 -18 -74.5t-50 -57.5z" />
    <glyph glyph-name="copyright" unicode="&#xa9;" horiz-adv-x="768" 
d="M390 668q-68 0 -127 -25t-103 -67.5t-69.5 -100.5t-25.5 -124q0 -67 25 -126t68.5 -102.5t101.5 -68.5t125 -25q66 0 124 25t101.5 68.5t68.5 102t25 124.5q0 65 -25 123t-68 101.5t-100 69t-121 25.5zM390 704q72 0 135.5 -28.5t111 -77t75.5 -113t28 -136.5
q0 -74 -28 -139t-76 -113t-112.5 -76t-138.5 -28t-139 28t-113 76.5t-76 114t-28 139.5t28.5 138t77 112t114.5 75.5t141 27.5zM318 266q0 -27 19.5 -46.5t46.5 -19.5q50 0 66 54q12 37 48 37q20 0 35 -14.5t15 -34.5q0 -8 -5.5 -26t-14.5 -33q-23 -39 -60.5 -61t-82.5 -22
q-34 0 -64.5 13t-53.5 35.5t-36 53t-13 64.5v164q0 34 13 64.5t35.5 53t53 35.5t64.5 13q45 0 83 -22t61 -61q9 -15 14.5 -32.5t5.5 -26.5q0 -20 -15 -34.5t-35 -14.5q-36 0 -48 37q-16 54 -66 54q-27 0 -46.5 -19.5t-19.5 -46.5v-164z" />
    <glyph glyph-name="acute" unicode="&#xb4;" horiz-adv-x="222" 
d="M88 680q16 27 41 27q20 0 35 -14.5t15 -32.5q0 -6 -3.5 -15t-8.5 -17l-32 -49q-17 -26 -39 -26q-20 0 -34.5 14t-14.5 31q0 7 2.5 13.5t9.5 18.5z" />
    <glyph glyph-name="dieresis" unicode="&#xa8;" horiz-adv-x="324" 
d="M244 686q26 0 44 -18.5t18 -44.5t-18.5 -45t-44.5 -19t-45 19t-19 45t19 44.5t46 18.5zM82 687q26 0 44.5 -19t18.5 -45t-19 -45t-45 -19t-45 19t-19 46q0 26 19 44.5t46 18.5z" />
    <glyph glyph-name="AE" unicode="&#xc6;" horiz-adv-x="907" 
d="M412 557h-75l-92 -279h167v279zM198 139l-31 -94q-17 -52 -62 -52q-28 0 -48.5 18t-20.5 43q0 6 2 15.5t4 17.5l181 545q10 29 34.5 46.5t54.5 17.5h494q37 0 57.5 -18.5t20.5 -50.5q0 -33 -20.5 -51.5t-57.5 -18.5h-254v-139h185q36 0 56.5 -18.5t20.5 -51.5
t-20.5 -51.5t-56.5 -18.5h-185v-139h254q37 0 57.5 -18.5t20.5 -50.5q0 -33 -20.5 -51.5t-57.5 -18.5h-301q-19 0 -36 7t-29.5 20t-20 30t-7.5 36v46h-214z" />
    <glyph glyph-name="Oslash" unicode="&#xd8;" horiz-adv-x="537" 
d="M198 164q29 -32 70 -32q19 0 36 7.5t29.5 20t20 29.5t7.5 36v210zM338 532q-29 32 -70 32q-19 0 -36 -7.5t-29.5 -20t-20 -29.5t-7.5 -36v-210zM76 95q-21 32 -30.5 63t-9.5 67v246q0 48 18.5 90.5t50 74t73.5 49.5t90 18q80 0 143 -49l18 28q14 21 30 21q14 0 25.5 -10
t11.5 -23q0 -10 -8 -23l-28 -46q21 -32 30.5 -63t9.5 -67v-246q0 -48 -18 -90t-49.5 -73.5t-74 -50t-90.5 -18.5q-80 0 -143 49l-18 -28q-13 -21 -30 -21q-14 0 -25.5 10t-11.5 23q0 10 8 23z" />
    <glyph glyph-name="plusminus" unicode="&#xb1;" horiz-adv-x="528" 
d="M426 235q37 0 57.5 -18.5t20.5 -50.5q0 -33 -20.5 -51.5t-57.5 -18.5h-323q-37 0 -57.5 18.5t-20.5 51.5q0 32 20.5 50.5t57.5 18.5h323zM103 368q-37 0 -57.5 18.5t-20.5 51.5q0 32 20.5 50.5t57.5 18.5h92v28q0 37 18.5 57.5t50.5 20.5q33 0 51.5 -20.5t18.5 -57.5v-28
h92q37 0 57.5 -18.5t20.5 -50.5q0 -33 -20.5 -51.5t-57.5 -18.5h-92v-28q0 -37 -18.5 -57.5t-51.5 -20.5q-32 0 -50.5 20.5t-18.5 57.5v28h-92z" />
    <glyph glyph-name="yen" unicode="&#xa5;" horiz-adv-x="472" 
d="M39 608q-8 20 -8 35q0 24 20.5 42t47.5 18q42 0 60 -49l78 -215l77 215q17 49 60 49q27 0 47.5 -18t20.5 -42q0 -15 -8 -35l-83 -214h51q39 0 39 -35t-39 -35h-78l-18 -45v-23h96q39 0 39 -35t-39 -35h-96v-115q0 -37 -18.5 -57.5t-50.5 -20.5q-33 0 -51.5 20.5
t-18.5 57.5v115h-96q-18 0 -28.5 9t-10.5 26t10.5 26t28.5 9h96v23l-18 45h-78q-18 0 -28.5 9t-10.5 26t10.5 26t28.5 9h51z" />
    <glyph glyph-name="mu" unicode="&#xb5;" horiz-adv-x="491" 
d="M165 -140q0 -32 -16.5 -50.5t-45.5 -18.5t-45.5 18.5t-16.5 50.5v564q0 32 16.5 50.5t45.5 18.5t45.5 -18.5t16.5 -50.5v-239q0 -25 18 -43t44 -18q25 0 43 18t18 44v238q0 32 16.5 50.5t45.5 18.5t45.5 -18.5t16.5 -50.5v-235q0 -33 10 -47t36 -19q25 -5 38.5 -20.5
t13.5 -39.5q0 -26 -18 -44.5t-44 -18.5t-52 12.5t-43 34.5q-23 -23 -51 -35t-58 -12q-44 0 -79 29v-169z" />
    <glyph glyph-name="mu" unicode="&#x3bc;" horiz-adv-x="491" 
d="M165 -140q0 -32 -16.5 -50.5t-45.5 -18.5t-45.5 18.5t-16.5 50.5v564q0 32 16.5 50.5t45.5 18.5t45.5 -18.5t16.5 -50.5v-239q0 -25 18 -43t44 -18q25 0 43 18t18 44v238q0 32 16.5 50.5t45.5 18.5t45.5 -18.5t16.5 -50.5v-235q0 -33 10 -47t36 -19q25 -5 38.5 -20.5
t13.5 -39.5q0 -26 -18 -44.5t-44 -18.5t-52 12.5t-43 34.5q-23 -23 -51 -35t-58 -12q-44 0 -79 29v-169z" />
    <glyph glyph-name="ordfeminine" unicode="&#xaa;" horiz-adv-x="278" 
d="M206 364q21 0 33 -10.5t12 -30.5t-12 -30.5t-33 -10.5h-133q-46 0 -46 41t46 41h133zM124 519q-9 0 -15.5 -6t-6.5 -15q0 -8 6.5 -14.5t15.5 -6.5h14q16 0 25.5 11t9.5 28v3h-49zM249 447q0 -20 -10.5 -31t-29.5 -11q-13 0 -22 5t-14 13q-8 -7 -20 -11.5t-24 -4.5h-12
q-38 0 -64.5 26.5t-26.5 64.5t26.5 64.5t64.5 26.5h56q-2 35 -36 35q-7 0 -13.5 -2.5t-15.5 -10.5q-8 -7 -22 -7q-16 0 -27.5 11t-11.5 27q0 24 26.5 41t63.5 17q48 0 80 -31.5t32 -79.5v-142z" />
    <glyph glyph-name="ordmasculine" unicode="&#xba;" horiz-adv-x="278" 
d="M206 364q21 0 33 -10.5t12 -30.5t-12 -30.5t-33 -10.5h-133q-46 0 -46 41t46 41h133zM110 515q0 -12 8.5 -20.5t20.5 -8.5t20.5 8.5t8.5 20.5v75q0 12 -8.5 20.5t-20.5 8.5t-20.5 -8.5t-8.5 -20.5v-75zM249 515q0 -23 -8.5 -43t-23.5 -35t-35 -23.5t-43 -8.5t-43 8.5
t-35 23.5t-23.5 35t-8.5 43v75q0 23 8.5 43t23.5 35t35 23.5t43 8.5t43 -8.5t35 -23.5t23.5 -35t8.5 -43v-75z" />
    <glyph glyph-name="ae" unicode="&#xe6;" horiz-adv-x="704" 
d="M550 302q0 31 -18.5 51t-47.5 20t-47 -20t-18 -51h131zM175 187q-14 0 -24.5 -10.5t-10.5 -24.5q0 -15 10.5 -25.5t24.5 -10.5h35q28 0 45 17.5t17 46.5v7h-97zM272 302q-1 31 -18 49t-44 18q-13 0 -23 -4.5t-22 -15.5q-13 -12 -22.5 -16.5t-22.5 -4.5q-26 0 -44.5 18.5
t-18.5 44.5q0 19 13.5 37t35 32.5t49 23.5t55.5 9q39 0 75 -16t62 -45q26 29 62 45t76 16q38 0 71.5 -14.5t59 -40t40 -59.5t14.5 -72v-47q0 -27 -19 -46t-46 -19h-186v-10q0 -27 19 -46t47 -19q24 0 44 16q16 12 22.5 15t19.5 3q25 0 42.5 -17t17.5 -42q0 -18 -12.5 -35.5
t-33 -30.5t-47 -21t-54.5 -8q-39 0 -74.5 15.5t-62.5 44.5q-27 -29 -60.5 -44.5t-68.5 -15.5h-43q-31 0 -58.5 12t-48 32.5t-32.5 48t-12 58.5t12 58.5t32.5 48t48 32.5t58.5 12h97z" />
    <glyph glyph-name="oslash" unicode="&#xf8;" 
d="M173 130q16 -12 36 -12q25 0 43 18t18 44v92zM244 357q-16 12 -35 12q-26 0 -44 -18t-18 -44v-92zM324 474q13 19 30 19q14 0 25.5 -10.5t11.5 -23.5q0 -10 -9 -24l-18 -26q30 -48 30 -102v-127q0 -38 -14.5 -72t-39.5 -59.5t-59 -40t-72 -14.5q-29 0 -54.5 8t-51.5 26
l-10 -15q-12 -19 -30 -19q-14 0 -25.5 10.5t-11.5 23.5t9 25l18 25q-30 47 -30 102v127q0 38 14.5 72t39.5 59.5t59 40t72 14.5q57 0 106 -33z" />
    <glyph glyph-name="questiondown" unicode="&#xbf;" horiz-adv-x="481" 
d="M241 492q32 0 54.5 -22.5t22.5 -55.5q0 -32 -23 -54t-55 -22q-31 0 -53.5 22.5t-22.5 54.5t22.5 54.5t54.5 22.5zM192 47q-21 -21 -21 -48v-11q0 -27 20.5 -47t49.5 -20q46 0 67 51q21 50 68 50q28 0 48.5 -20t20.5 -48q0 -22 -14 -51t-36 -53q-30 -33 -69.5 -50.5
t-84.5 -17.5q-43 0 -81 16.5t-66.5 44.5t-45 65.5t-16.5 79.5v11q0 41 16 79t45 67l58 58q8 8 12 16.5t9 23.5q7 21 25.5 34.5t40.5 13.5q29 0 49.5 -20t20.5 -49q0 -25 -16.5 -58.5t-41.5 -58.5z" />
    <glyph glyph-name="exclamdown" unicode="&#xa1;" horiz-adv-x="204" 
d="M102 494q32 0 54.5 -22.5t22.5 -54.5t-22.5 -54.5t-53.5 -22.5q-32 0 -55 22t-23 54t22.5 55t54.5 23zM168 -140q2 -32 -17 -54t-49 -22q-29 0 -48.5 22t-17.5 54l17 354q1 21 15 34.5t34 13.5t33.5 -13.5t14.5 -34.5z" />
    <glyph glyph-name="logicalnot" unicode="&#xac;" horiz-adv-x="528" 
d="M100 396q-37 0 -57.5 18.5t-20.5 51.5q0 32 20.5 50.5t57.5 18.5h300q39 0 66 -27t27 -66v-207q0 -37 -18.5 -57.5t-51.5 -20.5q-32 0 -50.5 20.5t-18.5 57.5v161h-254z" />
    <glyph glyph-name="guillemotleft" unicode="&#xab;" horiz-adv-x="509" 
d="M268 88q17 -23 17 -40q0 -21 -18 -38t-40 -17q-26 0 -47 28l-142 186q-8 11 -10.5 18.5t-2.5 18.5t2.5 18t10.5 18l142 187q22 28 47 28q22 0 40 -17t18 -38q0 -18 -17 -40l-118 -156zM465 88q17 -22 17 -40q0 -21 -18 -38t-40 -17q-26 0 -47 28l-141 186q-8 11 -11 18.5
t-3 18.5t3 18t11 18l141 187q22 28 47 28q22 0 40 -17t18 -38q0 -9 -4.5 -19t-12.5 -21l-118 -156z" />
    <glyph glyph-name="guillemotright" unicode="&#xbb;" horiz-adv-x="509" 
d="M242 400q-17 22 -17 40q0 21 18 38t40 17q25 0 47 -28l142 -187q8 -10 10.5 -18t2.5 -18q0 -11 -2.5 -18.5t-10.5 -18.5l-142 -186q-21 -28 -47 -28q-22 0 -40 17t-18 38q0 18 17 40l118 156zM45 400q-8 11 -12.5 21t-4.5 19q0 21 18 38t40 17q25 0 47 -28l141 -187
q8 -11 11 -18.5t3 -17.5q0 -11 -3 -18.5t-11 -18.5l-141 -186q-21 -28 -47 -28q-22 0 -40 17t-18 38q0 18 17 40l118 156z" />
    <glyph glyph-name="Agrave" unicode="&#xc0;" horiz-adv-x="630" 
d="M258 836q-5 8 -8.5 17t-3.5 16q0 18 15 32.5t35 14.5q25 0 41 -27l30 -51q11 -19 11 -31q0 -17 -14.5 -31t-34.5 -14t-38 26zM384 278l-69 228l-70 -228h139zM199 139l-32 -94q-18 -52 -63 -52q-27 0 -47.5 18t-20.5 43q0 6 1.5 15.5t4.5 17.5l181 544q25 72 92 72
q66 0 91 -72l181 -544q2 -8 4 -17.5t2 -16.5q0 -24 -20.5 -42t-47.5 -18q-45 0 -63 52l-31 94h-232z" />
    <glyph glyph-name="Atilde" unicode="&#xc3;" horiz-adv-x="630" 
d="M266 784q-9 0 -15 -2.5t-14 -10.5q-14 -13 -30 -13q-17 0 -29 12t-12 29q0 12 8.5 24t23 21.5t32.5 15.5t36 6q10 0 17.5 -1t15.5 -3.5t17.5 -7t24.5 -12.5q9 -5 22 -5q9 0 15 3t14 10q13 12 30 12t29 -11.5t12 -28.5q0 -12 -8.5 -24t-22.5 -21.5t-32 -15.5t-38 -6
q-9 0 -16.5 1t-15 3t-17 6.5t-22.5 11.5q-11 7 -25 7zM384 278l-69 228l-70 -228h139zM199 139l-32 -94q-18 -52 -63 -52q-27 0 -47.5 18t-20.5 43q0 6 1.5 15.5t4.5 17.5l181 544q25 72 92 72q66 0 91 -72l181 -544q2 -8 4 -17.5t2 -16.5q0 -24 -20.5 -42t-47.5 -18
q-45 0 -63 52l-31 94h-232z" />
    <glyph glyph-name="Otilde" unicode="&#xd5;" horiz-adv-x="537" 
d="M220 785q-8 0 -15 -3t-15 -11q-13 -13 -29 -13q-17 0 -29 12t-12 29q0 12 8.5 24t22.5 21.5t32 15.5t37 6q17 0 31 -4.5t43 -19.5q9 -5 22 -5q9 0 15.5 2.5t14.5 10.5q14 12 29 12q17 0 29 -11.5t12 -28.5q0 -12 -8.5 -24t-22.5 -21.5t-32 -15.5t-37 -6q-9 0 -16.5 1
t-15.5 3.5t-17 7t-22 11.5t-25 7zM175 225q0 -19 7.5 -36t20 -29.5t29.5 -20t36 -7.5t36 7.5t29.5 20t20 29.5t7.5 36v246q0 20 -7.5 36.5t-20 29.5t-29.5 20t-36 7t-36 -7t-29.5 -20t-20 -29.5t-7.5 -36.5v-246zM500 225q0 -48 -18 -90t-49.5 -73.5t-74 -50t-90.5 -18.5
t-90 18.5t-73.5 50t-50 73.5t-18.5 90v246q0 48 18.5 90.5t50 74t73.5 49.5t90 18t90.5 -18t74 -49.5t49.5 -74t18 -90.5v-246z" />
    <glyph glyph-name="quotedblleft" unicode="&#x201c;" 
d="M243 626q0 36 18.5 56.5t50.5 20.5q33 0 51.5 -20.5t18.5 -56.5v-82q0 -23 -9 -42.5t-29 -39.5l-29 -29q-15 -15 -32 -15t-28.5 11.5t-11.5 28.5v168zM34 626q0 36 18.5 56.5t50.5 20.5q33 0 51.5 -20.5t18.5 -56.5v-82q0 -23 -9 -42.5t-29 -39.5l-29 -29
q-15 -15 -32 -15t-28.5 11.5t-11.5 28.5v168z" />
    <glyph glyph-name="quotedblright" unicode="&#x201d;" 
d="M243 626q0 36 18.5 56.5t50.5 20.5q33 0 51.5 -20.5t18.5 -56.5v-82q0 -23 -9 -42.5t-29 -39.5l-29 -29q-15 -15 -32 -15t-28.5 11.5t-11.5 28.5v168zM34 626q0 36 18.5 56.5t50.5 20.5q33 0 51.5 -20.5t18.5 -56.5v-82q0 -23 -9 -42.5t-29 -39.5l-29 -29
q-15 -15 -32 -15t-28.5 11.5t-11.5 28.5v168z" />
    <glyph glyph-name="quoteleft" unicode="&#x2018;" horiz-adv-x="213" 
d="M37 626q0 36 18.5 56.5t50.5 20.5q33 0 51.5 -20.5t18.5 -56.5v-82q0 -23 -9 -42.5t-29 -39.5l-29 -29q-15 -15 -32 -15t-28.5 11.5t-11.5 28.5v168z" />
    <glyph glyph-name="quoteright" unicode="&#x2019;" horiz-adv-x="213" 
d="M37 626q0 36 18.5 56.5t50.5 20.5q33 0 51.5 -20.5t18.5 -56.5v-82q0 -23 -9 -42.5t-29 -39.5l-29 -29q-15 -15 -32 -15t-28.5 11.5t-11.5 28.5v168z" />
    <glyph glyph-name="divide" unicode="&#xf7;" horiz-adv-x="528" 
d="M266 232q16 0 30.5 -6.5t25.5 -17.5t17.5 -25.5t6.5 -31.5q0 -34 -24 -58t-57 -24q-34 0 -58 24t-24 58t24 57.5t59 23.5zM266 627q16 0 30.5 -6.5t25.5 -17.5t17.5 -25.5t6.5 -31.5q0 -34 -24 -58t-57 -24q-34 0 -58 24t-24 58t24 57.5t59 23.5zM426 418q37 0 57 -18.5
t20 -51.5t-20.5 -51.5t-56.5 -18.5h-323q-37 0 -57.5 18.5t-20.5 51.5t20.5 51.5t57.5 18.5h323z" />
    <glyph glyph-name="ydieresis" unicode="&#xff;" horiz-adv-x="454" 
d="M309 686q26 0 44 -18.5t18 -44.5t-18.5 -45t-44.5 -19t-45 19t-19 45t19 44.5t46 18.5zM147 686q26 0 44 -18.5t18 -44.5t-18.5 -45t-44.5 -19t-45 19t-19 45t19 44.5t46 18.5zM305 445q15 48 56 48q25 0 43 -16t18 -38q0 -17 -4 -29l-153 -481q-20 -65 -63.5 -100.5
t-101.5 -35.5q-26 0 -43.5 18t-17.5 44q0 53 61 62q23 3 34 14.5t20 38.5l9 28l-127 412q-5 17 -5 29q0 22 18 38t43 16q42 0 56 -48l77 -268z" />
    <glyph glyph-name="periodcentered" unicode="&#xb7;" horiz-adv-x="222" 
d="M113 435q17 0 32.5 -7t27 -18.5t18.5 -27.5t7 -34q0 -36 -25.5 -61.5t-61.5 -25.5t-61.5 25.5t-25.5 62.5q0 36 25.5 61t63.5 25z" />
    <glyph glyph-name="Acircumflex" unicode="&#xc2;" horiz-adv-x="630" 
d="M284 790q-11 -17 -19.5 -22.5t-20.5 -5.5q-20 0 -34.5 14t-14.5 31q0 13 10 30l29 48q14 24 41 24h79q28 0 42 -24l28 -48q10 -17 10 -30q0 -17 -14.5 -31t-33.5 -14q-13 0 -21 6t-19 22l-31 47zM384 278l-69 228l-70 -228h139zM199 139l-32 -94q-18 -52 -63 -52
q-27 0 -47.5 18t-20.5 43q0 6 1.5 15.5t4.5 17.5l181 544q25 72 92 72q66 0 91 -72l181 -544q2 -8 4 -17.5t2 -16.5q0 -24 -20.5 -42t-47.5 -18q-45 0 -63 52l-31 94h-232z" />
    <glyph glyph-name="Ecircumflex" unicode="&#xca;" horiz-adv-x="546" 
d="M243 790q-11 -17 -19.5 -22.5t-20.5 -5.5q-20 0 -34.5 14t-14.5 31q0 13 10 30l29 48q14 24 41 24h79q28 0 42 -24l28 -48q10 -17 10 -30q0 -17 -14.5 -31t-34.5 -14q-12 0 -20 6t-19 22l-31 47zM373 418q37 0 57 -18.5t20 -51.5t-20.5 -51.5t-56.5 -18.5h-185v-139h254
q37 0 57.5 -18.5t20.5 -51.5q0 -32 -20.5 -50.5t-57.5 -18.5h-300q-39 0 -66 27t-27 66v510q0 39 27 66t66 27h300q37 0 57.5 -18.5t20.5 -51.5q0 -32 -20.5 -50.5t-57.5 -18.5h-254v-139h185z" />
    <glyph glyph-name="Aacute" unicode="&#xc1;" horiz-adv-x="630" 
d="M292 889q16 27 41 27q20 0 35 -14.5t15 -32.5q0 -6 -3.5 -15.5t-8.5 -17.5l-32 -48q-17 -26 -39 -26q-20 0 -34.5 14t-14.5 31q0 7 2.5 13t9.5 18zM384 278l-69 228l-70 -228h139zM199 139l-32 -94q-18 -52 -63 -52q-27 0 -47.5 18t-20.5 43q0 6 1.5 15.5t4.5 17.5
l181 544q25 72 92 72q66 0 91 -72l181 -544q2 -8 4 -17.5t2 -16.5q0 -24 -20.5 -42t-47.5 -18q-45 0 -63 52l-31 94h-232z" />
    <glyph glyph-name="Edieresis" unicode="&#xcb;" horiz-adv-x="546" 
d="M373 418q37 0 57 -18.5t20 -51.5t-20.5 -51.5t-56.5 -18.5h-185v-139h254q37 0 57.5 -18.5t20.5 -51.5q0 -32 -20.5 -50.5t-57.5 -18.5h-300q-39 0 -66 27t-27 66v510q0 39 27 66t66 27h300q37 0 57.5 -18.5t20.5 -51.5q0 -32 -20.5 -50.5t-57.5 -18.5h-254v-139h185z
M356 895q26 0 44 -18.5t18 -44.5t-18.5 -45t-44.5 -19t-45 19t-19 45t19 44.5t46 18.5zM194 895q26 0 44 -18.5t18 -44.5t-18.5 -45t-44.5 -19t-45 19t-19 45t19 44.5t46 18.5z" />
    <glyph glyph-name="Egrave" unicode="&#xc8;" horiz-adv-x="546" 
d="M217 836q-5 8 -8.5 17.5t-3.5 15.5q0 18 15 32.5t35 14.5q25 0 41 -27l30 -51q11 -19 11 -31q0 -17 -14.5 -31t-34.5 -14t-38 26zM373 418q37 0 57 -18.5t20 -51.5t-20.5 -51.5t-56.5 -18.5h-185v-139h254q37 0 57.5 -18.5t20.5 -51.5q0 -32 -20.5 -50.5t-57.5 -18.5
h-300q-39 0 -66 27t-27 66v510q0 39 27 66t66 27h300q37 0 57.5 -18.5t20.5 -51.5q0 -32 -20.5 -50.5t-57.5 -18.5h-254v-139h185z" />
    <glyph glyph-name="Iacute" unicode="&#xcd;" horiz-adv-x="241" 
d="M98 889q16 27 41 27q20 0 35 -14.5t15 -32.5q0 -7 -3.5 -16t-8.5 -17l-32 -48q-17 -26 -39 -26q-20 0 -34.5 14t-14.5 31q0 7 2.5 13t9.5 18zM51 626q0 36 18.5 56.5t50.5 20.5q33 0 51.5 -20.5t18.5 -56.5v-556q0 -36 -18.5 -56.5t-51.5 -20.5q-32 0 -50.5 20.5
t-18.5 56.5v556z" />
    <glyph glyph-name="Icircumflex" unicode="&#xce;" horiz-adv-x="241" 
d="M90 790q-11 -16 -19.5 -22t-20.5 -6q-20 0 -34.5 14t-14.5 31q0 13 10 30l29 48q14 24 41 24h79q28 0 42 -24l28 -48q11 -19 11 -30q0 -17 -15 -31t-34 -14q-12 0 -20.5 6t-19.5 22l-31 47zM51 626q0 36 18.5 56.5t51.5 20.5q32 0 50.5 -20.5t18.5 -56.5v-556
q0 -36 -18.5 -56.5t-50.5 -20.5q-33 0 -51.5 20.5t-18.5 56.5v556z" />
    <glyph glyph-name="Idieresis" unicode="&#xcf;" horiz-adv-x="241" 
d="M51 626q0 36 18.5 56.5t51.5 20.5t51.5 -20.5t18.5 -56.5v-556q0 -36 -18.5 -56.5t-51.5 -20.5t-51.5 20.5t-18.5 56.5v556zM203 895q26 0 44 -18.5t18 -44.5t-18.5 -45t-44.5 -19t-45 19t-19 45t19 44.5t46 18.5zM41 896q26 0 44.5 -19t18.5 -45t-19 -45t-45 -19t-45 19
t-19 46q0 26 19 44.5t46 18.5z" />
    <glyph glyph-name="Igrave" unicode="&#xcc;" horiz-adv-x="241" 
d="M64 836q-5 8 -8.5 17t-3.5 16q0 18 15 32.5t35 14.5q25 0 41 -27l30 -51q7 -11 9 -17.5t2 -13.5q0 -17 -14.5 -31t-33.5 -14q-21 0 -39 26zM51 626q0 36 18.5 56.5t50.5 20.5q33 0 51.5 -20.5t18.5 -56.5v-556q0 -36 -18.5 -56.5t-51.5 -20.5q-32 0 -50.5 20.5
t-18.5 56.5v556z" />
    <glyph glyph-name="Oacute" unicode="&#xd3;" horiz-adv-x="537" 
d="M245 889q16 27 42 27q20 0 35 -14.5t15 -32.5q0 -6 -3.5 -15.5t-8.5 -17.5l-33 -48q-17 -26 -39 -26q-20 0 -34.5 14t-14.5 31q0 7 2 12.5t10 18.5zM175 225q0 -19 7.5 -36t20 -29.5t29.5 -20t36 -7.5t36 7.5t29.5 20t20 29.5t7.5 36v246q0 20 -7.5 36.5t-20 29.5
t-29.5 20t-36 7t-36 -7t-29.5 -20t-20 -29.5t-7.5 -36.5v-246zM500 225q0 -48 -18 -90t-49.5 -73.5t-74 -50t-90.5 -18.5t-90 18.5t-73.5 50t-50 73.5t-18.5 90v246q0 48 18.5 90.5t50 74t73.5 49.5t90 18t90.5 -18t74 -49.5t49.5 -74t18 -90.5v-246z" />
    <glyph glyph-name="Ocircumflex" unicode="&#xd4;" horiz-adv-x="537" 
d="M237 790q-11 -16 -19.5 -22t-20.5 -6q-20 0 -34.5 13.5t-14.5 31.5q0 12 10 30l29 48q14 24 41 24h80q27 0 41 -24l29 -48q10 -18 10 -30q0 -18 -14.5 -31.5t-34.5 -13.5q-12 0 -20.5 6t-19.5 22l-31 47zM175 225q0 -19 7.5 -36t20 -29.5t29.5 -20t36 -7.5t36 7.5
t29.5 20t20 29.5t7.5 36v246q0 20 -7.5 36.5t-20 29.5t-29.5 20t-36 7t-36 -7t-29.5 -20t-20 -29.5t-7.5 -36.5v-246zM500 225q0 -48 -18 -90t-49.5 -73.5t-74 -50t-90.5 -18.5t-90 18.5t-73.5 50t-50 73.5t-18.5 90v246q0 48 18.5 90.5t50 74t73.5 49.5t90 18t90.5 -18
t74 -49.5t49.5 -74t18 -90.5v-246z" />
    <glyph glyph-name="Ograve" unicode="&#xd2;" horiz-adv-x="537" 
d="M212 836q-13 20 -13 33q0 18 15 32.5t35 14.5q26 0 42 -27l29 -51q8 -13 10 -18.5t2 -12.5q0 -17 -14.5 -31t-34.5 -14q-22 0 -39 26zM175 225q0 -19 7.5 -36t20 -29.5t29.5 -20t36 -7.5t36 7.5t29.5 20t20 29.5t7.5 36v246q0 20 -7.5 36.5t-20 29.5t-29.5 20t-36 7
t-36 -7t-29.5 -20t-20 -29.5t-7.5 -36.5v-246zM500 225q0 -48 -18 -90t-49.5 -73.5t-74 -50t-90.5 -18.5t-90 18.5t-73.5 50t-50 73.5t-18.5 90v246q0 48 18.5 90.5t50 74t73.5 49.5t90 18t90.5 -18t74 -49.5t49.5 -74t18 -90.5v-246z" />
    <glyph glyph-name="Uacute" unicode="&#xda;" horiz-adv-x="565" 
d="M259 889q16 27 42 27q20 0 35 -14.5t15 -32.5q0 -16 -12 -33l-33 -48q-17 -26 -39 -26q-20 0 -34.5 14t-14.5 31q0 7 2 12.5t10 18.5zM375 626q0 36 18.5 56.5t50.5 20.5q33 0 51.5 -20.5t18.5 -56.5v-401q0 -48 -18 -90t-49.5 -73.5t-74 -50t-90.5 -18.5t-90 18.5
t-73.5 50t-50 73.5t-18.5 90v401q0 36 18.5 56.5t50.5 20.5q33 0 51.5 -20.5t18.5 -56.5v-401q0 -19 7.5 -36t20 -29.5t29.5 -20t36 -7.5t36 7.5t29.5 20t20 29.5t7.5 36v401z" />
    <glyph glyph-name="Ucircumflex" unicode="&#xdb;" horiz-adv-x="565" 
d="M251 790q-11 -16 -19.5 -22t-20.5 -6q-20 0 -34.5 13.5t-14.5 31.5q0 12 10 30l29 48q14 24 41 24h80q27 0 41 -24l29 -48q10 -18 10 -30q0 -18 -14.5 -31.5t-34.5 -13.5q-12 0 -20.5 6t-19.5 22l-31 47zM375 626q0 36 18.5 56.5t50.5 20.5q33 0 51.5 -20.5t18.5 -56.5
v-401q0 -48 -18 -90t-49.5 -73.5t-74 -50t-90.5 -18.5t-90 18.5t-73.5 50t-50 73.5t-18.5 90v401q0 36 18.5 56.5t50.5 20.5q33 0 51.5 -20.5t18.5 -56.5v-401q0 -19 7.5 -36t20 -29.5t29.5 -20t36 -7.5t36 7.5t29.5 20t20 29.5t7.5 36v401z" />
    <glyph glyph-name="Ugrave" unicode="&#xd9;" horiz-adv-x="565" 
d="M225 836q-12 17 -12 33q0 18 15 32.5t35 14.5q26 0 42 -27l29 -51q8 -13 10 -18.5t2 -12.5q0 -17 -14.5 -31t-34.5 -14q-22 0 -39 26zM375 626q0 36 18.5 56.5t50.5 20.5q33 0 51.5 -20.5t18.5 -56.5v-401q0 -48 -18 -90t-49.5 -73.5t-74 -50t-90.5 -18.5t-90 18.5
t-73.5 50t-50 73.5t-18.5 90v401q0 36 18.5 56.5t50.5 20.5q33 0 51.5 -20.5t18.5 -56.5v-401q0 -19 7.5 -36t20 -29.5t29.5 -20t36 -7.5t36 7.5t29.5 20t20 29.5t7.5 36v401z" />
    <glyph glyph-name="macron" unicode="&#xaf;" horiz-adv-x="343" 
d="M282 645q46 0 46 -41t-46 -41h-221q-46 0 -46 41t46 41h221z" />
    <glyph glyph-name="cedilla" unicode="&#xb8;" horiz-adv-x="176" 
d="M94 -27q26 -9 41.5 -29.5t15.5 -47.5q0 -16 -6.5 -31t-17.5 -26t-25.5 -18t-31.5 -7h-21q-15 0 -24 8t-9 21q0 11 7 20t26 9h20q11 0 17.5 6.5t6.5 16.5t-7 17t-17 7h-12q-12 0 -21.5 9.5t-6.5 28.5l11 68h62z" />
    <glyph glyph-name="hungarumlaut" unicode="&#x2dd;" horiz-adv-x="370" 
d="M333 86q2 -8 3.5 -15.5t1.5 -16.5q0 -24 -20 -42.5t-49 -18.5q-47 0 -63 55l-169 562q-5 18 -5 32q0 12 6 23.5t15.5 19.5t22 13t25.5 5q48 0 64 -55z" />
    <glyph glyph-name="ogonek" unicode="&#x2db;" horiz-adv-x="454" 
d="M204 680q7 11 18.5 19t23.5 8q20 0 35 -15t15 -32q0 -12 -13 -32l-32 -49q-17 -26 -39 -26q-20 0 -34.5 14t-14.5 31q0 7 2.5 13.5t9.5 18.5zM305 445q15 48 56 48q25 0 43 -16t18 -38q0 -17 -4 -29l-153 -481q-20 -65 -63.5 -100.5t-101.5 -35.5q-26 0 -43.5 18
t-17.5 44q0 53 61 62q23 3 34 14.5t20 38.5l9 28l-127 412q-5 17 -5 29q0 22 18 38t43 16q42 0 56 -48l77 -268z" />
    <glyph glyph-name="caron" unicode="&#x2c7;" horiz-adv-x="528" 
d="M66 448q-28 28 -28 56q0 13 6 25.5t16 22.5t23 16t26 6q28 0 55 -27l100 -101l100 101q27 27 55 27q14 0 26.5 -6t22.5 -16t16 -22.5t6 -26.5v-2q0 -12 -6.5 -26t-20.5 -27l-101 -100l101 -100q14 -13 20.5 -27t6.5 -26v-2q0 -13 -6 -26t-16 -23t-22.5 -16t-26.5 -6
q-27 0 -55 28l-100 100l-100 -100q-28 -28 -54 -28q-14 0 -27 6t-23 16t-16 23t-6 26q0 27 28 55l100 100z" />
    <glyph glyph-name="cAC" unicode="&#x20ac;" horiz-adv-x="583" 
d="M234 488q31 0 48 -15.5t17 -42.5t-17 -42.5t-48 -15.5h-11v-48h11q31 0 48 -15.5t17 -42.5t-17 -42.5t-48 -15.5h-9q6 -33 31.5 -54.5t59.5 -21.5q67 0 92 75q18 53 67 53q29 0 49.5 -20t20.5 -49q0 -16 -8 -39t-20 -43q-33 -55 -85.5 -85.5t-115.5 -30.5
q-46 0 -86.5 16.5t-71 45t-50 68t-23.5 85.5q-64 2 -64 58q0 27 16.5 42t46.5 16v48q-30 1 -46.5 16t-16.5 42q0 56 64 58q4 46 23.5 85.5t50 68t71 45t86.5 16.5q63 0 115.5 -30.5t85.5 -85.5q13 -20 20.5 -43t7.5 -39q0 -29 -20.5 -49t-49.5 -20q-49 0 -67 53
q-25 75 -92 75q-34 0 -59.5 -21.5t-31.5 -54.5h9z" />
    <glyph glyph-name="onequarter" unicode="&#xbc;" horiz-adv-x="611" 
d="M126 8q-9 -15 -22 -15q-11 0 -19 7.5t-8 16.5q0 8 6 17l403 654q9 15 22 15q11 0 19 -7.5t8 -16.5q0 -8 -6 -17zM79 603q-25 0 -38.5 13t-13.5 33q0 23 14.5 35t37.5 12h57q19 0 32.5 -13.5t13.5 -32.5v-254q0 -24 -12.5 -38t-33.5 -14q-47 0 -47 52v207h-10zM489 127
v100l-50 -100h50zM570 41q0 -21 -10.5 -33t-30.5 -12q-19 0 -29.5 12t-10.5 33v5h-77q-25 0 -42 17t-17 42q0 8 1.5 13.5t6.5 14.5l96 181q20 38 55 38q24 0 41 -17.5t17 -41.5v-166q39 -4 39 -41q0 -35 -39 -40v-5z" />
    <glyph glyph-name="onesuperior" unicode="&#xb9;" horiz-adv-x="268" 
d="M79 603q-52 0 -52 46q0 47 52 47h57q19 0 32.5 -13.5t13.5 -32.5v-254q0 -24 -12.5 -38t-33.5 -14q-47 0 -47 52v207h-10z" />
    <glyph glyph-name="threequarters" unicode="&#xbe;" horiz-adv-x="611" 
d="M126 8q-9 -15 -22 -15q-8 0 -17.5 7t-9.5 17q0 8 6 17l403 654q9 15 21 15q11 0 19 -7.5t8 -16.5q0 -4 -1.5 -9t-3.5 -8zM489 127v100l-50 -100h50zM570 41q0 -21 -10.5 -33t-29.5 -12q-20 0 -30.5 12t-10.5 33v5h-77q-25 0 -42 17t-17 42q0 8 1.5 13.5t6.5 14.5l96 181
q20 38 55 38q24 0 41 -17.5t17 -41.5v-166q39 -4 39 -41q0 -35 -39 -40v-5zM220 522q14 -14 19 -33t5 -35q0 -23 -8.5 -43t-23 -35t-34.5 -23.5t-43 -8.5q-20 0 -39 8t-34 20.5t-24.5 29t-9.5 33.5q0 16 12 28t28 12t25 -8.5t17 -25.5q3 -8 10.5 -12t14.5 -4q12 0 20 8t8 20
q0 28 -29 28q-47 2 -47 41q0 41 47 41q13 0 21 7.5t8 20.5q0 12 -8 20t-21 8q-8 0 -15.5 -5t-12.5 -18t-15 -20t-22 -7q-17 0 -29 12t-12 28q0 17 9.5 33.5t24.5 29.5t34 20.5t39 7.5q22 0 42 -8.5t35 -22.5t23.5 -33.5t8.5 -40.5q0 -43 -24 -73z" />
    <glyph glyph-name="threesuperior" unicode="&#xb3;" horiz-adv-x="268" 
d="M220 522q14 -15 19 -33t5 -35q0 -23 -8.5 -43t-23 -35t-34.5 -23.5t-43 -8.5q-20 0 -39 8t-34 20.5t-24.5 29t-9.5 33.5q0 16 12 28t28 12q17 0 26 -9t16 -25t25 -16q12 0 20 8t8 20q0 28 -29 28q-47 2 -47 41q0 41 47 41q13 0 21 7.5t8 20.5q0 12 -8 20t-21 8
q-8 0 -15.5 -5t-12.5 -18t-15 -20t-22 -7q-17 0 -29 12t-12 28q0 17 9.5 33.5t24.5 29.5t34 20.5t39 7.5q22 0 42 -8.5t35 -22.5t23.5 -33.5t8.5 -40.5q0 -43 -24 -73z" />
    <glyph glyph-name="twosuperior" unicode="&#xb2;" horiz-adv-x="268" 
d="M202 429q21 0 33 -10.5t12 -29.5q0 -20 -12 -30.5t-33 -10.5h-124q-23 0 -39.5 16t-16.5 39q0 22 15 38l119 132q7 7 7 18t-8.5 19.5t-19.5 8.5q-18 0 -27 -21q-11 -28 -38 -28q-17 0 -29 12t-12 28q0 17 9.5 33t24.5 28.5t34 20.5t38 8q23 0 42.5 -8.5t34.5 -23.5
t23.5 -34.5t8.5 -42.5q0 -19 -7 -38t-19 -32l-83 -92h67z" />
    <glyph glyph-name="brokenbar" unicode="&#xa6;" horiz-adv-x="241" 
d="M51 84q0 37 18.5 57.5t50.5 20.5q33 0 51.5 -20.5t18.5 -57.5v-215q0 -37 -18.5 -57.5t-51.5 -20.5q-32 0 -50.5 20.5t-18.5 57.5v215zM51 625q0 37 18.5 57.5t50.5 20.5q33 0 51.5 -20.5t18.5 -57.5v-215q0 -37 -18.5 -57.5t-51.5 -20.5q-32 0 -50.5 20.5t-18.5 57.5
v215z" />
    <glyph glyph-name="multiply" unicode="&#xd7;" horiz-adv-x="528" 
d="M66 448q-28 28 -28 56q0 13 6 25.5t16 22.5t23 16t26 6q28 0 55 -27l100 -101l100 101q27 27 55 27q14 0 26.5 -6t22.5 -16t16 -22.5t6 -26.5v-2q0 -12 -6.5 -26t-20.5 -27l-101 -100l101 -100q14 -13 20.5 -27t6.5 -26v-2q0 -13 -6 -26t-16 -23t-22.5 -16t-26.5 -6
q-27 0 -55 28l-100 100l-100 -100q-28 -28 -54 -28q-14 0 -27 6t-23 16t-16 23t-6 26q0 27 28 55l100 100z" />
    <glyph glyph-name="currency" unicode="&#xa4;" horiz-adv-x="611" 
d="M307 489q-29 0 -54.5 -11t-45 -30t-31 -44.5t-11.5 -53.5q0 -30 11 -56t30 -45.5t44.5 -31t54.5 -11.5q30 0 56 11t45.5 30.5t30.5 45t11 55.5q0 29 -11 55t-30 45t-45 30t-55 11zM51 530q-21 21 -21 41q0 10 4.5 20t12 17.5t17 12t19.5 4.5q21 0 42 -21l51 -51
q28 18 62 28t69 10t69 -10t62 -28l51 51q21 21 41 21t37 -17t17 -37t-21 -41l-51 -51q17 -26 27.5 -62t10.5 -69q0 -34 -10.5 -69.5t-27.5 -62.5l51 -50q21 -19 21 -41q0 -20 -17 -37t-37 -17t-41 21l-51 50q-29 -18 -63 -28t-69 -10q-69 0 -130 38l-51 -50q-21 -21 -41 -21
q-10 0 -20 4.5t-17.5 12t-12 17t-4.5 19.5q0 21 21 42l51 50q-19 29 -29 63.5t-10 69.5q0 34 10 67.5t29 62.5z" />
    <glyph glyph-name="Eth" unicode="&#xd0;" horiz-adv-x="546" 
d="M249 383q38 0 38 -35t-38 -35h-62v-174h93q19 0 36 7t29.5 20t20 30t7.5 36v232q0 20 -7.5 36.5t-20 29.5t-29.5 20t-36 7h-93v-174h62zM48 603q0 39 27 66t66 27h139q48 0 90.5 -18t74 -49.5t49.5 -74t18 -90.5v-232q0 -48 -18 -90t-49.5 -73.5t-74 -50t-90.5 -18.5
h-139q-39 0 -66 27t-27 66v220h-3q-18 0 -28.5 9t-10.5 26t10.5 26t28.5 9h3v220z" />
    <glyph glyph-name="minus" unicode="&#x2212;" horiz-adv-x="528" 
d="M426 418q37 0 57 -18.5t20 -51.5t-20.5 -51.5t-56.5 -18.5h-323q-37 0 -57.5 18.5t-20.5 51.5t20.5 51.5t57.5 18.5h323z" />
    <glyph glyph-name="eth" unicode="&#xf0;" 
d="M147 178q0 -25 18 -43t44 -18q25 0 43 18t18 43v104q0 26 -18 44t-43 18q-26 0 -44 -18t-18 -44v-104zM363 624q31 -46 31 -99v-347q0 -38 -14.5 -72t-39.5 -59t-59 -39.5t-72 -14.5q-39 0 -72.5 14.5t-59 39.5t-40 59t-14.5 72v104q0 39 14.5 72.5t40 59t59 40
t72.5 14.5q15 0 29.5 -2.5t31.5 -8.5v75l-32 -31q-13 -13 -27 -13q-13 0 -24 11t-11 25q0 13 14 27l34 34q-5 1 -8.5 1.5t-7.5 0.5q-9 0 -15.5 -1t-13 -4.5t-13.5 -9.5t-17 -16q-18 -18 -43 -18q-23 0 -40 17t-17 40q0 20 14 39t37 34.5t51.5 25t57.5 9.5q27 0 54 -8t50 -23
l17 17q14 14 28 14q13 0 24 -11t11 -25q0 -13 -14 -27z" />
    <glyph glyph-name="Yacute" unicode="&#xdd;" horiz-adv-x="472" 
d="M213 889q16 27 42 27q20 0 35 -14.5t15 -32.5q0 -6 -3.5 -15.5t-8.5 -17.5l-33 -48q-17 -26 -39 -26q-19 0 -34 14t-15 31q0 7 2 12.5t10 18.5zM306 70q0 -36 -18.5 -56.5t-50.5 -20.5q-33 0 -51.5 20.5t-18.5 56.5v208l-128 330q-8 20 -8 36q0 23 20.5 41t47.5 18
q43 0 60 -48l78 -216l77 216q17 48 60 48q27 0 47.5 -18t20.5 -41q0 -8 -1.5 -16t-6.5 -20l-128 -330v-208z" />
    <glyph glyph-name="yacute" unicode="&#xfd;" horiz-adv-x="454" 
d="M204 680q7 11 18.5 19t23.5 8q20 0 35 -15t15 -32q0 -12 -13 -32l-32 -49q-17 -26 -39 -26q-20 0 -34.5 14t-14.5 31q0 7 2.5 13.5t9.5 18.5zM305 445q15 48 56 48q25 0 43 -16t18 -38q0 -17 -4 -29l-153 -481q-20 -65 -63.5 -100.5t-101.5 -35.5q-26 0 -43.5 18
t-17.5 44q0 53 61 62q23 3 34 14.5t20 38.5l9 28l-127 412q-5 17 -5 29q0 22 18 38t43 16q42 0 56 -48l77 -268z" />
    <glyph glyph-name="thorn" unicode="&#xfe;" horiz-adv-x="435" 
d="M287 302q0 25 -18 43t-43 18q-26 0 -44 -18t-18 -43v-117q0 -25 18 -43t44 -18q25 0 43 18t18 44v116zM164 458q34 29 83 29q35 0 65 -14t52 -38.5t34.5 -58.5t12.5 -74v-116q0 -40 -12.5 -74t-34.5 -59t-52 -39t-65 -14q-50 0 -83 29v-169q0 -32 -16.5 -50.5
t-45.5 -18.5t-45.5 18.5t-16.5 50.5v774q0 33 16.5 51t45.5 18t45.5 -18t16.5 -51v-176z" />
    <glyph glyph-name="Thorn" unicode="&#xde;" horiz-adv-x="546" 
d="M187 255h93q20 0 36.5 7.5t29.5 20t20 29.5t7 36t-7 36t-20 29.5t-29.5 20t-36.5 7.5h-93v-186zM280 580q48 0 90.5 -18t74 -49.5t49.5 -74t18 -90.5t-18 -90t-49.5 -73.5t-74 -50t-90.5 -18.5h-93v-46q0 -36 -18.5 -56.5t-51.5 -20.5q-32 0 -50.5 20.5t-18.5 56.5v556
q0 36 18.5 56.5t50.5 20.5q33 0 51.5 -20.5t18.5 -56.5v-46h93z" />
    <glyph glyph-name="onehalf" unicode="&#xbd;" horiz-adv-x="611" 
d="M79 603q-52 0 -52 46q0 47 52 47h57q19 0 32.5 -13.5t13.5 -32.5v-254q0 -24 -12.5 -38t-33.5 -14q-47 0 -47 52v207h-10zM545 81q21 0 33 -10.5t12 -29.5q0 -20 -12 -30.5t-33 -10.5h-124q-23 0 -39.5 16t-16.5 39q0 22 15 38l119 132q7 7 7 18t-8.5 19.5t-19.5 8.5
q-18 0 -27 -21q-11 -28 -38 -28q-17 0 -29 12t-12 28q0 17 9.5 33t24.5 28.5t34 20.5t38 8q23 0 42.5 -8.5t34.5 -23.5t23.5 -34.5t8.5 -42.5q0 -19 -7 -38t-19 -33l-83 -91h67zM126 8q-9 -15 -22 -15q-11 0 -19 7.5t-8 16.5q0 8 6 17l403 654q9 15 22 15q11 0 19 -7.5
t8 -16.5q0 -8 -6 -17z" />
    </font>
</defs>
</svg>
